<svg width="46" height="46" viewBox="0 0 46 46" fill="none" xmlns="http://www.w3.org/2000/svg">
<ellipse cx="18.5" cy="38.5" rx="17.5" ry="7.5" fill="#336699"/>
<g clip-path="url(#clip0_135_2002)">
<g filter="url(#filter0_b_135_2002)">
<path d="M26.7455 18.6905C27.8237 18.4445 28.8181 17.4938 28.9801 15.3853C29.1137 13.6596 28.6988 12.7706 28.0863 12.3175C29.7868 4.92359 25.0967 3.47615 25.0967 3.47615C25.0967 3.47615 21.5916 -2.86735 14.7532 1.58421C13.8834 2.15027 12.531 3.23491 11.7253 4.35468C10.4317 5.82302 9.55116 8.20979 9.41317 12.0753C8.57807 12.4154 7.92192 13.2759 8.08484 15.3843C8.25578 17.5888 9.33393 18.5271 10.4682 18.719C11.9995 22.6976 15.0229 25.9762 18.601 25.9762C22.1872 25.9762 25.2169 22.6824 26.7455 18.6905ZM18.601 24.1213C14.4638 24.1213 11.1323 18.1282 11.1323 13.1657C11.1323 12.4857 11.1528 11.855 11.192 11.2699C17.2433 11.552 20.8223 8.96391 22.7703 6.71866C24.6177 8.68278 25.5774 11.1636 26.068 13.0052L26.0689 13.1647C26.0698 18.1282 22.7392 24.1213 18.601 24.1213ZM17.0439 28.8957C15.5104 27.6949 14.0863 26.2941 12.6209 24.9998L10.0168 25.6494C5.60714 26.7559 2.5 30.7288 2.5 35.2858V38.882C2.5 40.0597 3.482 40.9991 4.65719 40.9991H15.68C15.9207 39.535 17.0439 29.1962 17.0439 28.8957ZM27.0286 25.6494L24.4601 24.9998L20.1858 28.7789C20.1395 28.8195 20.092 28.8585 20.0433 28.8957C20.2045 29.0563 20.3229 29.2652 20.379 29.5093L20.8571 31.6244C20.8986 31.8074 20.9007 31.9979 20.8634 32.1819C20.8261 32.3658 20.7503 32.5384 20.6416 32.6866C20.5329 32.8349 20.3943 32.955 20.2359 33.038C20.0776 33.121 19.9037 33.1647 19.7273 33.1659L21.4082 41H32.4309C33.6061 41 34.5 40.0616 34.5 38.883V35.2867C34.5018 30.7288 31.4383 26.7559 27.0286 25.6494Z" fill="#9A9EAE" fill-opacity="0.3"/>
<path d="M15.68 40.9991L21.4082 41L19.7273 33.1659C19.9037 33.1647 20.0776 33.121 20.2359 33.038C20.3943 32.955 20.5329 32.8349 20.6416 32.6866C20.7503 32.5384 20.8261 32.3658 20.8634 32.1819C20.9007 31.9979 20.8986 31.8074 20.8571 31.6244L20.379 29.5093C20.3229 29.2652 20.2045 29.0563 20.0433 28.8957C19.1298 29.6962 17.6631 29.2293 17.0439 28.8957C17.0439 29.1962 15.9207 39.535 15.68 40.9991Z" fill="#9A9EAE" fill-opacity="0.3"/>
</g>
</g>
<defs>
<filter id="filter0_b_135_2002" x="-3.6" y="-6.1" width="44.2" height="53.2" filterUnits="userSpaceOnUse" color-interpolation-filters="sRGB">
<feFlood flood-opacity="0" result="BackgroundImageFix"/>
<feGaussianBlur in="BackgroundImageFix" stdDeviation="3.05"/>
<feComposite in2="SourceAlpha" operator="in" result="effect1_backgroundBlur_135_2002"/>
<feBlend mode="normal" in="SourceGraphic" in2="effect1_backgroundBlur_135_2002" result="shape"/>
</filter>
<clipPath id="clip0_135_2002">
<rect width="38" height="40" rx="19" fill="white"/>
</clipPath>
</defs>
</svg>
