<svg width="757" height="467" viewBox="0 0 757 467" fill="none" xmlns="http://www.w3.org/2000/svg">
<path d="M313.73 0L196.334 449.013L163.949 297.319C211.177 297.319 250.309 312.152 281.345 341.816C312.381 371.481 327.898 411.258 327.898 461.148C327.898 511.039 312.381 551.49 281.345 582.503C250.309 612.168 211.852 627 165.973 627C117.396 627 77.5891 611.494 46.5535 580.481C15.5178 549.468 0 509.69 0 461.148C0 444.968 0.674687 430.135 2.02406 416.652C4.72281 401.819 9.44563 384.29 16.1925 364.064C22.9394 343.839 32.385 318.219 44.5294 287.206L151.805 0H313.73ZM742.831 0L625.436 449.013L593.051 297.319C640.279 297.319 679.411 312.152 710.447 341.816C741.482 371.481 757 411.258 757 461.148C757 511.039 741.482 551.49 710.447 582.503C679.411 612.168 640.954 627 595.075 627C546.497 627 506.691 611.494 475.655 580.481C444.619 549.468 429.102 509.69 429.102 461.148C429.102 444.968 429.776 430.135 431.126 416.652C433.824 401.819 438.547 384.29 445.294 364.064C452.041 343.839 461.487 318.219 473.631 287.206L580.906 0H742.831Z" fill="#336699" fill-opacity="0.06"/>
</svg>
