<svg width="104" height="57" viewBox="0 0 104 57" fill="none" xmlns="http://www.w3.org/2000/svg">
<g clip-path="url(#clip0_259_3013)">
<path d="M16.0724 9.46742C25.283 4.48937 37.954 1.41391 52 1.41391C66.0461 1.41391 78.7435 4.48937 87.9277 9.46742C96.9803 14.3738 102.579 21.1046 102.579 28.5C102.579 35.8954 96.9803 42.6262 87.9277 47.5326C78.7171 52.5106 66.0461 55.5861 52 55.5861C37.954 55.5861 25.2566 52.5106 16.0724 47.5326C7.0198 42.6262 1.4211 35.8954 1.4211 28.5C1.4211 21.1046 7.0198 14.3738 16.0724 9.46742ZM52 0C37.7237 0 24.7829 3.14712 15.3948 8.22943C5.8882 13.3834 0.0263672 20.5507 0.0263672 28.5C0.0263672 36.4492 5.90794 43.6166 15.4211 48.7706C24.8027 53.8529 37.75 57 52.0264 57C66.3027 57 79.2435 53.8529 88.6316 48.7706C98.1119 43.6166 103.974 36.4492 103.974 28.5C103.974 20.5507 98.0921 13.3834 88.579 8.22943C79.1974 3.14712 66.25 0 51.9737 0" fill="#B88A57"/>
<path fill-rule="evenodd" clip-rule="evenodd" d="M15 28.4544L16.2763 24.9098H17.9276L15.954 30.2462C15.7445 30.8917 15.4264 31.4975 15.0132 32.0381C14.8395 32.243 14.6183 32.4033 14.3686 32.5054C14.1189 32.6075 13.848 32.6484 13.579 32.6245C13.3356 32.6049 13.0952 32.559 12.8619 32.4877V31.2432C12.9968 31.2817 13.136 31.3035 13.2764 31.3083C13.3796 31.3151 13.4832 31.3007 13.5806 31.266C13.678 31.2312 13.767 31.1768 13.8421 31.1063C14.0184 30.8842 14.1481 30.6294 14.2237 30.357L11.4737 24.9424H13.2303L15 28.4544ZM20.7237 28.7085H21.4605C21.8268 28.733 22.19 28.6292 22.4869 28.4153C22.6159 28.2964 22.7166 28.1505 22.7815 27.9882C22.8463 27.8258 22.8738 27.6512 22.8619 27.477C22.8969 26.6083 22.4277 26.1739 21.454 26.1739H20.7303L20.7237 28.7085ZM20.7237 30.0117V32.4616H19.0527V24.9098H21.3948C22.2657 24.8583 23.1332 25.055 23.8948 25.4767C24.2047 25.7098 24.4467 26.0202 24.5958 26.3762C24.7449 26.7323 24.7959 27.1212 24.7435 27.5031C24.7435 29.1625 23.7105 29.9921 21.6448 29.9921L20.7237 30.0117ZM30.5921 26.1804H27.6579V32.4616H25.9934V24.9098H30.5987L30.5921 26.1804ZM34.6119 28.4674L35.8882 24.9229H37.5263L35.5527 30.2593C35.3428 30.9046 35.0248 31.5104 34.6119 32.0511C34.4381 32.256 34.217 32.4163 33.9673 32.5184C33.7176 32.6205 33.4467 32.6614 33.1777 32.6375C32.9343 32.618 32.6938 32.5722 32.4605 32.5007V31.2562C32.5955 31.2947 32.7347 31.3166 32.875 31.3214C32.984 31.3268 33.0928 31.3086 33.1939 31.2681C33.2951 31.2276 33.3861 31.1657 33.4606 31.0868C33.6368 30.8646 33.7665 30.6099 33.8421 30.3375L31.0921 24.9229H32.8487L34.6119 28.4674ZM41.6316 26.1674V32.4551H39.9671V26.1543H38.0263V24.9098H43.5658V26.1543L41.6316 26.1674ZM46.3487 28.9952V32.4551H44.6842V24.9098H46.3487V27.7246H49.1184V24.9098H50.7829V32.4421H49.1184V28.9822L46.3487 28.9952ZM57.2632 26.1674H54.2237V27.9397H56.7698V29.2428H54.2237V31.1976H57.6448V32.4225H52.5527V24.9098H57.2632V26.1674ZM63.4737 26.4801V30.1094C63.7171 30.1502 63.9664 30.1401 64.2055 30.0794C64.4446 30.0188 64.6682 29.9092 64.8619 29.7576C65.1978 29.343 65.354 28.8134 65.2961 28.285C65.2961 27.0123 64.6886 26.4106 63.4737 26.4801ZM61.8356 26.4801C60.6777 26.3759 60.0987 26.9732 60.0987 28.272C60.0431 28.7961 60.1887 29.3218 60.5066 29.7445C60.6871 29.894 60.8983 30.0029 61.1255 30.0637C61.3526 30.1244 61.5904 30.1356 61.8224 30.0964L61.8356 26.4801ZM61.8356 32.4355V31.3279H61.5921C61.1092 31.3394 60.6274 31.2757 60.1645 31.1389C59.6463 30.9378 59.2109 30.5709 58.9277 30.0964C58.596 29.5481 58.4294 28.9174 58.4474 28.2785C58.4519 27.8132 58.5387 27.3523 58.704 26.9167C58.9021 26.4175 59.2574 25.9948 59.7171 25.7113C60.3567 25.341 61.0985 25.1813 61.8356 25.2552V24.369H63.4737V25.2421C64.2298 25.1669 64.9908 25.3263 65.6513 25.6982C66.1169 25.9785 66.4773 26.4018 66.6777 26.9036C66.8429 27.3392 66.9297 27.8002 66.9342 28.2655C66.9499 28.905 66.781 29.5356 66.4474 30.0833C66.1511 30.5628 65.695 30.9246 65.1579 31.1063C64.6837 31.243 64.1912 31.3067 63.6974 31.2953H63.454V32.403L61.8356 32.4355ZM71.2237 26.1478V32.4355H69.5592V26.1543H67.6184V24.9098H73.1579V26.1543L71.2237 26.1478ZM78.9935 26.1478H75.9539V27.9201H78.5V29.2233H75.9539V31.178H79.375V32.403H74.2829V24.9098H78.9737L78.9935 26.1478ZM85.2303 26.1478H82.2632V32.429H80.5987V24.9098H85.2039L85.2303 26.1478ZM88.4803 29.5881H90.3224L89.375 27.2164L88.4803 29.5881ZM87.9869 30.8913L87.4013 32.4421H85.7303L88.5987 24.9098H90.1579L93.079 32.4421H91.4079L90.75 30.8587L87.9869 30.8913ZM94.6579 26.63L93.9211 25.594C94.6936 25.0175 95.6381 24.7126 96.6053 24.7274C97.1291 24.7018 97.6518 24.7978 98.1316 25.0076C98.4895 25.1661 98.7951 25.4212 99.0132 25.7438C99.1949 26.0252 99.3096 26.3438 99.3487 26.6756C99.3701 26.9328 99.3411 27.1917 99.2632 27.4379C99.1827 27.691 99.0323 27.9168 98.829 28.0895C98.6024 28.2799 98.3267 28.404 98.0329 28.4479V28.5652C98.4473 28.5942 98.8373 28.77 99.1316 29.0604C99.2862 29.2136 99.407 29.397 99.4863 29.5989C99.5655 29.8008 99.6016 30.0168 99.5921 30.2332C99.591 30.6359 99.4722 31.0297 99.25 31.367C98.9934 31.7466 98.636 32.0487 98.2171 32.2401C97.6893 32.4826 97.1148 32.6093 96.5329 32.6115C95.4434 32.6215 94.3887 32.2316 93.5724 31.5168L94.3685 30.5069C94.4022 30.5112 94.4341 30.5248 94.4605 30.546L94.5395 30.6111L94.7764 30.761L95.1119 30.963C95.5537 31.1949 96.0555 31.2902 96.5526 31.2367C96.8903 31.207 97.2047 31.0536 97.4342 30.8066C97.5341 30.7019 97.6109 30.5777 97.6596 30.4419C97.7083 30.3062 97.7279 30.1619 97.7171 30.0182C97.7171 29.4492 97.3289 29.1646 96.5526 29.1646H95.8158V27.9006H96.4211C96.5906 27.9221 96.7628 27.9052 96.9246 27.851C97.0865 27.7968 97.2338 27.7068 97.3553 27.5878C97.4291 27.4975 97.483 27.3928 97.5136 27.2806C97.5442 27.1684 97.5508 27.0511 97.5329 26.9362C97.5153 26.8145 97.4722 26.6978 97.4065 26.5935C97.3408 26.4892 97.2539 26.3995 97.1513 26.3303C96.8924 26.1617 96.5858 26.0795 96.2763 26.0957C95.6962 26.1269 95.1362 26.3163 94.6579 26.643M10.7171 25.796L9.89476 26.7798C9.66666 26.5486 9.38967 26.3702 9.08368 26.2575C8.77769 26.1449 8.45029 26.1007 8.12502 26.1283C7.86712 26.1685 7.61931 26.257 7.39477 26.3889C7.0897 26.5788 6.84732 26.8528 6.6974 27.1773C6.47819 27.6504 6.37882 28.1693 6.40793 28.689C6.35793 29.3519 6.55449 30.0101 6.96056 30.5395C7.25935 30.8788 7.665 31.1084 8.11187 31.191C8.4813 31.2255 8.85338 31.1629 9.19063 31.0096C9.52788 30.8564 9.81838 30.6178 10.0329 30.3179L10.9474 31.1194C10.6049 31.5864 10.1573 31.9679 9.63996 32.2337C9.12263 32.4995 8.54987 32.6422 7.96713 32.6506C7.32868 32.6601 6.70085 32.4882 6.15792 32.1554C5.61442 31.8118 5.17907 31.3243 4.90134 30.748C4.59261 30.124 4.43921 29.4358 4.45398 28.7411C4.4247 28.192 4.51269 27.643 4.71221 27.1299C4.91173 26.6168 5.21828 26.1512 5.61186 25.7634C6.311 25.1157 7.23347 24.7568 8.19082 24.76C8.67676 24.7558 9.15832 24.8512 9.60529 25.0401C10.025 25.2182 10.4017 25.4825 10.7105 25.8155" fill="#00649D"/>
<path fill-rule="evenodd" clip-rule="evenodd" d="M79.2368 35.6673C72.2763 45.9101 53.0921 50.9859 40.3684 52.8364C38.046 52.5497 37.3552 52.4585 35.171 52.1196C42.8947 49.585 60.6973 45.0631 63.9276 35.6673H79.2368ZM60.6447 9.91045C66.9013 11.6632 74.6184 14.5692 79.1118 21.2935H60.7434C60.4934 20.9808 60.2368 20.6419 59.9736 20.3552L59.7565 20.1011L59.6842 20.0164L59.0855 19.3648L59.0131 19.2801L58.8618 19.1107L58.5526 18.7784L58.3157 18.5308L58 18.205L57.921 18.0747L57.7631 17.9118L57.5197 17.6707L57.3552 17.5144L57.2763 17.4362L57.1118 17.2798L57.0329 17.2016L56.9473 17.1234L56.7829 16.967L56.6973 16.8888L56.6118 16.8107L56.5263 16.7325L56.4539 16.6673L56.3815 16.6021L56.3092 16.537L56.2368 16.4718L56.1644 16.4067L56.092 16.3415L56.0197 16.2764L55.9473 16.2112L55.875 16.1461L55.7302 16.0157L55.6579 15.9506L55.5855 15.8854L55.5131 15.8203L55.4407 15.7551L55.296 15.6313L55.2237 15.5661L55.1513 15.501L55.0789 15.4358L54.9342 15.312L54.8618 15.2534L54.7894 15.1947L54.6447 15.071L54.3618 14.8299L53.9342 14.478L53.5131 14.1457V14.0805C55.768 12.4789 58.1636 11.0811 60.671 9.90393" fill="#A97654"/>
<path fill-rule="evenodd" clip-rule="evenodd" d="M81.1184 35.6674C75.1447 45.9753 56.8421 51.7157 45.8158 53.3772C47.9079 53.4554 49.7237 53.6053 52.1645 53.6053C65.7368 53.6053 77.875 50.7123 86.7434 46.073C92.6645 42.8803 96.3421 39.453 98.5461 35.6478L81.1184 35.6674ZM62.875 8.84842C70.829 11.6632 76.8158 14.5758 81.1513 21.2936L98.5132 21.2414C93.4474 12.4712 81.6053 7.85151 71.7829 5.54492C70.0395 6.02057 63.6184 8.49006 62.875 8.87449" fill="#B88A57"/>
<path fill-rule="evenodd" clip-rule="evenodd" d="M24.7698 35.6673C28.3685 40.8213 33.9803 44.1964 40.7237 46.1968C41.8685 46.5356 43.7829 46.9005 44.9211 47.1155C48.0434 46.1881 51.0596 44.9412 53.9211 43.395L52.1908 43.4732H51.0527H50.9014H50.7501H50.5987H50.4474H50.2961H50.1448C47.3758 43.1289 44.7946 41.9032 42.7895 39.9807C41.5559 38.7746 40.6077 37.3126 40.0132 35.6999L24.7698 35.6673ZM63.6908 4.13745C45.4343 6.74376 30.3685 12.9859 24.875 21.287H43.2961L43.3553 21.2088L43.4935 21.0329L43.6316 20.8569L43.6974 20.7722L43.908 20.5116L44.2698 20.0751L44.3421 19.9903C44.5395 19.7623 44.7369 19.5342 44.9408 19.3388L45.0132 19.2541L45.1645 19.0846L45.4737 18.7523L45.7106 18.5047L46.0264 18.179L46.1053 18.1008L46.2632 17.9379L46.5066 17.6968L46.6711 17.5404L46.75 17.4622L46.9145 17.3058L46.9935 17.2277L47.079 17.1495L47.1974 17.0387C47.8553 16.3871 48.5987 15.7355 49.3356 15.1231L49.5132 14.9797L49.6514 14.8689L50.079 14.5171L50.5 14.1848C50.9408 13.8394 51.375 13.5332 51.8158 13.24C57.0347 9.57563 62.8085 6.75607 68.9211 4.88678L68.7171 4.83464C67.3356 4.58053 65.1119 4.35899 63.6711 4.18307" fill="#00649D"/>
<path fill-rule="evenodd" clip-rule="evenodd" d="M22.8553 21.3326C29.2698 10.5425 48.0461 5.36894 58.2303 3.64877C55.8882 3.46633 54.2829 3.37512 51.8356 3.37512C38.2632 3.37512 25.9935 6.26812 17.1316 10.9074C11.9211 13.8264 7.78293 17.3775 5.45398 21.3326H22.8553ZM37.329 46.7441C31.1514 44.2486 26.2829 41.4077 22.8553 35.726H5.50004C10.4803 44.3203 22.3948 49.1224 32.1711 51.5332C34.0461 51.0315 40.4211 48.9595 42.3553 48.1711C40.6508 47.8454 38.9796 47.3678 37.3619 46.7441" fill="#007EAF"/>
</g>
<defs>
<clipPath id="clip0_259_3013">
<rect width="104" height="57" fill="white"/>
</clipPath>
</defs>
</svg>
