<svg width="78" height="29" viewBox="0 0 78 29" fill="none" xmlns="http://www.w3.org/2000/svg">
<g clip-path="url(#clip0_261_4056)">
<path d="M25.3468 5.07275C24.7444 2.44031 23.2385 0.29977 23.0355 -0.0498047C22.7082 0.441362 21.5101 2.33142 20.8945 4.42872C20.2332 6.76604 20.1351 8.84033 20.3642 10.8833C20.5934 12.926 21.4511 15.0233 21.4511 15.0233C21.9094 16.1258 22.5969 17.3055 23.0422 17.8853C23.6969 17.0327 25.2028 14.4882 25.6742 11.1671C25.9361 9.32179 25.9426 7.70513 25.3468 5.07275ZM23.0355 17.2295C22.7409 16.6727 22.2826 15.6123 22.2368 13.974C22.2237 12.3909 22.8587 11.036 23.0421 10.752C23.2058 11.036 23.7558 12.2158 23.8212 13.8324C23.8605 15.4162 23.3367 16.6616 23.0355 17.2295ZM25.1701 9.54008C25.1505 10.5441 25.0326 11.6039 24.8755 12.2375C24.9344 11.1455 24.8035 9.60572 24.5482 8.40361C24.2993 7.20216 23.5922 5.19276 23.0226 4.26413C22.4987 5.14878 21.8571 6.88605 21.5166 8.3924C21.1827 9.90078 21.1696 11.7239 21.1696 12.2709C21.0779 11.8099 20.8553 10.1664 20.9208 8.51309C20.9732 7.14966 21.2874 5.7495 21.4642 5.10546C22.1321 2.9538 22.8851 1.57791 23.0225 1.35955C23.1666 1.57791 24.116 3.27059 24.6071 5.0511C25.0981 6.83093 25.1963 8.53474 25.1701 9.54008Z" fill="#0079C1"/>
<path d="M24.0505 18.4984H19.4869V21.5657C19.4935 21.5617 19.5 21.5572 19.5 21.5532C20.5738 20.4763 22.322 20.4763 23.3957 21.5532C24.4695 22.6307 24.4695 24.3771 23.3957 25.4539C23.3892 25.4586 23.3892 25.4625 23.3827 25.4664V25.4677C23.3761 25.473 23.3696 25.4769 23.363 25.4822C22.2958 26.5486 20.8881 27.0823 19.4869 27.0823C18.0793 27.0823 16.6715 26.5446 15.5977 25.469C13.7055 23.5731 13.4829 20.6403 14.9234 18.4984C15.1197 18.2092 15.3424 17.9338 15.5977 17.678C16.6715 16.6019 18.0792 16.0641 19.4869 16.0641V8.6875C14.0787 8.6875 9.69189 13.0801 9.69189 18.4984C9.69189 23.9161 14.0787 28.3087 19.4869 28.3087C22.3089 28.3087 24.8493 27.1138 26.6368 25.2034V18.4984H24.0505ZM32.4248 26.559C32.4248 27.2456 32.3396 28.3106 30.9647 28.3106H29.3409C27.9724 28.3106 27.8874 27.2456 27.8874 26.559V20.2527C27.8874 19.5655 27.9724 18.5004 29.3409 18.5004H30.9647C32.3396 18.5004 32.4248 19.5655 32.4248 20.2527V21.6397H30.4605V20.0403C30.4605 19.8724 30.3361 19.7182 30.1527 19.7182C30.0414 19.7182 29.845 19.7877 29.845 20.0403V26.7302C29.845 26.982 30.0414 27.0521 30.1527 27.0521C30.3362 27.0521 30.4605 26.8981 30.4605 26.7302V24.583H30.1659V23.5036H32.4248V26.559ZM35.3711 24.625L35.705 19.7222H35.8164L36.1568 24.625H35.3711ZM33.2039 28.3106H35.1223L35.2991 25.7045H36.2222L36.4057 28.3106H38.3241L37.3026 18.5004H34.2253L33.2039 28.3106ZM39.0508 27.0778L40.9299 19.7222H39.2472V18.5004H42.94V19.7196L41.0674 27.0528H43.0578V28.3106H39.0508V27.0777M45.9387 23.7508V19.7169H46.1875C46.4036 19.7169 46.5542 19.8986 46.5542 20.2075V23.2603C46.5542 23.5685 46.4036 23.7508 46.1875 23.7508H45.9387ZM43.9745 28.3107H45.9387V24.9752H47.0583C48.4268 24.9752 48.5119 23.9102 48.5119 23.2235V20.2527C48.5119 19.5655 48.4268 18.5004 47.0583 18.5004H43.9745V28.3107ZM51.4779 23.4577V19.7176H51.7332C51.9427 19.7176 52.0934 19.8993 52.0934 20.2075V22.9671C52.0934 23.2754 51.9427 23.4577 51.7332 23.4577H51.4779ZM54.3064 28.3106L53.3439 24.4847C54.038 24.2046 54.051 23.5594 54.051 23.2937V20.2527C54.051 19.5655 53.9725 18.5004 52.5975 18.5004H49.5202V28.3106H51.4779V24.6808H51.6219L52.2898 28.3106H54.3064ZM57.9337 26.7302C57.9337 26.8987 57.8093 27.0528 57.626 27.0528C57.5147 27.0528 57.3183 26.9826 57.3183 26.7302V20.0403C57.3183 19.7878 57.5147 19.7182 57.626 19.7182C57.8094 19.7182 57.9337 19.8724 57.9337 20.0403V26.7302ZM55.3606 26.559C55.3606 27.2456 55.4457 28.3106 56.8207 28.3106H58.4378C59.8128 28.3106 59.898 27.2456 59.898 26.559V20.2527C59.898 19.5655 59.8128 18.5004 58.4379 18.5004H56.8207C55.4457 18.5004 55.3606 19.5655 55.3606 20.2527V26.559ZM66.0461 18.5004H68.593V28.3106H66.6353V22.1578H66.5633L65.555 28.3106H63.9901L62.9818 22.1578H62.9098V28.3106H60.9521V18.5004H63.499L64.7693 25.3955L66.0461 18.5004Z" fill="#0079C1"/>
</g>
<defs>
<clipPath id="clip0_261_4056">
<rect width="76.5714" height="28.1217" fill="white" transform="translate(0.856934 0.0693359)"/>
</clipPath>
</defs>
</svg>
