<svg width="168" height="28" viewBox="0 0 168 28" fill="none" xmlns="http://www.w3.org/2000/svg">
<path d="M75.1189 8.12192L78.6196 5.50562H66.8962V21.1796H78.6196V18.5611H70.2449V14.5606H77.4028V11.9443H70.2449V8.12192H75.1189Z" fill="#21A038"/>
<path d="M58.0391 11.6096H53.9778V8.12192H60.4751L63.978 5.50562H50.6292V21.1796H57.6067C61.5159 21.1796 63.7737 19.3825 63.7737 16.2533C63.7737 13.2524 61.7441 11.6096 58.0391 11.6096ZM57.4807 18.5611H53.9778V14.2259H57.4807C59.6124 14.2259 60.6011 14.9452 60.6011 16.4076C60.6011 17.8701 59.5363 18.5611 57.4807 18.5611Z" fill="#21A038"/>
<path d="M88.1115 5.50562H81.7424V21.1796H85.091V16.7401H88.1376C92.1968 16.7401 94.7349 14.5866 94.7349 11.1229C94.7349 7.65907 92.1968 5.50562 88.1115 5.50562ZM88.0355 14.1238H85.0671V8.12192H88.0355C90.1933 8.12192 91.3602 9.19974 91.3602 11.1229C91.3602 13.046 90.1933 14.1238 88.0355 14.1238Z" fill="#21A038"/>
<path d="M44.8924 17.7918C44.0058 18.2808 43.0149 18.5372 42.0001 18.5372C38.9797 18.5372 36.7979 16.3555 36.7979 13.3546C36.7979 10.3536 38.9797 8.17192 42.0001 8.17192C43.091 8.14801 44.1579 8.50656 45.0445 9.1476L47.4566 7.35269L47.3045 7.19841C45.9094 5.94023 44.0297 5.29919 41.898 5.29919C39.5903 5.29919 37.4824 6.09452 35.9613 7.53088C34.4381 9.01939 33.5754 11.0968 33.6253 13.2524C33.5993 15.432 34.4381 17.5354 35.9613 19.0739C37.5585 20.5885 39.6902 21.436 41.8741 21.3838C44.284 21.3838 46.3896 20.5364 47.8108 18.9979L45.6552 17.3811L44.8924 17.7918Z" fill="#21A038"/>
<path d="M135.01 5.53169V21.2035H138.358V14.7909H145.49V21.2035H148.841V5.53169H145.49V11.9703H138.358V5.53169H135.01ZM129.249 21.2035H132.776L126.228 5.53169H122.828L116.154 21.2035H119.529L120.874 18.0482H127.98L129.249 21.2035ZM121.889 15.4319L124.477 9.14759L126.913 15.4319H121.889ZM156.353 14.8691H158.432L163.559 21.1796H167.872L161.021 13.072L167.009 5.50562H163.178L158.204 12.2267H156.353V5.50562H153.002V21.1796H156.353V14.8691ZM105.089 11.6357V8.148H113.844V5.53169H101.739V21.2035H108.718C112.625 21.2035 114.885 19.4086 114.885 16.2794C114.885 13.2785 112.856 11.6357 109.149 11.6357H105.089ZM105.089 18.5872V14.252H108.592C110.722 14.252 111.713 14.9713 111.713 16.4337C111.713 17.8961 110.672 18.6132 108.592 18.6132H105.089V18.5872Z" fill="#21A038"/>
<path d="M23.1449 5.40356C23.7534 6.19889 24.2619 7.07027 24.6921 7.9938L12.9687 16.7402L8.04468 13.611V9.86693L12.9426 12.97L23.1449 5.40356Z" fill="#21A038"/>
<path d="M3.04451 13.3546C3.04451 13.1743 3.04451 13.0221 3.07058 12.8418L0.102248 12.6875C0.102248 12.8939 0.0761719 13.1243 0.0761719 13.3285C0.0761719 16.9205 1.5234 20.1779 3.85721 22.5378L5.96286 20.4082C4.16144 18.6133 3.04451 16.1252 3.04451 13.3546Z" fill="url(#paint0_linear_259_2984)"/>
<path d="M12.9425 3.35005C13.1207 3.35005 13.2728 3.35005 13.451 3.37613L13.6031 0.375197C13.3989 0.375197 13.1707 0.349121 12.9686 0.349121C9.41575 0.349121 6.19317 1.81156 3.85718 4.17145L5.96283 6.301C7.74035 4.48002 10.2263 3.35005 12.9425 3.35005Z" fill="url(#paint1_linear_259_2984)"/>
<path d="M12.9426 23.3592C12.7644 23.3592 12.6123 23.3592 12.4341 23.3331L12.282 26.334C12.4862 26.334 12.7144 26.3601 12.9165 26.3601C16.4694 26.3601 19.6941 24.8976 22.0279 22.5378L19.9223 20.4082C18.1448 22.2553 15.6827 23.3592 12.9426 23.3592Z" fill="url(#paint2_linear_259_2984)"/>
<path d="M18.5251 5.09494L21.0371 3.2218C18.8293 1.42689 16.0131 0.322998 12.9426 0.322998V3.32393C15.0244 3.35001 16.9518 3.99104 18.5251 5.09494Z" fill="url(#paint3_linear_259_2984)"/>
<path d="M25.8351 13.3546C25.8351 12.5592 25.7591 11.79 25.6308 11.0208L22.8646 13.0982C22.8646 13.1742 22.8646 13.2785 22.8646 13.3546C22.8646 16.3055 21.5956 18.9479 19.592 20.7689L21.5956 23.0006C24.1858 20.6407 25.8351 17.1769 25.8351 13.3546Z" fill="#21A038"/>
<path d="M12.9426 23.3591C10.0242 23.3591 7.41009 22.077 5.60866 20.0496L3.40088 22.077C5.76077 24.7194 9.16154 26.36 12.9426 26.36V23.3591Z" fill="url(#paint4_linear_259_2984)"/>
<path d="M6.31924 5.94018L4.31355 3.7085C1.69941 6.09446 0.0761719 9.53217 0.0761719 13.3545H3.04451C3.04451 10.4296 4.31355 7.76334 6.31924 5.94018Z" fill="url(#paint5_linear_259_2984)"/>
<defs>
<linearGradient id="paint0_linear_259_2984" x1="3.54068" y1="22.1729" x2="0.492074" y2="13.3208" gradientUnits="userSpaceOnUse">
<stop offset="0.1444" stop-color="#F2E913"/>
<stop offset="0.3037" stop-color="#E7E518"/>
<stop offset="0.5823" stop-color="#CADB26"/>
<stop offset="0.891" stop-color="#A3CD39"/>
</linearGradient>
<linearGradient id="paint1_linear_259_2984" x1="4.70385" y1="3.83268" x2="12.4066" y2="0.883992" gradientUnits="userSpaceOnUse">
<stop offset="0.0592" stop-color="#0FA8E0"/>
<stop offset="0.5385" stop-color="#0099F9"/>
<stop offset="0.9234" stop-color="#0291EB"/>
</linearGradient>
<linearGradient id="paint2_linear_259_2984" x1="12.1086" y1="23.8077" x2="21.2869" y2="21.724" gradientUnits="userSpaceOnUse">
<stop offset="0.1226" stop-color="#A3CD39"/>
<stop offset="0.2846" stop-color="#86C339"/>
<stop offset="0.8693" stop-color="#21A038"/>
</linearGradient>
<linearGradient id="paint3_linear_259_2984" x1="12.3327" y1="2.23512" x2="19.9657" y2="4.60093" gradientUnits="userSpaceOnUse">
<stop offset="0.0566" stop-color="#0291EB"/>
<stop offset="0.79" stop-color="#0C8ACB"/>
</linearGradient>
<linearGradient id="paint4_linear_259_2984" x1="4.15568" y1="22.5517" x2="12.3562" y2="25.6297" gradientUnits="userSpaceOnUse">
<stop offset="0.1324" stop-color="#F2E913"/>
<stop offset="0.2977" stop-color="#EBE716"/>
<stop offset="0.5306" stop-color="#D9E01F"/>
<stop offset="0.8023" stop-color="#BBD62D"/>
<stop offset="0.9829" stop-color="#A3CD39"/>
</linearGradient>
<linearGradient id="paint5_linear_259_2984" x1="2.3513" y1="13.7171" x2="5.64668" y2="5.10577" gradientUnits="userSpaceOnUse">
<stop offset="0.0698" stop-color="#A3CD39"/>
<stop offset="0.2599" stop-color="#81C55F"/>
<stop offset="0.9216" stop-color="#0FA8E0"/>
</linearGradient>
</defs>
</svg>
