<svg width="97" height="17" viewBox="0 0 97 17" fill="none" xmlns="http://www.w3.org/2000/svg">
<g clip-path="url(#clip0_261_4032)">
<path d="M43.0683 5.33991L45.0687 3.83838H38.3696V12.8339H45.0687V11.3311H40.2831V9.03513H44.3734V7.5336H40.2831V5.33991H43.0683Z" fill="#21A038"/>
<path d="M33.308 7.34154H30.9872V5.33991H34.7L36.7016 3.83838H29.0737V12.8339H33.0609C35.2948 12.8339 36.5849 11.8025 36.5849 10.0066C36.5849 8.28436 35.4251 7.34154 33.308 7.34154ZM32.9889 11.3311H30.9872V8.84307H32.9889C34.207 8.84307 34.772 9.25587 34.772 10.0952C34.772 10.9345 34.1635 11.3311 32.9889 11.3311Z" fill="#21A038"/>
<path d="M50.4925 3.83838H46.853V12.8339H48.7665V10.286H50.5074C52.827 10.286 54.2773 9.0501 54.2773 7.06219C54.2773 5.07428 52.827 3.83838 50.4925 3.83838ZM50.4491 8.78446H48.7529V5.33991H50.4491C51.6821 5.33991 52.3489 5.95848 52.3489 7.06219C52.3489 8.16589 51.6821 8.78446 50.4491 8.78446Z" fill="#21A038"/>
<path d="M25.7959 10.8894C25.2893 11.17 24.7231 11.3172 24.1432 11.3172C22.4172 11.3172 21.1705 10.0651 21.1705 8.3428C21.1705 6.62053 22.4172 5.36842 24.1432 5.36842C24.7666 5.3547 25.3762 5.56048 25.8829 5.92838L27.2612 4.89826L27.1743 4.80971C26.3771 4.08763 25.303 3.71973 24.0849 3.71973C22.7661 3.71973 21.5617 4.17617 20.6925 5.00052C19.822 5.8548 19.3291 7.04704 19.3576 8.28419C19.3427 9.53505 19.822 10.7423 20.6925 11.6252C21.6051 12.4945 22.8233 12.9808 24.0712 12.9509C25.4483 12.9509 26.6515 12.4645 27.4636 11.5816L26.2318 10.6537L25.7959 10.8894Z" fill="#21A038"/>
<path d="M77.2913 3.85334V12.8476H79.2048V9.16733H83.2801V12.8476H85.1949V3.85334H83.2801V7.54856H79.2048V3.85334H77.2913ZM73.9995 12.8476H76.0148L72.2735 3.85334H70.3302L66.5169 12.8476H68.4453L69.2139 11.0368H73.2743L73.9995 12.8476ZM69.7938 9.53523L71.2727 5.92855L72.6646 9.53523H69.7938ZM89.4875 9.21222H90.6758L93.605 12.8339H96.0699L92.1547 8.18085L95.5769 3.83838H93.3877L90.5454 7.69572H89.4875V3.83838H87.5728V12.8339H89.4875V9.21222ZM60.194 7.35651V5.35488H65.1969V3.85334H58.2793V12.8476H62.2677C64.5003 12.8476 65.7917 11.8175 65.7917 10.0216C65.7917 8.29933 64.6319 7.35651 62.5136 7.35651H60.194ZM60.194 11.346V8.85804H62.1957C63.4126 8.85804 63.9788 9.27084 63.9788 10.1101C63.9788 10.9495 63.384 11.361 62.1957 11.361H60.194V11.346Z" fill="#21A038"/>
<path d="M13.3685 3.7793C13.7162 4.23574 14.0067 4.73584 14.2526 5.26586L7.55349 10.2855L4.73975 8.48967V6.34088L7.53859 8.12177L13.3685 3.7793Z" fill="#21A038"/>
<path d="M1.88272 8.34283C1.88272 8.23932 1.88272 8.15202 1.89762 8.04851L0.201424 7.95996C0.201424 8.07844 0.186523 8.21063 0.186523 8.32786C0.186523 10.3894 1.01351 12.2588 2.34712 13.6132L3.55035 12.391C2.52096 11.3609 1.88272 9.93291 1.88272 8.34283Z" fill="url(#paint0_linear_261_4032)"/>
<path d="M7.53881 2.60118C7.64063 2.60118 7.72755 2.60118 7.82937 2.61615L7.91629 0.893871C7.79957 0.893871 7.66919 0.878906 7.55371 0.878906C5.52349 0.878906 3.68202 1.71822 2.34717 3.07259L3.5504 4.29477C4.56612 3.24968 5.98665 2.60118 7.53881 2.60118Z" fill="url(#paint1_linear_261_4032)"/>
<path d="M7.53862 14.0847C7.43679 14.0847 7.34987 14.0847 7.24805 14.0697L7.16113 15.792C7.27785 15.792 7.40824 15.807 7.52372 15.807C9.55393 15.807 11.3966 14.9677 12.7303 13.6133L11.527 12.3911C10.5113 13.4512 9.10443 14.0847 7.53862 14.0847Z" fill="url(#paint2_linear_261_4032)"/>
<path d="M10.7286 3.60245L12.164 2.52743C10.9024 1.49731 9.29313 0.86377 7.53857 0.86377V2.58604C8.72814 2.60101 9.82955 2.96891 10.7286 3.60245Z" fill="url(#paint3_linear_261_4032)"/>
<path d="M14.9058 8.34283C14.9058 7.88638 14.8624 7.4449 14.7891 7.00342L13.2084 8.19567C13.2084 8.23931 13.2084 8.29918 13.2084 8.34283C13.2084 10.0364 12.4832 11.5529 11.3384 12.598L12.4832 13.8788C13.9634 12.5244 14.9058 10.5365 14.9058 8.34283Z" fill="#21A038"/>
<path d="M7.53883 14.0844C5.87119 14.0844 4.3774 13.3486 3.34802 12.1851L2.08643 13.3486C3.43494 14.8651 5.37823 15.8067 7.53883 15.8067V14.0844Z" fill="url(#paint4_linear_261_4032)"/>
<path d="M3.75399 4.08743L2.60788 2.80664C1.11409 4.17598 0.186523 6.14892 0.186523 8.34261H1.88272C1.88272 6.66398 2.60788 5.13377 3.75399 4.08743Z" fill="url(#paint5_linear_261_4032)"/>
</g>
<defs>
<linearGradient id="paint0_linear_261_4032" x1="2.16624" y1="13.4038" x2="0.410623" y2="8.32808" gradientUnits="userSpaceOnUse">
<stop offset="0.1444" stop-color="#F2E913"/>
<stop offset="0.3037" stop-color="#E7E518"/>
<stop offset="0.5823" stop-color="#CADB26"/>
<stop offset="0.891" stop-color="#A3CD39"/>
</linearGradient>
<linearGradient id="paint1_linear_261_4032" x1="2.83098" y1="2.87817" x2="7.23742" y2="1.19864" gradientUnits="userSpaceOnUse">
<stop offset="0.0592" stop-color="#0FA8E0"/>
<stop offset="0.5385" stop-color="#0099F9"/>
<stop offset="0.9234" stop-color="#0291EB"/>
</linearGradient>
<linearGradient id="paint2_linear_261_4032" x1="7.06203" y1="14.3421" x2="12.309" y2="13.1561" gradientUnits="userSpaceOnUse">
<stop offset="0.1226" stop-color="#A3CD39"/>
<stop offset="0.2846" stop-color="#86C339"/>
<stop offset="0.8693" stop-color="#21A038"/>
</linearGradient>
<linearGradient id="paint3_linear_261_4032" x1="7.19004" y1="1.96116" x2="11.555" y2="3.30822" gradientUnits="userSpaceOnUse">
<stop offset="0.0566" stop-color="#0291EB"/>
<stop offset="0.79" stop-color="#0C8ACB"/>
</linearGradient>
<linearGradient id="paint4_linear_261_4032" x1="2.51774" y1="13.6211" x2="7.20874" y2="15.3742" gradientUnits="userSpaceOnUse">
<stop offset="0.1324" stop-color="#F2E913"/>
<stop offset="0.2977" stop-color="#EBE716"/>
<stop offset="0.5306" stop-color="#D9E01F"/>
<stop offset="0.8023" stop-color="#BBD62D"/>
<stop offset="0.9829" stop-color="#A3CD39"/>
</linearGradient>
<linearGradient id="paint5_linear_261_4032" x1="1.4866" y1="8.55072" x2="3.38397" y2="3.61405" gradientUnits="userSpaceOnUse">
<stop offset="0.0698" stop-color="#A3CD39"/>
<stop offset="0.2599" stop-color="#81C55F"/>
<stop offset="0.9216" stop-color="#0FA8E0"/>
</linearGradient>
<clipPath id="clip0_261_4032">
<rect width="96" height="16.0696" fill="white" transform="translate(0.143066 0.678223)"/>
</clipPath>
</defs>
</svg>
