<svg xmlns="http://www.w3.org/2000/svg" width="46" height="46" fill="none" viewBox="0 0 46 46"><ellipse cx="20.5" cy="38.5" fill="#369" rx="17.5" ry="7.5"/><g filter="url(#a)"><path fill="rgba(154, 158, 174, 0.3)" d="M20.5 0C9.196 0 0 9.196 0 20.5S9.196 41 20.5 41 41 31.804 41 20.5 31.804 0 20.5 0m9.75 31.104a1.705 1.705 0 0 1-2.416 0l-8.542-8.542a1.7 1.7 0 0 1-.5-1.208V10.25a1.709 1.709 0 0 1 3.416 0v10.397l8.042 8.041a1.71 1.71 0 0 1 0 2.416"/></g><defs><filter id="a" width="53.2" height="53.2" x="-6.1" y="-6.1" color-interpolation-filters="sRGB" filterUnits="userSpaceOnUse"><feFlood flood-opacity="0" result="BackgroundImageFix"/><feGaussianBlur in="BackgroundImageFix" stdDeviation="3.05"/><feComposite in2="SourceAlpha" operator="in" result="effect1_backgroundBlur_27_518"/><feBlend in="SourceGraphic" in2="effect1_backgroundBlur_27_518" result="shape"/></filter></defs></svg>