<svg xmlns="http://www.w3.org/2000/svg" width="54" height="54" fill="none" viewBox="0 0 54 54"><g clip-path="url(#a)" filter="url(#b)"><path fill="#F7BF18" d="M44.819 7.685a2.17 2.17 0 0 0-1.537-.637h-2.174v39.133h2.174c1.2 0 2.174-.974 2.174-2.174V9.222a2.18 2.18 0 0 0-.637-1.537m-8.836-4.477a2.17 2.17 0 0 0-1.775-.475l-24.64 4.35a2.174 2.174 0 0 0-1.795 2.142v34.782c0 1.055.757 1.957 1.796 2.14l24.639 4.349a2.173 2.173 0 0 0 2.552-2.141V4.875a2.17 2.17 0 0 0-.777-1.667m-8.556 26.393a2.2 2.2 0 0 1-1.537.637 2.2 2.2 0 0 1-1.538-.637 2.2 2.2 0 0 1-.637-1.537c0-.573.232-1.133.637-1.538a2.2 2.2 0 0 1 1.538-.636 2.2 2.2 0 0 1 1.537.636c.405.406.637.965.637 1.538 0 .572-.233 1.132-.637 1.537"/></g><defs><clipPath id="a"><path fill="#fff" d="M2.7 2.7h47.829v47.829H2.699z"/></clipPath><filter id="b" width="49.8831" height="60.0285" x="1.67264" y="-3.39996" color-interpolation-filters="sRGB" filterUnits="userSpaceOnUse"><feFlood flood-opacity="0" result="BackgroundImageFix"/><feGaussianBlur in="BackgroundImageFix" stdDeviation="3.05"/><feComposite in2="SourceAlpha" operator="in" result="effect1_backgroundBlur_2001_1745"/><feBlend in="SourceGraphic" in2="effect1_backgroundBlur_2001_1745" result="shape"/></filter></defs></svg>