<svg xmlns="http://www.w3.org/2000/svg" width="54" height="54" fill="none" viewBox="0 0 54 54"><g fill="#F7BF18" clip-path="url(#a)" filter="url(#b)"><path d="M37.191 25.298c1.42-.32 2.728-1.556 2.94-4.297.176-2.244-.37-3.4-1.175-3.988C41.193 7.4 35.022 5.519 35.022 5.519s-4.612-8.247-13.61-2.46c-1.144.736-2.924 2.146-3.984 3.602-1.702 1.909-2.86 5.012-3.042 10.037-1.1.442-1.962 1.56-1.748 4.302.225 2.865 1.643 4.085 3.136 4.335 2.015 5.172 5.993 9.434 10.701 9.434 4.719 0 8.705-4.282 10.716-9.471m-10.716 7.06c-5.444 0-9.827-7.791-9.827-14.243q0-1.324.078-2.464c7.963.367 12.672-2.998 15.235-5.917 2.43 2.554 3.694 5.779 4.339 8.173l.001.207c.001 6.453-4.381 14.244-9.826 14.244m-2.049 6.207c-2.018-1.562-3.891-3.383-5.82-5.065l-3.426.844c-5.802 1.439-9.89 6.603-9.89 12.527v4.676c0 1.53 1.292 2.752 2.838 2.752H22.63c.317-1.904 1.795-15.344 1.795-15.734m13.138-4.22-3.38-.845-5.624 4.913q-.09.078-.187.152c.212.208.368.48.441.797l.63 2.75c.054.238.057.485.008.724-.05.24-.149.464-.292.657a1.56 1.56 0 0 1-.534.456 1.5 1.5 0 0 1-.67.167L30.17 54.3h14.503c1.547 0 2.723-1.22 2.723-2.752v-4.675c.002-5.926-4.029-11.09-9.831-12.529"/><path d="m22.632 54.299 7.537.001-2.212-10.184a1.5 1.5 0 0 0 .67-.167c.207-.107.39-.264.533-.456a1.7 1.7 0 0 0 .283-1.381l-.629-2.75a1.63 1.63 0 0 0-.441-.797c-1.202 1.04-3.132.433-3.947 0 0 .39-1.478 13.83-1.794 15.734"/></g><defs><clipPath id="a"><rect width="50" height="52" x="2" y="1" fill="#fff" rx="25"/></clipPath><filter id="b" width="54.3053" height="65.5" x="-0.810525" y="-5.1" color-interpolation-filters="sRGB" filterUnits="userSpaceOnUse"><feFlood flood-opacity="0" result="BackgroundImageFix"/><feGaussianBlur in="BackgroundImageFix" stdDeviation="3.05"/><feComposite in2="SourceAlpha" operator="in" result="effect1_backgroundBlur_2001_1738"/><feBlend in="SourceGraphic" in2="effect1_backgroundBlur_2001_1738" result="shape"/></filter></defs></svg>