<svg xmlns="http://www.w3.org/2000/svg" width="168" height="28" fill="none" viewBox="0 0 168 28"><path fill="#21A038" d="m75.119 8.122 3.5-2.616H66.897V21.18H78.62v-2.62h-8.375v-4h7.158v-2.617h-7.158V8.122zM58.04 11.61h-4.062V8.122h6.497l3.503-2.616H50.629V21.18h6.978c3.909 0 6.167-1.797 6.167-4.927 0-3-2.03-4.643-5.735-4.643m-.56 6.951h-3.502v-4.335h3.503c2.131 0 3.12.72 3.12 2.182s-1.065 2.153-3.12 2.153M88.112 5.506h-6.37V21.18h3.349v-4.44h3.047c4.059 0 6.597-2.153 6.597-5.617s-2.538-5.617-6.623-5.617m-.076 8.618h-2.969V8.122h2.969c2.157 0 3.324 1.078 3.324 3 0 1.924-1.167 3.002-3.325 3.002m-43.143 3.668a6 6 0 0 1-2.892.745c-3.02 0-5.202-2.181-5.202-5.182S38.98 8.172 42 8.172c1.091-.024 2.158.335 3.044.976l2.413-1.795-.153-.155C45.91 5.94 44.03 5.3 41.899 5.3c-2.308 0-4.416.796-5.937 2.232a7.77 7.77 0 0 0-2.336 5.721 8.14 8.14 0 0 0 2.336 5.822c1.598 1.514 3.73 2.362 5.913 2.31 2.41 0 4.516-.848 5.937-2.386l-2.156-1.617zm90.118-12.26v15.671h3.348v-6.412h7.132v6.412h3.351V5.532h-3.351v6.438h-7.132V5.532zm-5.761 15.671h3.527l-6.548-15.671h-3.4l-6.674 15.671h3.375l1.345-3.155h7.106zm-7.36-5.771 2.588-6.284 2.436 6.284zm34.464-.563h2.079l5.127 6.31h4.313l-6.851-8.107 5.988-7.566h-3.831l-4.974 6.72h-1.851v-6.72h-3.351V21.18h3.351zm-51.264-3.233V8.148h8.755V5.532h-12.105v15.671h6.979c3.907 0 6.167-1.794 6.167-4.924 0-3-2.029-4.643-5.736-4.643zm0 6.951v-4.335h3.503c2.13 0 3.121.72 3.121 2.182s-1.041 2.18-3.121 2.18h-3.503zM23.145 5.404a14 14 0 0 1 1.547 2.59L12.97 16.74l-4.924-3.129V9.867l4.898 3.103z"/><path fill="url(#a)" d="M3.045 13.355c0-.18 0-.333.026-.513l-2.969-.155c0 .207-.026.437-.026.642 0 3.592 1.447 6.849 3.781 9.209l2.106-2.13a9.9 9.9 0 0 1-2.918-7.053"/><path fill="url(#b)" d="M12.943 3.35c.178 0 .33 0 .508.026l.152-3c-.204 0-.432-.027-.634-.027-3.553 0-6.776 1.463-9.112 3.822l2.106 2.13a9.75 9.75 0 0 1 6.98-2.951"/><path fill="url(#c)" d="M12.943 23.36c-.179 0-.33 0-.509-.027l-.152 3.001c.204 0 .432.026.634.026 3.553 0 6.778-1.462 9.112-3.822l-2.106-2.13c-1.777 1.847-4.24 2.951-6.98 2.951"/><path fill="url(#d)" d="m18.525 5.095 2.512-1.873C18.83 1.427 16.013.323 12.943.323v3c2.081.027 4.009.668 5.582 1.772"/><path fill="#21A038" d="M25.835 13.355c0-.796-.076-1.565-.204-2.334l-2.766 2.077v.257a10 10 0 0 1-3.273 7.414L21.596 23a13.05 13.05 0 0 0 4.24-9.646"/><path fill="url(#e)" d="M12.943 23.36c-2.919 0-5.533-1.283-7.334-3.31L3.4 22.077c2.36 2.642 5.76 4.283 9.542 4.283z"/><path fill="url(#f)" d="M6.32 5.94 4.313 3.708a13 13 0 0 0-4.238 9.647h2.969A10.03 10.03 0 0 1 6.319 5.94"/><defs><linearGradient id="a" x1="3.54068" x2="0.492074" y1="22.1729" y2="13.3208" gradientUnits="userSpaceOnUse"><stop offset="0.1444" stop-color="#F2E913"/><stop offset="0.3037" stop-color="#E7E518"/><stop offset="0.5823" stop-color="#CADB26"/><stop offset="0.891" stop-color="#A3CD39"/></linearGradient><linearGradient id="b" x1="4.70385" x2="12.4066" y1="3.83268" y2="0.883992" gradientUnits="userSpaceOnUse"><stop offset="0.0592" stop-color="#0FA8E0"/><stop offset="0.5385" stop-color="#0099F9"/><stop offset="0.9234" stop-color="#0291EB"/></linearGradient><linearGradient id="c" x1="12.1086" x2="21.2869" y1="23.8077" y2="21.724" gradientUnits="userSpaceOnUse"><stop offset="0.1226" stop-color="#A3CD39"/><stop offset="0.2846" stop-color="#86C339"/><stop offset="0.8693" stop-color="#21A038"/></linearGradient><linearGradient id="d" x1="12.3327" x2="19.9657" y1="2.23512" y2="4.60093" gradientUnits="userSpaceOnUse"><stop offset="0.0566" stop-color="#0291EB"/><stop offset="0.79" stop-color="#0C8ACB"/></linearGradient><linearGradient id="e" x1="4.15568" x2="12.3562" y1="22.5517" y2="25.6297" gradientUnits="userSpaceOnUse"><stop offset="0.1324" stop-color="#F2E913"/><stop offset="0.2977" stop-color="#EBE716"/><stop offset="0.5306" stop-color="#D9E01F"/><stop offset="0.8023" stop-color="#BBD62D"/><stop offset="0.9829" stop-color="#A3CD39"/></linearGradient><linearGradient id="f" x1="2.3513" x2="5.64668" y1="13.7171" y2="5.10577" gradientUnits="userSpaceOnUse"><stop offset="0.0698" stop-color="#A3CD39"/><stop offset="0.2599" stop-color="#81C55F"/><stop offset="0.9216" stop-color="#0FA8E0"/></linearGradient></defs></svg>