<svg xmlns="http://www.w3.org/2000/svg" width="78" height="29" fill="none" viewBox="0 0 78 29"><g fill="#0079C1" clip-path="url(#a)"><path d="M25.347 5.073C24.744 2.44 23.238.3 23.035-.05c-.327.491-1.525 2.381-2.14 4.479a16.3 16.3 0 0 0-.53 6.454c.228 2.043 1.086 4.14 1.086 4.14.458 1.103 1.146 2.282 1.591 2.862.655-.852 2.16-3.397 2.632-6.718.262-1.845.269-3.462-.327-6.094M23.035 17.23c-.294-.557-.752-1.618-.798-3.256-.013-1.583.622-2.938.805-3.222.164.284.714 1.464.78 3.08a7.06 7.06 0 0 1-.787 3.398m2.135-7.69c-.02 1.004-.137 2.064-.295 2.698.06-1.092-.072-2.632-.327-3.834-.249-1.202-.956-3.211-1.525-4.14-.524.885-1.166 2.622-1.506 4.128-.334 1.509-.347 3.332-.347 3.879-.092-.461-.315-2.105-.25-3.758.053-1.363.367-2.763.544-3.408.668-2.151 1.421-3.527 1.559-3.745.144.218 1.093 1.91 1.584 3.691s.59 3.484.563 4.49"/><path d="M24.05 18.498h-4.563v3.068q.012-.007.013-.013a2.753 2.753 0 0 1 3.896 0 2.764 2.764 0 0 1 0 3.9c-.007.006-.007.01-.013.013v.002l-.02.014a5.47 5.47 0 0 1-3.876 1.6 5.48 5.48 0 0 1-3.89-1.613 5.52 5.52 0 0 1 0-7.791 5.48 5.48 0 0 1 3.89-1.614V8.688c-5.408 0-9.795 4.392-9.795 9.81s4.387 9.81 9.795 9.81a9.76 9.76 0 0 0 7.15-3.105v-6.705zm8.375 8.061c0 .687-.085 1.752-1.46 1.752H29.34c-1.369 0-1.454-1.065-1.454-1.752v-6.306c0-.687.085-1.753 1.454-1.753h1.624c1.375 0 1.46 1.066 1.46 1.753v1.387H30.46v-1.6c0-.168-.125-.322-.308-.322-.112 0-.308.07-.308.322v6.69c0 .252.196.322.308.322.183 0 .308-.154.308-.322v-2.147h-.295v-1.08h2.259zm2.946-1.934.334-4.903h.111l.34 4.903zm-2.167 3.686h1.918l.177-2.607h.923l.184 2.607h1.918l-1.021-9.81h-3.078zm5.847-1.233 1.879-7.356h-1.683V18.5h3.693v1.22l-1.873 7.333h1.99v1.258h-4.006zm6.888-3.327v-4.034h.248c.217 0 .367.182.367.49v3.053c0 .308-.15.49-.367.49zm-1.965 4.56h1.965v-3.336h1.12c1.368 0 1.453-1.065 1.453-1.751v-2.971c0-.687-.085-1.753-1.454-1.753h-3.084zm7.504-4.853v-3.74h.255c.21 0 .36.181.36.49v2.76c0 .307-.15.49-.36.49zm2.828 4.853-.962-3.826c.694-.28.707-.926.707-1.191v-3.041c0-.687-.079-1.753-1.454-1.753H49.52v9.81h1.958v-3.63h.144l.668 3.63zm3.628-1.58c0 .168-.125.322-.308.322-.111 0-.308-.07-.308-.323v-6.69c0-.252.197-.322.308-.322.183 0 .308.154.308.322zm-2.573-.172c0 .687.085 1.752 1.46 1.752h1.617c1.375 0 1.46-1.065 1.46-1.752v-6.306c0-.687-.085-1.753-1.46-1.753H56.82c-1.375 0-1.46 1.066-1.46 1.753zM66.046 18.5h2.547v9.81h-1.958v-6.152h-.072l-1.008 6.153H63.99l-1.008-6.153h-.072v6.153h-1.958V18.5H63.5l1.27 6.894z"/></g><defs><clipPath id="a"><path fill="#fff" d="M.857.07h76.571v28.12H.857z"/></clipPath></defs></svg>