<svg xmlns="http://www.w3.org/2000/svg" width="97" height="17" fill="none" viewBox="0 0 97 17"><g clip-path="url(#a)"><path fill="#21A038" d="m43.068 5.34 2-1.502H38.37v8.996h6.699V11.33h-4.786V9.035h4.09V7.534h-4.09V5.34zm-9.76 2.002h-2.32V5.34H34.7l2.002-1.502h-7.628v8.996h3.987c2.234 0 3.524-1.031 3.524-2.827 0-1.723-1.16-2.665-3.277-2.665m-.32 3.99h-2v-2.49h2c1.219 0 1.784.413 1.784 1.252 0 .84-.608 1.236-1.783 1.236m17.504-7.492h-3.64v8.996h1.913v-2.548h1.741c2.32 0 3.77-1.236 3.77-3.224s-1.45-3.224-3.785-3.224m-.044 4.946h-1.696V5.34h1.696c1.233 0 1.9.618 1.9 1.722s-.667 1.722-1.9 1.722M25.796 10.89a3.4 3.4 0 0 1-1.653.427c-1.726 0-2.972-1.252-2.972-2.974s1.246-2.975 2.972-2.975a2.87 2.87 0 0 1 1.74.56l1.378-1.03-.087-.088c-.797-.722-1.871-1.09-3.09-1.09-1.318 0-2.522.456-3.392 1.28a4.47 4.47 0 0 0-1.334 3.284 4.68 4.68 0 0 0 1.334 3.341 4.76 4.76 0 0 0 3.38 1.326c1.376 0 2.58-.487 3.392-1.37l-1.232-.927zm51.495-7.037v8.995h1.914v-3.68h4.075v3.68h1.915V3.853H83.28V7.55h-4.075V3.853zM74 12.848h2.015l-3.742-8.995H70.33l-3.813 8.995h1.928l.769-1.811h4.06zm-4.206-3.313 1.479-3.606 1.392 3.606zm19.694-.323h1.188l2.929 3.622h2.465L92.155 8.18l3.422-4.343h-2.19l-2.842 3.858h-1.058V3.838h-1.914v8.996h1.915zM60.194 7.357V5.355h5.003V3.853h-6.918v8.995h3.989c2.232 0 3.524-1.03 3.524-2.826 0-1.723-1.16-2.665-3.278-2.665zm0 3.989V8.858h2.002c1.217 0 1.783.413 1.783 1.252 0 .84-.595 1.251-1.783 1.251h-2.002zM13.369 3.78c.347.456.638.956.884 1.486l-6.7 5.02L4.74 8.49V6.34l2.799 1.782z"/><path fill="url(#b)" d="M1.883 8.343c0-.104 0-.191.015-.294L.2 7.96c0 .118-.014.25-.014.368 0 2.061.827 3.93 2.16 5.285l1.203-1.222a5.7 5.7 0 0 1-1.667-4.048"/><path fill="url(#c)" d="M7.539 2.601c.102 0 .189 0 .29.015L7.916.894C7.8.894 7.67.879 7.554.879c-2.03 0-3.872.84-5.207 2.194L3.55 4.295A5.56 5.56 0 0 1 7.54 2.6"/><path fill="url(#d)" d="M7.539 14.085c-.102 0-.19 0-.29-.015l-.088 1.722c.117 0 .247.015.363.015a7.3 7.3 0 0 0 5.206-2.194l-1.203-1.222a5.48 5.48 0 0 1-3.988 1.694"/><path fill="url(#e)" d="m10.729 3.602 1.435-1.075A7.3 7.3 0 0 0 7.539.864v1.722a5.64 5.64 0 0 1 3.19 1.016"/><path fill="#21A038" d="M14.906 8.343a8 8 0 0 0-.117-1.34l-1.58 1.193v.147c0 1.693-.726 3.21-1.87 4.255l1.144 1.28a7.5 7.5 0 0 0 2.423-5.535"/><path fill="url(#f)" d="M7.539 14.084a5.58 5.58 0 0 1-4.191-1.899L2.086 13.35a7.27 7.27 0 0 0 5.453 2.458z"/><path fill="url(#g)" d="m3.754 4.087-1.146-1.28A7.48 7.48 0 0 0 .187 8.343h1.696c0-1.679.725-3.21 1.871-4.256"/></g><defs><linearGradient id="b" x1="2.16624" x2="0.410623" y1="13.4038" y2="8.32808" gradientUnits="userSpaceOnUse"><stop offset="0.1444" stop-color="#F2E913"/><stop offset="0.3037" stop-color="#E7E518"/><stop offset="0.5823" stop-color="#CADB26"/><stop offset="0.891" stop-color="#A3CD39"/></linearGradient><linearGradient id="c" x1="2.83098" x2="7.23742" y1="2.87817" y2="1.19864" gradientUnits="userSpaceOnUse"><stop offset="0.0592" stop-color="#0FA8E0"/><stop offset="0.5385" stop-color="#0099F9"/><stop offset="0.9234" stop-color="#0291EB"/></linearGradient><linearGradient id="d" x1="7.06203" x2="12.309" y1="14.3421" y2="13.1561" gradientUnits="userSpaceOnUse"><stop offset="0.1226" stop-color="#A3CD39"/><stop offset="0.2846" stop-color="#86C339"/><stop offset="0.8693" stop-color="#21A038"/></linearGradient><linearGradient id="e" x1="7.19004" x2="11.555" y1="1.96116" y2="3.30822" gradientUnits="userSpaceOnUse"><stop offset="0.0566" stop-color="#0291EB"/><stop offset="0.79" stop-color="#0C8ACB"/></linearGradient><linearGradient id="f" x1="2.51774" x2="7.20874" y1="13.6211" y2="15.3742" gradientUnits="userSpaceOnUse"><stop offset="0.1324" stop-color="#F2E913"/><stop offset="0.2977" stop-color="#EBE716"/><stop offset="0.5306" stop-color="#D9E01F"/><stop offset="0.8023" stop-color="#BBD62D"/><stop offset="0.9829" stop-color="#A3CD39"/></linearGradient><linearGradient id="g" x1="1.4866" x2="3.38397" y1="8.55072" y2="3.61405" gradientUnits="userSpaceOnUse"><stop offset="0.0698" stop-color="#A3CD39"/><stop offset="0.2599" stop-color="#81C55F"/><stop offset="0.9216" stop-color="#0FA8E0"/></linearGradient><clipPath id="a"><path fill="#fff" d="M.143.678h96v16.07h-96z"/></clipPath></defs></svg>