<svg width="97" height="35" viewBox="0 0 97 35" fill="none" xmlns="http://www.w3.org/2000/svg">
<g clip-path="url(#clip0_259_3000)">
<mask id="mask0_259_3000" style="mask-type:luminance" maskUnits="userSpaceOnUse" x="0" y="0" width="97" height="35">
<path d="M96.7342 0.0106201H0V34.5676H96.7342V0.0106201Z" fill="white"/>
</mask>
<g mask="url(#mask0_259_3000)">
<path fill-rule="evenodd" clip-rule="evenodd" d="M6.58519 0.0106201L4.93788 4.53144H27.7661L29.4135 0.0106201H6.58519ZM4.11369 6.7908L2.46636 11.3106H25.2946L26.9419 6.7908H4.11369ZM1.64733 13.571L0 18.0908H22.8283L24.4746 13.571H1.64733Z" fill="#00AAFF"/>
<path fill-rule="evenodd" clip-rule="evenodd" d="M48.5316 19.8135V19.9089C49.5746 20.2925 50.5712 20.9634 51.0934 21.3942C52.7066 22.7359 53.4188 24.5084 53.4188 26.8081C53.4188 30.5942 51.4256 33.3248 48.1515 34.1875C47.155 34.4747 46.1119 34.5711 44.1654 34.5711H34.2498V6.87769H43.0277C44.8309 6.87769 46.064 6.97307 47.155 7.26025C50.3347 8.12293 52.4222 10.3273 52.4222 13.8241C52.4222 15.693 51.7578 17.2748 50.6669 18.3282C50.1925 18.8072 49.5281 19.3827 48.5316 19.8135ZM39.7536 22.7359V30.0188H43.5498C44.6874 30.0188 45.7319 29.9234 46.4919 29.2043C47.2506 28.4853 47.5828 27.5754 47.5828 26.3773C47.5828 25.4675 47.345 24.6048 46.8706 23.9822C46.064 22.9759 45.0675 22.7359 43.3599 22.7359H39.7536ZM39.7058 17.9446H42.79C43.7387 17.9446 44.2132 17.9446 44.6874 17.801C45.9697 17.4173 46.7763 16.2685 46.7763 14.6868C46.7763 12.8189 45.9219 12.0034 44.6874 11.6208C44.1654 11.4772 43.6443 11.429 42.6 11.429H39.7058V17.9446ZM61.6744 34.5711V11.5244H53.751V6.87769H75.7673L74.202 11.5244H67.1786V34.5711H61.6744ZM77.4748 34.5711V6.87769H95.3161L93.7508 11.5244H82.932V17.6574H87.3449C90.9033 17.6574 92.7543 18.52 94.0352 19.6217C95.0318 20.4844 96.7397 22.4005 96.7397 26.1866C96.7397 29.9234 94.9839 31.9831 93.513 33.0376C91.8055 34.2346 90.0024 34.5711 86.3483 34.5711H77.4748ZM82.932 29.9234H87.0605C88.6258 29.9234 89.5745 29.5397 90.2389 28.6771C90.5711 28.2462 91.0455 27.479 91.0455 26.0419C91.0455 24.6048 90.5711 23.5986 89.6224 22.8795C89.0536 22.4487 88.2936 22.2097 87.0127 22.2097H82.932V29.9234Z" fill="#0A2896"/>
</g>
</g>
<defs>
<clipPath id="clip0_259_3000">
<rect width="97" height="35" fill="white"/>
</clipPath>
</defs>
</svg>
