<svg width="134" height="49" viewBox="0 0 134 49" fill="none" xmlns="http://www.w3.org/2000/svg">
<g clip-path="url(#clip0_259_3008)">
<path d="M42.8581 8.71766C41.8038 4.13082 39.1686 0.401099 38.8133 -0.208008C38.2405 0.647813 36.1437 3.9411 35.0665 7.59548C33.9092 11.6681 33.7374 15.2824 34.1384 18.842C34.5395 22.4014 36.0405 26.0558 36.0405 26.0558C36.8425 27.9767 38.0457 30.0324 38.8249 31.0425C39.9706 29.557 42.606 25.1233 43.431 19.3366C43.8892 16.1213 43.9007 13.3044 42.8581 8.71766ZM38.8133 29.8999C38.2978 28.9297 37.4957 27.082 37.4155 24.2274C37.3925 21.469 38.5039 19.1081 38.8248 18.6134C39.1113 19.1081 40.0737 21.1638 40.1882 23.9806C40.257 26.7402 39.3404 28.9103 38.8133 29.8999ZM42.5488 16.5016C42.5144 18.2511 42.3082 20.0977 42.0332 21.2017C42.1363 19.299 41.9071 16.616 41.4604 14.5214C41.0249 12.428 39.7874 8.92677 38.7906 7.30869C37.8738 8.85013 36.7509 11.8772 36.1552 14.5019C35.5708 17.1301 35.5479 20.3068 35.5479 21.2598C35.3875 20.4566 34.9979 17.593 35.1125 14.7122C35.2041 12.3365 35.7541 9.89684 36.0635 8.77466C37.2323 5.02555 38.55 2.62816 38.7904 2.24768C39.0426 2.62816 40.704 5.57753 41.5635 8.67993C42.4228 11.7812 42.5946 14.7499 42.5488 16.5016Z" fill="#0079C1"/>
<path d="M40.5892 32.1109H32.603V37.4553C32.6145 37.4484 32.6258 37.4405 32.6258 37.4336C34.505 35.5572 37.5644 35.5572 39.4434 37.4336C41.3225 39.311 41.3225 42.3541 39.4434 44.2303C39.432 44.2384 39.432 44.2453 39.4206 44.2521V44.2544C39.4091 44.2635 39.3976 44.2704 39.3861 44.2795C37.5185 46.1377 35.055 47.0677 32.603 47.0677C30.1396 47.0677 27.676 46.1308 25.7969 44.2566C22.4854 40.9532 22.0959 35.843 24.6167 32.1109C24.9604 31.607 25.35 31.1271 25.7969 30.6814C27.676 28.8063 30.1394 27.8693 32.603 27.8693V15.0161C23.1386 15.0161 15.4617 22.67 15.4617 32.1109C15.4617 41.5508 23.1386 49.2046 32.603 49.2046C37.5414 49.2046 41.9872 47.1226 45.1152 43.7939V32.1109H40.5892ZM55.2442 46.1559C55.2442 47.3522 55.0952 49.2079 52.6891 49.2079H49.8474C47.4526 49.2079 47.3037 47.3522 47.3037 46.1559V35.1676C47.3037 33.9701 47.4526 32.1143 49.8474 32.1143H52.6891C55.0952 32.1143 55.2442 33.9701 55.2442 35.1676V37.5844H51.8068V34.7974C51.8068 34.5049 51.589 34.2363 51.2682 34.2363C51.0734 34.2363 50.7297 34.3574 50.7297 34.7974V46.4541C50.7297 46.8929 51.0734 47.0151 51.2682 47.0151C51.5891 47.0151 51.8068 46.7467 51.8068 46.4541V42.7128H51.2911V40.832H55.2442V46.1559ZM60.4003 42.786L60.9847 34.2432H61.1795L61.7752 42.786H60.4003ZM56.6077 49.2079H59.9649L60.2742 44.6669H61.8898L62.2108 49.2079H65.5679L63.7804 32.1143H58.3952L56.6077 49.2079ZM66.8397 47.0597L70.1283 34.2432H67.1834V32.1144H73.6459V34.2387L70.3689 47.0163H73.8521V49.2079H66.8397V47.0596M78.8936 41.2627V34.234H79.329C79.7071 34.234 79.9707 34.5506 79.9707 35.0889V40.4081C79.9707 40.9451 79.7071 41.2627 79.329 41.2627H78.8936ZM75.4562 49.2081H78.8936V43.3962H80.853C83.2477 43.3962 83.3966 41.5404 83.3966 40.3441V35.1676C83.3966 33.9701 83.2477 32.1143 80.853 32.1143H75.4562V49.2081ZM88.5871 40.752V34.2352H89.034C89.4007 34.2352 89.6642 34.5518 89.6642 35.0888V39.8972C89.6642 40.4344 89.4007 40.752 89.034 40.752H88.5871ZM93.5371 49.2079L91.8527 42.5415C93.0673 42.0535 93.0902 40.9292 93.0902 40.4664V35.1676C93.0902 33.9701 92.9528 32.1143 90.5465 32.1143H85.1612V49.2079H88.5871V42.8832H88.8392L90.008 49.2079H93.5371ZM99.8849 46.4541C99.8849 46.7477 99.6671 47.0163 99.3463 47.0163C99.1515 47.0163 98.8078 46.894 98.8078 46.4541V34.7974C98.8078 34.3575 99.1515 34.2363 99.3463 34.2363C99.6673 34.2363 99.8849 34.5049 99.8849 34.7974V46.4541ZM95.3819 46.1559C95.3819 47.3522 95.5307 49.2079 97.937 49.2079H100.767C103.173 49.2079 103.322 47.3522 103.322 46.1559V35.1676C103.322 33.9701 103.173 32.1143 100.767 32.1143H97.937C95.5307 32.1143 95.3819 33.9701 95.3819 35.1676V46.1559ZM114.081 32.1143H118.539V49.2079H115.113V38.4871H114.987L113.222 49.2079H110.484L108.719 38.4871H108.593V49.2079H105.167V32.1143H109.624L111.847 44.1286L114.081 32.1143Z" fill="#0079C1"/>
</g>
<defs>
<clipPath id="clip0_259_3008">
<rect width="134" height="49" fill="white"/>
</clipPath>
</defs>
</svg>
