<svg width="56" height="22" viewBox="0 0 56 22" fill="none" xmlns="http://www.w3.org/2000/svg">
<g clip-path="url(#clip0_261_4048)">
<mask id="mask0_261_4048" style="mask-type:luminance" maskUnits="userSpaceOnUse" x="0" y="0" width="56" height="21">
<path d="M55.7054 0.962402H0.428711V20.7951H55.7054V0.962402Z" fill="white"/>
</mask>
<g mask="url(#mask0_261_4048)">
<path fill-rule="evenodd" clip-rule="evenodd" d="M4.19168 0.962402L3.25035 3.55696H16.2951L17.2364 0.962402H4.19168ZM2.77939 4.85364L1.83806 7.4476H14.8828L15.8241 4.85364H2.77939ZM1.37004 8.74489L0.428711 11.3388H13.4734L14.4142 8.74489H1.37004Z" fill="#00AAFF"/>
<path fill-rule="evenodd" clip-rule="evenodd" d="M28.161 12.3274V12.3821C28.7571 12.6023 29.3266 12.9873 29.625 13.2345C30.5467 14.0045 30.9537 15.0218 30.9537 16.3417C30.9537 18.5145 29.8148 20.0817 27.9439 20.5768C27.3744 20.7416 26.7784 20.7969 25.6661 20.7969H20V4.90332H25.016C26.0464 4.90332 26.751 4.95806 27.3744 5.12288C29.1914 5.61798 30.3843 6.88311 30.3843 8.88995C30.3843 9.96256 30.0046 10.8703 29.3812 11.4749C29.1102 11.7498 28.7305 12.0801 28.161 12.3274ZM23.1451 14.0045V18.1843H25.3143C25.9644 18.1843 26.5612 18.1295 26.9955 17.7169C27.4291 17.3042 27.6189 16.782 27.6189 16.0944C27.6189 15.5722 27.483 15.0772 27.2119 14.7198C26.751 14.1423 26.1816 14.0045 25.2058 14.0045H23.1451ZM23.1178 11.2547H24.8801C25.4223 11.2547 25.6934 11.2547 25.9644 11.1723C26.6971 10.9522 27.158 10.2928 27.158 9.38505C27.158 8.31304 26.6698 7.84502 25.9644 7.62543C25.6661 7.54303 25.3683 7.51536 24.7716 7.51536H23.1178V11.2547ZM35.6712 20.7969V7.57011H31.1435V4.90332H43.7243L42.8299 7.57011H38.8165V20.7969H35.6712ZM44.7 20.7969V4.90332H54.8951L54.0006 7.57011H47.8184V11.0899H50.3401C52.3734 11.0899 53.4311 11.585 54.1631 12.2173C54.7326 12.7124 55.7085 13.812 55.7085 15.9849C55.7085 18.1295 54.7052 19.3116 53.8647 19.9168C52.889 20.6038 51.8586 20.7969 49.7706 20.7969H44.7ZM47.8184 18.1295H50.1776C51.072 18.1295 51.6142 17.9094 51.9938 17.4143C52.1836 17.167 52.4547 16.7267 52.4547 15.9019C52.4547 15.0772 52.1836 14.4996 51.6415 14.0869C51.3165 13.8397 50.8822 13.7026 50.1502 13.7026H47.8184V18.1295Z" fill="#0A2896"/>
</g>
</g>
<defs>
<clipPath id="clip0_261_4048">
<rect width="55.4286" height="20.087" fill="white" transform="translate(0.428711 0.956543)"/>
</clipPath>
</defs>
</svg>
