<svg width="60" height="34" viewBox="0 0 60 34" fill="none" xmlns="http://www.w3.org/2000/svg">
<g clip-path="url(#clip0_261_4061)">
<path d="M9.32738 6.07703C14.5905 3.22006 21.8311 1.45502 29.8574 1.45502C37.8838 1.45502 45.1394 3.22006 50.3875 6.07703C55.5604 8.89287 58.7597 12.7558 58.7597 17.0001C58.7597 21.2444 55.5604 25.1073 50.3875 27.9231C45.1244 30.7801 37.8838 32.5451 29.8574 32.5451C21.8311 32.5451 14.5755 30.7801 9.32738 27.9231C4.15445 25.1073 0.955194 21.2444 0.955194 17.0001C0.955194 12.7558 4.15445 8.89287 9.32738 6.07703ZM29.8574 0.643555C21.6996 0.643555 14.3048 2.44973 8.94015 5.36653C3.50782 8.32447 0.158203 12.4379 0.158203 17.0001C0.158203 21.5622 3.5191 25.6757 8.95519 28.6336C14.3161 31.5504 21.7146 33.3566 29.8725 33.3566C38.0304 33.3566 45.4251 31.5504 50.7898 28.6336C56.2071 25.6757 59.5567 21.5622 59.5567 17.0001C59.5567 12.4379 56.1958 8.32447 50.7597 5.36653C45.3988 2.44973 38.0003 0.643555 29.8424 0.643555" fill="#B88A57"/>
<path fill-rule="evenodd" clip-rule="evenodd" d="M8.71451 16.974L9.44384 14.9398H10.3874L9.25962 18.0024C9.13991 18.3729 8.95816 18.7205 8.72203 19.0308C8.62276 19.1484 8.4964 19.2404 8.35372 19.2989C8.21103 19.3575 8.05623 19.381 7.90248 19.3673C7.76342 19.3561 7.62601 19.3298 7.49271 19.2888V18.5746C7.56981 18.5966 7.64936 18.6092 7.72955 18.6119C7.78857 18.6159 7.84776 18.6076 7.9034 18.5876C7.95904 18.5677 8.00992 18.5365 8.05285 18.496C8.15356 18.3685 8.22769 18.2223 8.27089 18.066L6.69947 14.9585H7.70323L8.71451 16.974ZM11.9852 17.1199H12.4062C12.6155 17.1339 12.8231 17.0743 12.9927 16.9516C13.0665 16.8834 13.124 16.7996 13.161 16.7065C13.1981 16.6133 13.2138 16.5131 13.207 16.4131C13.227 15.9145 12.9589 15.6652 12.4025 15.6652H11.9889L11.9852 17.1199ZM11.9852 17.8678V19.2738H11.0303V14.9398H12.3686C12.8663 14.9102 13.3621 15.0231 13.7972 15.2651C13.9743 15.3989 14.1126 15.577 14.1978 15.7814C14.283 15.9857 14.3121 16.2089 14.2822 16.4281C14.2822 17.3804 13.6919 17.8566 12.5115 17.8566L11.9852 17.8678ZM17.6243 15.669H15.9476V19.2738H14.9965V14.9398H17.628L17.6243 15.669ZM19.9213 16.9815L20.6506 14.9473H21.5867L20.4589 18.0099C20.339 18.3803 20.1572 18.7279 19.9213 19.0383C19.822 19.1558 19.6957 19.2478 19.553 19.3064C19.4103 19.365 19.2555 19.3885 19.1017 19.3748C18.9627 19.3636 18.8252 19.3373 18.6919 19.2963V18.582C18.769 18.6041 18.8486 18.6167 18.9288 18.6194C18.991 18.6225 19.0532 18.6121 19.111 18.5888C19.1688 18.5656 19.2208 18.5301 19.2634 18.4848C19.3641 18.3573 19.4382 18.2111 19.4814 18.0548L17.91 14.9473H18.9138L19.9213 16.9815ZM23.9325 15.6615V19.2701H22.9814V15.654H21.8724V14.9398H25.0378V15.654L23.9325 15.6615ZM26.628 17.2844V19.2701H25.6769V14.9398H26.628V16.5552H28.2107V14.9398H29.1619V19.2626H28.2107V17.2769L26.628 17.2844ZM32.8649 15.6615H31.128V16.6786H32.5829V17.4265H31.128V18.5484H33.0829V19.2514H30.1732V14.9398H32.8649V15.6615ZM36.4138 15.841V17.9239C36.5528 17.9473 36.6953 17.9415 36.8319 17.9067C36.9686 17.8719 37.0963 17.809 37.207 17.7219C37.3989 17.484 37.4882 17.1801 37.4551 16.8768C37.4551 16.1464 37.108 15.8011 36.4138 15.841ZM35.4777 15.841C34.816 15.7812 34.4852 16.1239 34.4852 16.8693C34.4534 17.1702 34.5366 17.4719 34.7183 17.7145C34.8214 17.8003 34.9421 17.8628 35.0719 17.8976C35.2017 17.9325 35.3376 17.9389 35.4701 17.9164L35.4777 15.841ZM35.4777 19.2589V18.6232H35.3386C35.0626 18.6298 34.7873 18.5932 34.5228 18.5147C34.2266 18.3993 33.9779 18.1887 33.816 17.9164C33.6265 17.6017 33.5313 17.2398 33.5416 16.8731C33.5441 16.606 33.5938 16.3415 33.6882 16.0915C33.8014 15.805 34.0044 15.5624 34.2671 15.3997C34.6326 15.1872 35.0565 15.0956 35.4777 15.138V14.6294H36.4138V15.1305C36.8458 15.0873 37.2806 15.1788 37.6581 15.3923C37.9242 15.5531 38.1301 15.796 38.2446 16.084C38.339 16.334 38.3886 16.5986 38.3912 16.8656C38.4001 17.2326 38.3036 17.5946 38.113 17.9089C37.9437 18.1841 37.6831 18.3918 37.3762 18.496C37.1052 18.5745 36.8237 18.611 36.5416 18.6045H36.4025V19.2402L35.4777 19.2589ZM40.8423 15.6503V19.2589H39.8912V15.654H38.7822V14.9398H41.9476V15.654L40.8423 15.6503ZM45.2822 15.6503H43.5453V16.6674H45.0002V17.4153H43.5453V18.5372H45.5002V19.2402H42.5904V14.9398H45.2709L45.2822 15.6503ZM48.8461 15.6503H47.1506V19.2552H46.1995V14.9398H48.831L48.8461 15.6503ZM50.7032 17.6247H51.7559L51.2145 16.2635L50.7032 17.6247ZM50.4213 18.3726L50.0867 19.2626H49.1318L50.7709 14.9398H51.6619L53.331 19.2626H52.3762L52.0002 18.3539L50.4213 18.3726ZM54.2333 15.927L53.8122 15.3324C54.2537 15.0016 54.7934 14.8266 55.3461 14.8351C55.6454 14.8204 55.9441 14.8755 56.2183 14.9959C56.4228 15.0868 56.5974 15.2333 56.722 15.4184C56.8259 15.5799 56.8914 15.7628 56.9137 15.9532C56.926 16.1008 56.9094 16.2494 56.8649 16.3907C56.8189 16.5359 56.733 16.6655 56.6168 16.7646C56.4873 16.8739 56.3298 16.9451 56.1619 16.9703V17.0376C56.3986 17.0543 56.6215 17.1552 56.7897 17.3218C56.878 17.4098 56.9471 17.515 56.9924 17.6309C57.0377 17.7467 57.0583 17.8707 57.0529 17.9949C57.0522 18.226 56.9843 18.4521 56.8574 18.6456C56.7107 18.8635 56.5065 19.0369 56.2671 19.1467C55.9655 19.2859 55.6372 19.3586 55.3047 19.3598C54.6821 19.3656 54.0795 19.1418 53.613 18.7316L54.0679 18.152C54.0872 18.1545 54.1054 18.1623 54.1205 18.1744L54.1656 18.2118L54.301 18.2978L54.4927 18.4138C54.7452 18.5468 55.0319 18.6015 55.316 18.5708C55.5089 18.5538 55.6886 18.4658 55.8198 18.324C55.8769 18.2639 55.9207 18.1926 55.9486 18.1147C55.9764 18.0368 55.9876 17.954 55.9814 17.8715C55.9814 17.545 55.7596 17.3817 55.316 17.3817H54.8949V16.6562H55.2408C55.3377 16.6686 55.4361 16.6588 55.5286 16.6277C55.6211 16.5966 55.7052 16.545 55.7747 16.4767C55.8168 16.4248 55.8476 16.3648 55.8651 16.3004C55.8826 16.236 55.8864 16.1687 55.8762 16.1028C55.8661 16.0329 55.8414 15.9659 55.8039 15.906C55.7664 15.8462 55.7167 15.7947 55.6581 15.755C55.5101 15.6583 55.3349 15.6111 55.1581 15.6204C54.8266 15.6383 54.5066 15.747 54.2333 15.9345M6.26714 15.4483L5.79722 16.013C5.66687 15.8803 5.50859 15.7779 5.33374 15.7132C5.15889 15.6486 4.9718 15.6232 4.78594 15.639C4.63856 15.6621 4.49696 15.7129 4.36865 15.7886C4.19433 15.8976 4.05582 16.0549 3.97015 16.2411C3.84489 16.5126 3.78811 16.8104 3.80474 17.1087C3.77617 17.4891 3.88849 17.8669 4.12053 18.1707C4.29127 18.3654 4.52306 18.4972 4.77842 18.5446C4.98953 18.5644 5.20214 18.5285 5.39485 18.4405C5.58757 18.3526 5.75357 18.2156 5.87616 18.0435L6.39872 18.5035C6.20303 18.7715 5.94723 18.9905 5.65161 19.1431C5.356 19.2956 5.02871 19.3775 4.69571 19.3823C4.33089 19.3877 3.97212 19.2891 3.66188 19.0981C3.3513 18.9009 3.10254 18.6211 2.94383 18.2904C2.76741 17.9322 2.67976 17.5373 2.6882 17.1386C2.67147 16.8235 2.72175 16.5084 2.83576 16.2139C2.94977 15.9194 3.12494 15.6522 3.34984 15.4296C3.74935 15.0579 4.27648 14.8519 4.82353 14.8538C5.10122 14.8514 5.37639 14.9061 5.6318 15.0146C5.87163 15.1167 6.08691 15.2684 6.26338 15.4596" fill="#00649D"/>
<path fill-rule="evenodd" clip-rule="evenodd" d="M45.4212 21.1136C41.4437 26.9921 30.4813 29.9051 23.2106 30.9671C21.8836 30.8026 21.4888 30.7502 20.2407 30.5558C24.6543 29.1011 34.8272 26.5059 36.673 21.1136H45.4212ZM34.7971 6.33138C38.3723 7.3373 42.7821 9.00511 45.3497 12.8643H34.8535C34.7106 12.6848 34.564 12.4903 34.4136 12.3258L34.2896 12.1799L34.2482 12.1313L33.9061 11.7574L33.8648 11.7088L33.7783 11.6115L33.6016 11.4208L33.4663 11.2787L33.2858 11.0918L33.2407 11.017L33.1505 10.9235L33.0114 10.7851L32.9174 10.6954L32.8723 10.6505L32.7783 10.5607L32.7332 10.5159L32.6843 10.471L32.5903 10.3812L32.5415 10.3364L32.4926 10.2915L32.4437 10.2466L32.4024 10.2092L32.361 10.1718L32.3197 10.1344L32.2783 10.097L32.237 10.0596L32.1956 10.0223L32.1542 9.98486L32.1129 9.94747L32.0716 9.91007L31.9888 9.83528L31.9475 9.79788L31.9061 9.7605L31.8648 9.7231L31.8234 9.6857L31.7407 9.61465L31.6994 9.57725L31.658 9.53986L31.6167 9.50247L31.534 9.43142L31.4926 9.39776L31.4512 9.3641L31.3685 9.29306L31.2069 9.15469L30.9625 8.95276L30.7219 8.76205V8.72465C32.0104 7.80545 33.3793 7.00322 34.8121 6.32764" fill="#A97654"/>
<path fill-rule="evenodd" clip-rule="evenodd" d="M46.4967 21.1133C43.0831 27.0292 32.6245 30.3237 26.3237 31.2773C27.5192 31.3221 28.5568 31.4082 29.9515 31.4082C37.7072 31.4082 44.6433 29.7478 49.7109 27.0853C53.0944 25.2529 55.1959 23.286 56.4553 21.1021L46.4967 21.1133ZM36.0719 5.72161C40.617 7.33707 44.038 9.00862 46.5155 12.864L56.4365 12.8341C53.5418 7.80076 46.7749 5.14946 41.1621 3.82568C40.1658 4.09867 36.4967 5.51594 36.0719 5.73657" fill="#B88A57"/>
<path fill-rule="evenodd" clip-rule="evenodd" d="M14.2974 21.1135C16.3538 24.0714 19.5605 26.0084 23.4139 27.1565C24.068 27.3509 25.162 27.5603 25.8124 27.6837C27.5966 27.1515 29.3201 26.4359 30.9553 25.5485L29.9665 25.5934H29.3162H29.2297H29.1432H29.0568H28.9703H28.8838H28.7974C27.2151 25.3957 25.7401 24.6923 24.5944 23.589C23.8894 22.8968 23.3476 22.0577 23.0079 21.1321L14.2974 21.1135ZM36.538 3.01807C26.1056 4.51386 17.4966 8.09629 14.3575 12.8604H24.8838L24.9177 12.8155L24.9966 12.7146L25.0756 12.6136L25.1132 12.565L25.2335 12.4154L25.4402 12.1649L25.4816 12.1162C25.5944 11.9854 25.7071 11.8545 25.8237 11.7423L25.865 11.6937L25.9515 11.5965L26.1282 11.4057L26.2635 11.2636L26.444 11.0767L26.4891 11.0318L26.5793 10.9383L26.7184 10.8L26.8124 10.7102L26.8575 10.6653L26.9515 10.5756L26.9966 10.5307L27.0455 10.4858L27.1132 10.4223C27.4891 10.0483 27.9139 9.67436 28.335 9.32285L28.4365 9.24058L28.5154 9.177L28.7598 8.97508L29.0004 8.78436C29.2523 8.58617 29.5004 8.41041 29.7523 8.24213C32.7345 6.13911 36.0338 4.52092 39.5267 3.44812L39.4101 3.41819C38.6207 3.27235 37.35 3.14521 36.5267 3.04425" fill="#00649D"/>
<path fill-rule="evenodd" clip-rule="evenodd" d="M13.2034 12.8866C16.8688 6.694 27.5981 3.72484 33.4176 2.73762C32.0793 2.63291 31.162 2.58057 29.7635 2.58057C22.0079 2.58057 14.9966 4.2409 9.9327 6.90341C6.95525 8.5787 4.59059 10.6167 3.25977 12.8866H13.2034ZM21.4741 27.4706C17.944 26.0384 15.162 24.408 13.2034 21.1471H3.28608C6.13195 26.0795 12.9402 28.8355 18.5267 30.2191C19.5981 29.9312 23.241 28.742 24.3462 28.2895C23.3722 28.1026 22.4172 27.8285 21.4928 27.4706" fill="#007EAF"/>
</g>
<defs>
<clipPath id="clip0_261_4061">
<rect width="59.4286" height="32.713" fill="white" transform="translate(0.143066 0.643555)"/>
</clipPath>
</defs>
</svg>
