<svg xmlns="http://www.w3.org/2000/svg" width="104" height="57" fill="none" viewBox="0 0 104 57"><g clip-path="url(#a)"><path fill="#B88A57" d="M16.072 9.467C25.283 4.49 37.954 1.414 52 1.414s26.743 3.075 35.928 8.053c9.052 4.907 14.651 11.638 14.651 19.033S96.98 42.626 87.928 47.533C78.718 52.51 66.046 55.586 52 55.586s-26.743-3.075-35.928-8.053C7.02 42.626 1.422 35.895 1.422 28.5S7.02 14.374 16.071 9.467M52 0C37.724 0 24.783 3.147 15.395 8.23 5.888 13.382.026 20.55.026 28.5s5.882 15.117 15.395 20.27C24.803 53.854 37.75 57 52.026 57c14.277 0 27.217-3.147 36.606-8.23 9.48-5.153 15.342-12.32 15.342-20.27S98.092 13.383 88.579 8.23C79.197 3.146 66.25 0 51.974 0"/><path fill="#00649D" fill-rule="evenodd" d="m15 28.454 1.276-3.544h1.652l-1.974 5.336a6 6 0 0 1-.94 1.792 1.68 1.68 0 0 1-1.435.587 3.4 3.4 0 0 1-.717-.137v-1.245q.203.058.414.065a.76.76 0 0 0 .566-.202c.176-.222.306-.477.382-.749l-2.75-5.415h1.756zm5.724.255h.736c.367.024.73-.08 1.027-.294a1.17 1.17 0 0 0 .375-.938q.053-1.303-1.408-1.303h-.724zm0 1.303v2.45h-1.671V24.91h2.342a4.6 4.6 0 0 1 2.5.567c.31.233.552.543.7.9.15.355.2.744.149 1.126q0 2.49-3.1 2.49zm9.868-3.832h-2.934v6.282h-1.665V24.91H30.6zm4.02 2.287 1.276-3.544h1.638l-1.973 5.336a6 6 0 0 1-.941 1.792 1.68 1.68 0 0 1-1.434.587 3.4 3.4 0 0 1-.717-.137v-1.245q.203.058.414.065a.76.76 0 0 0 .586-.234c.176-.222.306-.477.381-.75l-2.75-5.414h1.757zm7.02-2.3v6.288h-1.665v-6.3h-1.94V24.91h5.539v1.244zm4.717 2.828v3.46h-1.665V24.91h1.665v2.815h2.77V24.91h1.664v7.532h-1.665v-3.46zm10.914-2.828h-3.04v1.773h2.547v1.303h-2.546v1.955h3.42v1.224h-5.091V24.91h4.71zm6.21.313v3.63a1.78 1.78 0 0 0 1.389-.352c.336-.415.492-.945.434-1.473q0-1.909-1.822-1.805m-1.637 0q-1.737-.156-1.737 1.792c-.056.524.09 1.05.408 1.473a1.63 1.63 0 0 0 1.315.351zm0 5.955v-1.107h-.244a4.7 4.7 0 0 1-1.428-.19 2.5 2.5 0 0 1-1.236-1.042 3.33 3.33 0 0 1-.48-1.817c.004-.466.09-.927.256-1.362.198-.5.553-.922 1.013-1.206.64-.37 1.382-.53 2.119-.456v-.886h1.638v.873a3.7 3.7 0 0 1 2.177.456c.466.28.826.704 1.027 1.206.165.435.252.896.256 1.361a3.33 3.33 0 0 1-.487 1.818 2.43 2.43 0 0 1-1.29 1.023c-.473.137-.966.2-1.46.19h-.243v1.107zm9.388-6.287v6.287H69.56v-6.28h-1.94V24.91h5.539v1.244zm7.77 0h-3.04v1.772H78.5v1.303h-2.546v1.955h3.421v1.225h-5.092V24.91h4.69zm6.236 0h-2.967v6.281H80.6v-7.52h4.605zm3.25 3.44h1.842l-.947-2.372zm-.493 1.303-.586 1.551h-1.67L88.6 24.91h1.559l2.921 7.532h-1.671l-.658-1.583zm6.67-4.261-.736-1.036a4.38 4.38 0 0 1 2.684-.867 3.4 3.4 0 0 1 1.527.28c.358.16.663.414.881.737.182.281.297.6.336.932.021.257-.008.516-.086.762a1.4 1.4 0 0 1-.434.652 1.6 1.6 0 0 1-.796.358v.117c.414.03.804.205 1.099.495a1.56 1.56 0 0 1 .46 1.173 2.07 2.07 0 0 1-.342 1.134 2.5 2.5 0 0 1-1.033.873 4.1 4.1 0 0 1-1.684.371 4.43 4.43 0 0 1-2.96-1.094l.796-1.01a.2.2 0 0 1 .091.039l.08.065.236.15.336.202a2.5 2.5 0 0 0 1.44.274c.338-.03.653-.183.882-.43a1.03 1.03 0 0 0 .283-.789q0-.853-1.164-.853h-.737V27.9h.605a1.14 1.14 0 0 0 .934-.313.83.83 0 0 0 .178-.652.88.88 0 0 0-.382-.606 1.46 1.46 0 0 0-.875-.234c-.58.03-1.14.22-1.618.547m-83.94-.847-.823.984a2.21 2.21 0 0 0-1.77-.652c-.258.04-.506.129-.73.26a1.84 1.84 0 0 0-.698.79 3.2 3.2 0 0 0-.29 1.511 2.7 2.7 0 0 0 .554 1.85c.298.34.704.57 1.15.652a2.13 2.13 0 0 0 1.922-.873l.914.801a3.74 3.74 0 0 1-1.307 1.115 3.8 3.8 0 0 1-1.673.417 3.37 3.37 0 0 1-1.81-.496 3.43 3.43 0 0 1-1.256-1.407 4.3 4.3 0 0 1-.447-2.007 3.88 3.88 0 0 1 1.158-2.978A3.78 3.78 0 0 1 8.19 24.76c.486-.004.967.091 1.414.28.42.178.797.443 1.105.776" clip-rule="evenodd"/><path fill="#A97654" fill-rule="evenodd" d="M79.237 35.667c-6.96 10.243-26.145 15.319-38.869 17.17a130 130 0 0 1-5.197-.717c7.724-2.535 25.526-7.057 28.757-16.453zM60.645 9.91c6.256 1.753 13.973 4.66 18.467 11.384H60.743c-.25-.313-.506-.652-.77-.939l-.216-.254-.073-.085-.598-.651-.073-.085-.151-.17-.31-.332-.236-.247-.316-.326-.079-.13-.158-.163-.243-.241-.165-.157-.079-.078-.164-.156-.08-.078-.085-.079-.164-.156-.086-.078-.085-.078-.086-.078-.072-.066-.072-.065-.073-.065-.072-.065-.073-.065-.072-.066-.072-.065-.073-.065-.072-.065-.145-.13-.072-.065-.072-.066-.073-.065-.072-.065-.145-.124-.072-.065-.073-.065-.072-.065-.145-.124-.072-.059-.073-.058-.144-.124-.283-.241-.428-.352-.42-.332v-.066a46.5 46.5 0 0 1 7.157-4.176" clip-rule="evenodd"/><path fill="#B88A57" fill-rule="evenodd" d="M81.118 35.667c-5.973 10.308-24.276 16.049-35.302 17.71 2.092.078 3.908.228 6.348.228 13.573 0 25.711-2.893 34.58-7.532 5.92-3.193 9.598-6.62 11.802-10.425zM62.875 8.848c7.954 2.815 13.94 5.728 18.276 12.446l17.362-.053c-5.066-8.77-16.908-13.39-26.73-15.696-1.743.476-8.165 2.945-8.908 3.33" clip-rule="evenodd"/><path fill="#00649D" fill-rule="evenodd" d="M24.77 35.667c3.599 5.154 9.21 8.53 15.954 10.53 1.145.339 3.059.703 4.197.918a47.2 47.2 0 0 0 9-3.72l-1.73.078h-2.046a12.93 12.93 0 0 1-7.356-3.492 11.6 11.6 0 0 1-2.776-4.281zm38.92-31.53c-18.256 2.607-33.321 8.849-38.815 17.15h18.421l.06-.078.137-.176.139-.176.065-.085.211-.26.362-.437.072-.085a10 10 0 0 1 .599-.651l.072-.085.151-.17.31-.332.237-.247.315-.326.08-.078.157-.163.244-.241.164-.157.079-.078.164-.156.08-.078.085-.079.118-.11a34 34 0 0 1 2.139-1.916l.177-.143.138-.111.428-.352.421-.332c.44-.346.875-.652 1.316-.945A60.6 60.6 0 0 1 68.92 4.887l-.204-.052c-1.381-.254-3.605-.476-5.046-.652" clip-rule="evenodd"/><path fill="#007EAF" fill-rule="evenodd" d="M22.855 21.333C29.27 10.543 48.046 5.369 58.23 3.649c-2.342-.183-3.947-.274-6.394-.274-13.573 0-25.842 2.893-34.704 7.532-5.21 2.92-9.35 6.47-11.678 10.426zM37.33 46.744c-6.178-2.495-11.046-5.336-14.474-11.018H5.5c4.98 8.594 16.895 13.396 26.671 15.807 1.875-.502 8.25-2.574 10.184-3.362a29 29 0 0 1-4.993-1.427" clip-rule="evenodd"/></g><defs><clipPath id="a"><path fill="#fff" d="M0 0h104v57H0z"/></clipPath></defs></svg>