<svg xmlns="http://www.w3.org/2000/svg" width="54" height="54" fill="none" viewBox="0 0 54 54"><g filter="url(#a)"><path fill="#F7BF18" fill-rule="evenodd" d="M26.614 2.7C13.407 2.7 2.7 13.407 2.7 26.614S13.407 50.53 26.614 50.53 50.53 39.82 50.53 26.614 39.82 2.7 26.614 2.7m-4.348 10.87a2.174 2.174 0 0 0-2.174 2.174v8.696h-2.174a2.174 2.174 0 1 0 0 4.348h2.174v4.348h-2.174a2.174 2.174 0 1 0 0 4.348h2.174v2.174a2.174 2.174 0 0 0 4.348 0v-2.174h4.348a2.174 2.174 0 1 0 0-4.348H24.44v-4.348h5.435a7.609 7.609 0 1 0 0-15.218zm7.61 10.87H24.44v-6.522h5.435a3.261 3.261 0 0 1 0 6.522" clip-rule="evenodd"/></g><defs><filter id="a" width="60.0286" height="60.0286" x="-3.40009" y="-3.39999" color-interpolation-filters="sRGB" filterUnits="userSpaceOnUse"><feFlood flood-opacity="0" result="BackgroundImageFix"/><feGaussianBlur in="BackgroundImageFix" stdDeviation="3.05"/><feComposite in2="SourceAlpha" operator="in" result="effect1_backgroundBlur_2001_1573"/><feBlend in="SourceGraphic" in2="effect1_backgroundBlur_2001_1573" result="shape"/></filter></defs></svg>