<svg xmlns="http://www.w3.org/2000/svg" width="757" height="467" fill="none" viewBox="0 0 757 467"><path fill="#369" fill-opacity="0.06" d="M313.73 0 196.334 449.013l-32.385-151.694q70.842 0 117.396 44.497 46.553 44.497 46.553 119.332 0 74.836-46.553 121.355Q234.791 627 165.973 627q-72.866 0-119.42-46.519Q0 533.961 0 461.148q0-24.27 2.024-44.496 4.049-22.25 14.168-52.588t28.337-76.858L151.805 0zm429.101 0L625.436 449.013l-32.385-151.694q70.842 0 117.396 44.497Q757 386.313 757 461.148q0 74.836-46.553 121.355Q663.893 627 595.075 627q-72.866 0-119.42-46.519-46.553-46.52-46.553-119.333 0-24.27 2.024-44.496 4.047-22.25 14.168-52.588t28.337-76.858L580.906 0z"/></svg>