<svg xmlns="http://www.w3.org/2000/svg" width="275" height="49" fill="none" viewBox="0 0 275 49"><path fill="#369" d="M260.066 31.326h5.23q3.9.002 6.65-2.79c1.839-1.854 2.756-4.104 2.756-6.73q.001-3.945-2.756-6.73-2.75-2.793-6.65-2.795h-12.197v25.406h6.967zm0-11.987h5.23q1.017 0 1.719.728a2.38 2.38 0 0 1 .719 1.74 2.35 2.35 0 0 1-.719 1.74 2.3 2.3 0 0 1-1.719.728h-5.23zm-31.423-7.058v25.406h21.603v-7.052H235.61v-2.826h10.005v-5.65H235.61v-2.82h14.636v-7.058zm-25.037 0v7.058h7.668v18.348h6.968V19.339h7.668v-7.058zm-11.344 25.406q5.194 0 8.86-3.711l-4.93-4.996q-1.637 1.655-3.93 1.655-2.319 0-3.954-1.655-1.628-1.648-1.63-3.996c0-1.552.546-2.874 1.63-3.978 1.09-1.103 2.408-1.649 3.954-1.649 1.528 0 2.839.546 3.93 1.65l4.93-4.99c-2.444-2.474-5.398-3.717-8.86-3.717-3.481 0-6.44 1.242-8.885 3.716q-3.666 3.712-3.666 8.968 0 5.274 3.666 8.992 3.666 3.71 8.885 3.71m-29.384-25.405-9.813 25.406h7.477l1.366-3.535h9.723l1.336 3.535h7.458l-9.549-25.406zm3.966 9.095 2.139 5.724h-4.356z"/><path fill="#F7BF18" d="m143.375 12.281-6.476 9.362-6.494-9.362h-6.758v25.406H134l1.449-5.557.581-2.225a2.63 2.63 0 0 1-1.728-2.477c0-1.451 1.163-2.628 2.597-2.628s2.596 1.177 2.596 2.628a2.63 2.63 0 0 1-1.727 2.477l.58 2.225 1.45 5.557h10.353V12.28z"/><path fill="#369" d="m111.016 12.281-7.578 8.44v-8.44h-8.452q1.005.75 1.933 1.692 4.524 4.556 4.524 11.011c0 4.303-1.508 7.98-4.524 11.018a17 17 0 0 1-1.925 1.685h8.444v-6.464l3.037-3.395 5.775 9.859h8.106l-8.968-15.31 9.058-10.096zm-42.438 0-6.476 9.362-6.494-9.362H48.85v25.406h6.967V24.88l6.285 9.077 6.266-9.077v12.806h8.71a17 17 0 0 1-1.924-1.685c-3.016-3.038-4.524-6.715-4.524-11.018q0-6.455 4.524-11.011a17 17 0 0 1 1.933-1.692zm-39.842 0-9.813 25.406H26.4l1.366-3.535h9.722l1.336 3.535h7.459l-9.55-25.406zm3.966 9.095L34.84 27.1h-4.356zM.236 28.772c0 4.694 2.732 8.914 8.988 8.914 6.471 0 9.814-4.111 9.85-8.041.036-2.183-.683-4.33-3.271-5.64 1.941-1.019 2.516-3.057 2.516-4.694 0-10.698-17.868-10.88-17.868.546h5.43c0-3.639 6.327-3.493 6.327-.364 0 .982-.791 2.11-1.978 2.11H6.42v5.24h3.81c1.942 0 2.733 1.383 2.733 2.438 0 3.057-7.047 3.711-7.047-.51z"/><path fill="#F7BF18" d="M86.037 29.635c2.538 0 4.596-2.082 4.596-4.651s-2.058-4.652-4.596-4.652-4.596 2.083-4.596 4.652 2.058 4.651 4.596 4.651m.765-17.354h-1.498v3.295h1.498zm-5.285 1.253-.345.148.785 1.88.345-.147zm-3.891 2.564-.265.268 1.426 1.444.265-.268zm-2.718 4.011-.14.351 1.869.768.14-.35zm-.96 4.597v.379h2.017v-.38zm.88 4.781.146.349 1.858-.794-.145-.35zm2.532 3.938.266.268 1.426-1.444-.265-.268zm3.963 2.751.347.142.76-1.892-.347-.142zm9.266.081.345-.148-.785-1.88-.345.147zm3.891-2.563.265-.268-1.427-1.444-.264.268zm2.719-4.011.14-.351-1.869-.768-.14.35zm.959-4.598v-.379h-2.017v.38zm-.88-4.78-.145-.349-1.859.794.146.35zm-2.532-3.938-.265-.268-1.427 1.444.265.268zm-3.963-2.751-.347-.142-.76 1.892.347.142zM86.76 34.393h-1.497v3.294h1.497z"/><path fill="#F7BF18" d="M73.125 24.138v1.515h3.255v-1.515zm22.569 0v1.515h3.255v-1.515z"/></svg>