<svg xmlns="http://www.w3.org/2000/svg" width="155" height="26" fill="none" viewBox="0 0 155 26"><path fill="#369" d="M146.583 16.622h2.947q2.199 0 3.748-1.48 1.555-1.48 1.554-3.572 0-2.094-1.554-3.57-1.55-1.483-3.748-1.484h-6.874v13.48h3.927zm0-6.36h2.947q.574 0 .969.385.406.384.406.923 0 .547-.406.924a1.33 1.33 0 0 1-.969.386h-2.947zm-17.712-3.746v13.48h12.177v-3.741h-8.25v-1.5h5.639v-2.998h-5.639v-1.496h8.25V6.516zm-14.111 0v3.745h4.322v9.735h3.927v-9.735h4.322V6.516zm-6.394 13.48q2.927 0 4.994-1.968l-2.779-2.652a3.1 3.1 0 0 1-2.215.879q-1.306 0-2.229-.879-.917-.874-.918-2.12 0-1.234.918-2.11.922-.877 2.229-.875 1.292-.001 2.215.875l2.779-2.648q-2.067-1.97-4.994-1.972-2.942.002-5.008 1.972-2.067 1.97-2.066 4.758 0 2.799 2.066 4.772 2.066 1.968 5.008 1.968M91.804 6.516l-5.53 13.48h4.213l.77-1.875h5.48l.753 1.875h4.204l-5.382-13.48zm2.235 4.826 1.206 3.037H92.79z"/><path fill="#F7BF18" d="m80.811 6.516-3.65 4.968-3.66-4.968h-3.809v13.48h5.835l.817-2.948.327-1.18c-.567-.193-.973-.709-.973-1.315 0-.77.655-1.394 1.463-1.394s1.464.624 1.464 1.394c0 .606-.407 1.122-.974 1.314l.327 1.181.817 2.948h5.835V6.516z"/><path fill="#369" d="M62.573 6.516 58.3 10.995V6.516h-4.764q.568.397 1.09.898 2.55 2.418 2.55 5.842 0 3.428-2.55 5.846-.52.498-1.085.894h4.76v-3.43l1.711-1.8 3.255 5.23h4.569l-5.055-8.123 5.106-5.357zm-23.92 0-3.65 4.968-3.66-4.968h-3.81v13.48h3.928v-6.794l3.542 4.816 3.532-4.816v6.794h4.91a9 9 0 0 1-1.086-.894q-2.55-2.418-2.55-5.846 0-3.424 2.55-5.842a9 9 0 0 1 1.09-.898zm-22.456 0-5.531 13.48h4.214l.77-1.875h5.48l.753 1.875h4.204l-5.383-13.48zm2.235 4.826 1.205 3.037h-2.454zM.133 15.266c0 2.49 1.54 4.73 5.066 4.73 3.647 0 5.532-2.181 5.552-4.266.02-1.159-.385-2.298-1.844-2.993 1.094-.54 1.418-1.622 1.418-2.49 0-5.677-10.07-5.774-10.07.289h3.06c0-1.93 3.566-1.854 3.566-.193 0 .521-.446 1.12-1.115 1.12H3.618v2.78h2.148c1.094 0 1.54.734 1.54 1.293 0 1.622-3.972 1.97-3.972-.27z"/><path fill="#F7BF18" d="M48.494 15.725c1.43 0 2.59-1.105 2.59-2.469s-1.16-2.468-2.59-2.468c-1.431 0-2.59 1.105-2.59 2.468 0 1.364 1.159 2.469 2.59 2.469m.431-9.209h-.844v1.748h.844zm-2.979.665-.194.079.442.998.194-.078zm-2.193 1.361-.15.142.804.766.15-.142zm-1.532 2.128-.08.186 1.054.408.08-.187zm-.541 2.439v.201h1.137v-.201zm.496 2.537.082.185 1.048-.421-.082-.186zm1.427 2.09.15.142.804-.767-.15-.142zm2.234 1.459.195.075.428-1.003-.195-.076zm5.223.043.194-.078-.443-.999-.194.079zm2.193-1.36.149-.143-.804-.766-.15.142zm1.532-2.128.079-.187-1.053-.408-.08.187zm.541-2.44v-.201h-1.138v.201zm-.496-2.536-.082-.186-1.048.422.082.185zm-1.428-2.09-.15-.142-.803.766.149.142zm-2.234-1.46-.195-.075-.428 1.004.195.075zm-2.267 11.024h-.844v1.748h.844z"/><path fill="#F7BF18" d="M41.216 12.808v.804h1.835v-.804zm12.72 0v.804h1.835v-.804z"/></svg>