<svg xmlns="http://www.w3.org/2000/svg" width="26" height="32" fill="none" viewBox="0 0 26 32"><path fill="#369" d="M25.667 12.646c0 9.25-12.667 18.5-12.667 18.5S.333 21.896.333 12.646c0-3.271 1.335-6.408 3.71-8.721S9.641.313 13 .313s6.581 1.299 8.957 3.612c2.375 2.313 3.71 5.45 3.71 8.72"/><path stroke="#369" stroke-linecap="round" stroke-linejoin="round" stroke-width="1.5" d="M13 17.27c2.623 0 4.75-2.07 4.75-4.624S15.623 8.02 13 8.02s-4.75 2.07-4.75 4.625c0 2.554 2.127 4.625 4.75 4.625"/><path fill="#F7BF18" d="M15.932 7 13 11.053 10.06 7H7v11h4.687l.657-2.406.263-.963a1.14 1.14 0 0 1-.783-1.073c0-.628.527-1.138 1.176-1.138.65 0 1.176.51 1.176 1.138 0 .495-.327.916-.783 1.073l.263.963.656 2.406H19V7z"/></svg>