<svg xmlns="http://www.w3.org/2000/svg" width="28" height="28" fill="none" viewBox="0 0 28 28"><path fill="#044186" d="M14 3.436c-7.732 0-14 6.328-14 14.134 0 4.232 1.827 6.993 1.827 6.993h24.341S28 21.548 28 17.57c0-7.805-6.268-14.133-14-14.133m11.141 19.406-22.237-.01s-1.185-2.244-1.185-5.307c0-6.841 5.52-12.388 12.328-12.388 6.809 0 12.329 5.546 12.329 12.388 0 3.098-1.235 5.317-1.235 5.317"/><path fill="#D9251B" d="m17.957 7.19-.176-.001-3.734 7.318-3.87-7.38-5.296 13.332H3.512v1.07h7.5v-1.07h-1.49l1.488-4.167 3.036 5.238 2.916-5.238 1.488 4.167h-1.488v1.07h7.44v-1.07h-1.29z"/></svg>