<svg width="54" height="54" viewBox="0 0 54 54" fill="none" xmlns="http://www.w3.org/2000/svg">
<g clip-path="url(#clip0_2001_1551)">
<g filter="url(#filter0_b_2001_1551)">
<path d="M12.602 50.5286H40.6265C42.9445 50.5286 44.8302 48.6429 44.8302 46.3249V16.7123H35.0216C32.7036 16.7123 30.8179 14.8266 30.8179 12.5086V2.70001H12.602C10.284 2.70001 8.39828 4.58569 8.39828 6.9037V46.3249C8.39828 48.6429 10.284 50.5286 12.602 50.5286ZM18.2069 22.4106H35.0216C35.7961 22.4106 36.4228 23.0373 36.4228 23.8118C36.4228 24.5863 35.7961 25.2131 35.0216 25.2131H18.2069C17.4324 25.2131 16.8056 24.5863 16.8056 23.8118C16.8056 23.0373 17.4324 22.4106 18.2069 22.4106ZM18.2069 28.0155H35.0216C35.7961 28.0155 36.4228 28.6422 36.4228 29.4168C36.4228 30.1913 35.7961 30.818 35.0216 30.818H18.2069C17.4324 30.818 16.8056 30.1913 16.8056 29.4168C16.8056 28.6422 17.4324 28.0155 18.2069 28.0155ZM18.2069 33.6204H35.0216C35.7961 33.6204 36.4228 34.2472 36.4228 35.0217C36.4228 35.7962 35.7961 36.4229 35.0216 36.4229H18.2069C17.4324 36.4229 16.8056 35.7962 16.8056 35.0217C16.8056 34.2472 17.4324 33.6204 18.2069 33.6204ZM18.2069 39.2253H29.4167C30.1912 39.2253 30.8179 39.8521 30.8179 40.6266C30.8179 41.4011 30.1912 42.0278 29.4167 42.0278H18.2069C17.4324 42.0278 16.8056 41.4011 16.8056 40.6266C16.8056 39.8521 17.4324 39.2253 18.2069 39.2253Z" fill="#F7BF18"/>
</g>
<g filter="url(#filter1_b_2001_1551)">
<path d="M35.0216 13.9099H44.0092L33.6204 3.52106V12.5086C33.6204 13.2817 34.2485 13.9099 35.0216 13.9099Z" fill="#F7BF18"/>
</g>
</g>
<defs>
<filter id="filter0_b_2001_1551" x="2.29828" y="-3.39999" width="48.6319" height="60.0286" filterUnits="userSpaceOnUse" color-interpolation-filters="sRGB">
<feFlood flood-opacity="0" result="BackgroundImageFix"/>
<feGaussianBlur in="BackgroundImageFix" stdDeviation="3.05"/>
<feComposite in2="SourceAlpha" operator="in" result="effect1_backgroundBlur_2001_1551"/>
<feBlend mode="normal" in="SourceGraphic" in2="effect1_backgroundBlur_2001_1551" result="shape"/>
</filter>
<filter id="filter1_b_2001_1551" x="27.5204" y="-2.57894" width="22.5888" height="22.5888" filterUnits="userSpaceOnUse" color-interpolation-filters="sRGB">
<feFlood flood-opacity="0" result="BackgroundImageFix"/>
<feGaussianBlur in="BackgroundImageFix" stdDeviation="3.05"/>
<feComposite in2="SourceAlpha" operator="in" result="effect1_backgroundBlur_2001_1551"/>
<feBlend mode="normal" in="SourceGraphic" in2="effect1_backgroundBlur_2001_1551" result="shape"/>
</filter>
<clipPath id="clip0_2001_1551">
<rect width="47.8286" height="47.8286" fill="white" transform="translate(2.69995 2.70001)"/>
</clipPath>
</defs>
</svg>
