<svg width="54" height="54" viewBox="0 0 54 54" fill="none" xmlns="http://www.w3.org/2000/svg">
<g filter="url(#filter0_b_2001_1573)">
<path fill-rule="evenodd" clip-rule="evenodd" d="M26.6142 2.70001C13.407 2.70001 2.69991 13.4071 2.69991 26.6143C2.69991 39.8215 13.407 50.5286 26.6142 50.5286C39.8214 50.5286 50.5285 39.8215 50.5285 26.6143C50.5285 13.4071 39.8214 2.70001 26.6142 2.70001ZM22.2661 13.5701C21.6896 13.5701 21.1366 13.7992 20.7289 14.2069C20.3212 14.6146 20.0921 15.1676 20.0921 15.7442V24.4403H17.9181C17.3415 24.4403 16.7885 24.6693 16.3808 25.077C15.9731 25.4847 15.7441 26.0377 15.7441 26.6143C15.7441 27.1909 15.9731 27.7439 16.3808 28.1516C16.7885 28.5593 17.3415 28.7883 17.9181 28.7883H20.0921V33.1364H17.9181C17.3415 33.1364 16.7885 33.3654 16.3808 33.7731C15.9731 34.1808 15.7441 34.7338 15.7441 35.3104C15.7441 35.887 15.9731 36.44 16.3808 36.8477C16.7885 37.2554 17.3415 37.4844 17.9181 37.4844H20.0921V39.6585C20.0921 40.235 20.3212 40.788 20.7289 41.1957C21.1366 41.6034 21.6896 41.8325 22.2661 41.8325C22.8427 41.8325 23.3957 41.6034 23.8034 41.1957C24.2111 40.788 24.4402 40.235 24.4402 39.6585V37.4844H28.7882C29.3648 37.4844 29.9178 37.2554 30.3255 36.8477C30.7332 36.44 30.9622 35.887 30.9622 35.3104C30.9622 34.7338 30.7332 34.1808 30.3255 33.7731C29.9178 33.3654 29.3648 33.1364 28.7882 33.1364H24.4402V28.7883H29.8752C30.8745 28.7883 31.8639 28.5915 32.7871 28.2091C33.7103 27.8267 34.5491 27.2662 35.2557 26.5597C35.9622 25.8531 36.5227 25.0143 36.9051 24.0911C37.2875 23.1679 37.4843 22.1785 37.4843 21.1792C37.4843 20.18 37.2875 19.1905 36.9051 18.2674C36.5227 17.3442 35.9622 16.5054 35.2557 15.7988C34.5491 15.0922 33.7103 14.5317 32.7871 14.1494C31.8639 13.767 30.8745 13.5701 29.8752 13.5701H22.2661ZM29.8752 24.4403H24.4402V17.9182H29.8752C30.7401 17.9182 31.5696 18.2618 32.1811 18.8733C32.7927 19.4849 33.1363 20.3144 33.1363 21.1792C33.1363 22.0441 32.7927 22.8736 32.1811 23.4851C31.5696 24.0967 30.7401 24.4403 29.8752 24.4403Z" fill="#F7BF18"/>
</g>
<defs>
<filter id="filter0_b_2001_1573" x="-3.40009" y="-3.39999" width="60.0286" height="60.0286" filterUnits="userSpaceOnUse" color-interpolation-filters="sRGB">
<feFlood flood-opacity="0" result="BackgroundImageFix"/>
<feGaussianBlur in="BackgroundImageFix" stdDeviation="3.05"/>
<feComposite in2="SourceAlpha" operator="in" result="effect1_backgroundBlur_2001_1573"/>
<feBlend mode="normal" in="SourceGraphic" in2="effect1_backgroundBlur_2001_1573" result="shape"/>
</filter>
</defs>
</svg>
