<svg xmlns="http://www.w3.org/2000/svg" width="227" height="40" fill="none" viewBox="0 0 227 40"><path fill="#369" d="M214.673 25.572h4.317q3.22 0 5.489-2.277c1.518-1.515 2.275-3.351 2.275-5.494q.001-3.223-2.275-5.494-2.27-2.281-5.489-2.282h-10.068v20.739h5.751zm0-9.786h4.317q.84 0 1.419.594c.396.396.593.866.593 1.42q0 .841-.593 1.421-.58.594-1.419.594h-4.317zm-25.939-5.761v20.739h17.832v-5.757h-12.08v-2.306h8.258v-4.613h-8.258v-2.302h12.08v-5.761zm-20.666 0v5.761h6.329v14.978h5.752V15.786h6.329v-5.761zm-9.365 20.739q4.288 0 7.314-3.03l-4.07-4.078q-1.351 1.35-3.244 1.351-1.914 0-3.263-1.351-1.344-1.345-1.345-3.262c0-1.267.449-2.346 1.345-3.247q1.35-1.348 3.263-1.346c1.261 0 2.344.445 3.244 1.346l4.07-4.073q-3.026-3.032-7.314-3.034-4.309.002-7.333 3.034-3.027 3.03-3.027 7.32 0 4.304 3.027 7.34 3.024 3.03 7.333 3.03m-24.255-20.739-8.1 20.739h6.172l1.127-2.886h8.026l1.103 2.886h6.157l-7.883-20.74zm3.274 7.424 1.766 4.673h-3.596z"/><path fill="#F7BF18" d="m118.349 10.025-5.345 7.642-5.361-7.642h-5.578v20.739h8.546l1.196-4.536.479-1.817a2.145 2.145 0 1 1 1.435 0l.479 1.817 1.197 4.536h8.545v-20.74z"/><path fill="#369" d="m91.639 10.025-6.256 6.89v-6.89h-6.977a14 14 0 0 1 1.596 1.38q3.735 3.72 3.735 8.99c0 3.512-1.245 6.514-3.735 8.993q-.761.767-1.588 1.376h6.97v-5.277l2.507-2.771 4.766 8.048h6.691l-7.403-12.498 7.477-8.241zm-35.031 0-5.346 7.642-5.36-7.642h-5.578v20.739h5.75V20.31l5.188 7.41 5.173-7.41v10.454h7.19a14 14 0 0 1-1.589-1.376c-2.489-2.48-3.734-5.481-3.734-8.994q0-5.269 3.734-8.988.765-.77 1.596-1.381zm-32.888 0-8.1 20.739h6.172l1.127-2.886h8.026l1.103 2.886h6.156l-7.882-20.74zm3.274 7.424 1.765 4.673h-3.595zM.195 23.486c0 3.832 2.255 7.278 7.419 7.278 5.342 0 8.101-3.357 8.131-6.565.03-1.782-.564-3.534-2.7-4.604 1.602-.831 2.077-2.495 2.077-3.831 0-8.733-14.75-8.882-14.75.445h4.482c0-2.97 5.223-2.851 5.223-.297 0 .802-.653 1.723-1.632 1.723H5.299v4.277h3.146c1.602 0 2.255 1.129 2.255 1.99 0 2.496-5.817 3.03-5.817-.416z"/><path fill="#F7BF18" d="M71.02 24.192c2.095 0 3.794-1.7 3.794-3.798a3.796 3.796 0 0 0-3.794-3.797 3.796 3.796 0 0 0-3.794 3.797 3.796 3.796 0 0 0 3.794 3.798m.63-14.167h-1.235v2.69h1.236zm-4.361 1.023-.285.12.648 1.536.284-.12zm-3.213 2.092-.218.22 1.178 1.178.218-.219zm-2.243 3.275-.116.286 1.543.628.116-.287zm-.793 3.753v.31h1.666v-.31zm.727 3.902.12.285 1.535-.648-.12-.285zm2.091 3.215.218.219 1.178-1.179-.219-.218zm3.271 2.245.286.117.627-1.545-.286-.116zm7.648.067.285-.12-.648-1.536-.285.12zm3.213-2.093.218-.219-1.178-1.178-.219.218zm2.243-3.274.116-.287-1.543-.627-.116.287zm.792-3.753v-.31H79.36v.31zm-.726-3.902-.12-.285-1.535.648.12.285zm-2.091-3.215-.218-.22-1.178 1.18.219.218zm-3.271-2.246-.287-.116-.626 1.544.286.117zm-3.32 16.96H70.38v2.69h1.236z"/><path fill="#F7BF18" d="M60.361 19.704v1.237h2.687v-1.237zm18.629 0v1.237h2.688v-1.237z"/></svg>