<svg xmlns="http://www.w3.org/2000/svg" width="134" height="49" fill="none" viewBox="0 0 134 49"><g fill="#0079C1" clip-path="url(#a)"><path d="M42.858 8.718C41.804 4.13 39.168.4 38.813-.208c-.573.856-2.67 4.15-3.747 7.803-1.157 4.073-1.329 7.687-.928 11.247s1.903 7.214 1.903 7.214c.802 1.92 2.005 3.976 2.784 4.986 1.146-1.485 3.781-5.919 4.606-11.705.458-3.216.47-6.033-.573-10.62M38.813 29.9c-.515-.97-1.317-2.818-1.398-5.673-.023-2.758 1.089-5.119 1.41-5.614.286.495 1.249 2.55 1.363 5.368.069 2.76-.848 4.93-1.375 5.919m3.736-13.398c-.035 1.75-.24 3.596-.516 4.7.103-1.903-.126-4.586-.573-6.68-.435-2.094-1.673-5.595-2.67-7.213-.916 1.541-2.04 4.568-2.635 7.193-.584 2.628-.607 5.805-.607 6.758-.16-.803-.55-3.667-.436-6.548.092-2.376.642-4.815.951-5.937 1.17-3.75 2.487-6.147 2.727-6.527.253.38 1.914 3.33 2.773 6.432.86 3.101 1.032 6.07.986 7.822"/><path d="M40.59 32.11h-7.987v5.345c.011-.007.023-.014.023-.021a4.83 4.83 0 0 1 6.817 0 4.8 4.8 0 0 1 0 6.796c-.011.008-.011.015-.022.022v.002l-.035.026a9.6 9.6 0 0 1-6.783 2.788 9.6 9.6 0 0 1-6.806-2.811c-3.312-3.304-3.701-8.414-1.18-12.146a9.6 9.6 0 0 1 7.986-4.242V15.016c-9.464 0-17.141 7.654-17.141 17.095s7.677 17.094 17.141 17.094c4.938 0 9.384-2.082 12.512-5.411V32.11zm14.654 14.046c0 1.196-.149 3.052-2.555 3.052h-2.842c-2.394 0-2.543-1.856-2.543-3.052V35.168c0-1.198.149-3.054 2.543-3.054h2.842c2.406 0 2.555 1.856 2.555 3.054v2.416h-3.437v-2.787c0-.292-.218-.56-.539-.56-.195 0-.538.12-.538.56v11.657c0 .439.343.561.538.561.321 0 .539-.268.539-.56v-3.742h-.516v-1.881h3.953zm5.156-3.37.585-8.543h.194l.596 8.543zm-3.792 6.422h3.357l.31-4.541h1.615l.32 4.54h3.358L63.78 32.115h-5.385zM66.84 47.06l3.288-12.817h-2.945v-2.129h6.463v2.125l-3.277 12.777h3.483v2.192H66.84zm12.054-5.797v-7.029h.435c.378 0 .642.317.642.855v5.32c0 .536-.264.854-.642.854zm-3.438 7.945h3.438v-5.812h1.959c2.395 0 2.544-1.856 2.544-3.052v-5.176c0-1.198-.15-3.054-2.544-3.054h-5.397zm13.131-8.456v-6.517h.447c.367 0 .63.317.63.854v4.808c0 .537-.263.855-.63.855zm4.95 8.456-1.684-6.666c1.214-.489 1.237-1.613 1.237-2.076v-5.298c0-1.198-.137-3.054-2.544-3.054h-5.385v17.094h3.426v-6.325h.252l1.169 6.325zm6.348-2.754c0 .294-.218.562-.539.562-.195 0-.538-.122-.538-.562V34.797c0-.44.343-.56.538-.56.321 0 .539.268.539.56zm-4.503-.298c0 1.196.149 3.052 2.555 3.052h2.83c2.406 0 2.555-1.856 2.555-3.052V35.168c0-1.198-.149-3.054-2.555-3.054h-2.83c-2.406 0-2.555 1.856-2.555 3.054zm18.699-14.042h4.458v17.094h-3.426v-10.72h-.126l-1.765 10.72h-2.738l-1.765-10.72h-.126v10.72h-3.426V32.114h4.457l2.223 12.015z"/></g><defs><clipPath id="a"><path fill="#fff" d="M0 0h134v49H0z"/></clipPath></defs></svg>