<svg xmlns="http://www.w3.org/2000/svg" width="56" height="22" fill="none" viewBox="0 0 56 22"><g clip-path="url(#a)"><mask id="b" width="56" height="21" x="0" y="0" maskUnits="userSpaceOnUse" style="mask-type:luminance"><path fill="#fff" d="M55.705.962H.43v19.833h55.276z"/></mask><g fill-rule="evenodd" clip-rule="evenodd" mask="url(#b)"><path fill="#0AF" d="M4.192.962 3.25 3.557h13.045l.941-2.595zM2.779 4.854l-.94 2.594h13.044l.941-2.594zM1.37 8.744.429 11.34h13.044l.941-2.594z"/><path fill="#0A2896" d="M28.161 12.327v.055c.596.22 1.166.605 1.464.853.922.77 1.329 1.787 1.329 3.107 0 2.173-1.14 3.74-3.01 4.235-.57.165-1.166.22-2.278.22H20V4.903h5.016c1.03 0 1.735.055 2.358.22 1.817.495 3.01 1.76 3.01 3.767 0 1.073-.38 1.98-1.003 2.585-.27.275-.65.605-1.22.852m-5.016 1.678v4.18h2.17c.65 0 1.246-.055 1.68-.468s.624-.935.624-1.623c0-.522-.136-1.017-.407-1.374-.461-.578-1.03-.716-2.006-.716zm-.027-2.75h1.762c.542 0 .813 0 1.084-.083.733-.22 1.194-.88 1.194-1.787 0-1.072-.488-1.54-1.194-1.76-.298-.082-.596-.11-1.192-.11h-1.654zm12.553 9.542V7.57h-4.527V4.903h12.58L42.83 7.57h-4.014v13.227zm9.029 0V4.903h10.195l-.894 2.667h-6.183v3.52h2.522c2.033 0 3.091.495 3.823 1.127.57.495 1.546 1.595 1.546 3.768 0 2.145-1.004 3.327-1.844 3.932-.976.687-2.006.88-4.094.88zm3.118-2.668h2.36c.894 0 1.436-.22 1.816-.715.19-.247.46-.687.46-1.512s-.27-1.402-.812-1.815c-.326-.247-.76-.384-1.492-.384h-2.332z"/></g></g><defs><clipPath id="a"><path fill="#fff" d="M.429.957h55.428v20.087H.43z"/></clipPath></defs></svg>