<svg xmlns="http://www.w3.org/2000/svg" width="97" height="35" fill="none" viewBox="0 0 97 35"><g clip-path="url(#a)"><mask id="b" width="97" height="35" x="0" y="0" maskUnits="userSpaceOnUse" style="mask-type:luminance"><path fill="#fff" d="M96.734.01H0v34.558h96.734z"/></mask><g fill-rule="evenodd" clip-rule="evenodd" mask="url(#b)"><path fill="#0AF" d="M6.585.01 4.938 4.532h22.828l1.648-4.52zM4.114 6.79l-1.648 4.52h22.829l1.647-4.52zm-2.467 6.781L0 18.091h22.828l1.647-4.52z"/><path fill="#0A2896" d="M48.532 19.814v.095c1.043.384 2.04 1.054 2.561 1.485 1.614 1.342 2.326 3.114 2.326 5.414 0 3.786-1.993 6.517-5.267 7.38-.997.287-2.04.383-3.987.383H34.25V6.878h8.778c1.803 0 3.036.095 4.127.382 3.18.863 5.267 3.067 5.267 6.564 0 1.869-.664 3.45-1.755 4.504a6.7 6.7 0 0 1-2.135 1.486m-8.778 2.922v7.283h3.796c1.137 0 2.182-.096 2.942-.815.759-.719 1.09-1.629 1.09-2.827 0-.91-.237-1.772-.711-2.395-.807-1.006-1.803-1.246-3.511-1.246zm-.048-4.791h3.084c.949 0 1.423 0 1.897-.144 1.283-.384 2.09-1.532 2.09-3.114 0-1.868-.855-2.684-2.09-3.066-.522-.144-1.043-.192-2.087-.192h-2.894zM61.674 34.57V11.524h-7.923V6.878h22.016l-1.565 4.646h-7.023v23.047zm15.8 0V6.878h17.842l-1.565 4.646H82.932v6.133h4.413c3.558 0 5.41.863 6.69 1.965.997.862 2.705 2.779 2.705 6.565 0 3.736-1.756 5.796-3.227 6.85-1.708 1.198-3.51 1.534-7.165 1.534zm5.458-4.648h4.129c1.565 0 2.513-.383 3.178-1.246.332-.43.806-1.198.806-2.635s-.474-2.443-1.423-3.163c-.568-.43-1.328-.67-2.61-.67h-4.08z"/></g></g><defs><clipPath id="a"><path fill="#fff" d="M0 0h97v35H0z"/></clipPath></defs></svg>