<svg width="186" height="33" viewBox="0 0 186 33" fill="none" xmlns="http://www.w3.org/2000/svg">
<g clip-path="url(#clip0_2001_469)">
<path d="M175.454 21.0972H178.972C180.721 21.0972 182.212 20.4723 183.445 19.2187C184.683 17.9693 185.299 16.4542 185.299 14.6861C185.299 12.9138 184.683 11.4031 183.445 10.1535C182.212 8.89988 180.721 8.271 178.972 8.271H170.766V25.3806H175.454V21.0972ZM175.454 13.0242H178.972C179.427 13.0242 179.814 13.1875 180.128 13.5141C180.451 13.8408 180.612 14.2287 180.612 14.6861C180.612 15.1475 180.451 15.5396 180.128 15.858C179.814 16.1847 179.427 16.3481 178.972 16.3481H175.454V13.0242Z" fill="#336699"/>
<path d="M154.314 8.271V25.3806H168.847V20.6316H159.001V18.7288H165.732V14.9229H159.001V13.0242H168.847V8.271H154.314Z" fill="#336699"/>
<path d="M137.471 8.271V13.0242H142.63V25.3806H147.317V13.0242H152.476V8.271H137.471Z" fill="#336699"/>
<path d="M129.84 25.3809C132.169 25.3809 134.156 24.548 135.8 22.8819L132.483 19.517C131.75 20.2603 130.868 20.6319 129.84 20.6319C128.8 20.6319 127.913 20.2603 127.18 19.517C126.45 18.7779 126.084 17.8797 126.084 16.8262C126.084 15.7808 126.45 14.8906 127.18 14.1474C127.913 13.4042 128.8 13.0367 129.84 13.0367C130.868 13.0367 131.75 13.4042 132.483 14.1474L135.8 10.7867C134.156 9.12063 132.169 8.28369 129.84 8.28369C127.498 8.28369 125.507 9.12063 123.863 10.7867C122.219 12.4527 121.397 14.466 121.397 16.8262C121.397 19.1944 122.219 21.2117 123.863 22.8819C125.507 24.548 127.498 25.3809 129.84 25.3809Z" fill="#336699"/>
<path d="M110.073 8.271L103.471 25.3806H108.501L109.42 23H115.961L116.859 25.3806H121.877L115.453 8.271H110.073ZM112.741 14.3962L114.179 18.251H111.249L112.741 14.3962Z" fill="#336699"/>
<path d="M96.9522 8.271L92.5955 14.5758L88.2269 8.271H83.6809V25.3806H90.6453L91.6204 21.6385L92.011 20.1399C91.3339 19.8963 90.8488 19.2413 90.8488 18.4718C90.8488 17.4943 91.6308 16.702 92.5955 16.702C93.5603 16.702 94.3423 17.4943 94.3423 18.4718C94.3423 19.2413 93.8572 19.8963 93.1802 20.1399L93.5707 21.6385L94.5457 25.3806H101.51V8.271H96.9522Z" fill="#F7BF18"/>
<path d="M75.1836 8.271L70.0855 13.9552V8.271H64.3995C64.8509 8.60741 65.2845 8.98712 65.7002 9.41037C67.7289 11.456 68.7435 13.928 68.7435 16.8259C68.7435 19.7238 67.7289 22.2005 65.7002 24.2459C65.2862 24.6675 64.8547 25.0454 64.4054 25.3806H70.0855V21.0277L72.1289 18.7409L76.0138 25.3806H81.4667L75.4335 15.07L81.5271 8.271H75.1836ZM46.6341 8.271L42.2775 14.5758L37.9089 8.271H33.3629V25.3806H38.0499V16.7564L42.2775 22.8693L46.4931 16.7564V25.3806H52.3529C51.9036 25.0454 51.472 24.6675 51.0579 24.2459C49.0296 22.2005 48.015 19.7238 48.015 16.8259C48.015 13.928 49.0296 11.456 51.0579 9.41037C51.4736 8.98712 51.9074 8.60741 52.3588 8.271H46.6341Z" fill="#336699"/>
<path d="M19.8315 8.271L13.2301 25.3806H18.2597L19.1786 23H25.7195L26.6183 25.3806H31.6358L25.2118 8.271H19.8315ZM22.4994 14.3962L23.9383 18.251H21.0082L22.4994 14.3962Z" fill="#336699"/>
<path d="M0.65863 19.3767C0.65863 22.5381 2.49664 25.3805 6.70498 25.3805C11.0584 25.3805 13.3077 22.6115 13.3319 19.9649C13.356 18.4946 12.8723 17.0488 11.131 16.1666C12.437 15.4804 12.8239 14.1081 12.8239 13.0054C12.8239 5.80078 0.803686 5.67829 0.803686 13.3729H4.45576C4.45576 10.9224 8.71247 11.0205 8.71247 13.1279C8.71247 13.7896 8.18029 14.5493 7.38222 14.5493H4.81846V18.078H7.38222C8.68825 18.078 9.22023 19.0092 9.22023 19.7199C9.22023 21.7784 4.47991 22.2194 4.47991 19.3767H0.65863Z" fill="#336699"/>
<path d="M58.3795 19.9588C60.0871 19.9588 61.4714 18.5563 61.4714 16.8261C61.4714 15.0959 60.0871 13.6934 58.3795 13.6934C56.6719 13.6934 55.2876 15.0959 55.2876 16.8261C55.2876 18.5563 56.6719 19.9588 58.3795 19.9588Z" fill="#F7BF18"/>
<path d="M58.894 8.271H57.8867V10.4898H58.894V8.271Z" fill="#F7BF18"/>
<path d="M55.3387 9.11506L55.1066 9.21436L55.6346 10.4813L55.8667 10.382L55.3387 9.11506Z" fill="#F7BF18"/>
<path d="M52.7209 10.8415L52.5428 11.022L53.5025 11.9944L53.6807 11.8139L52.7209 10.8415Z" fill="#F7BF18"/>
<path d="M50.8929 13.5428L50.7981 13.7793L52.0555 14.2969L52.1504 14.0604L50.8929 13.5428Z" fill="#F7BF18"/>
<path d="M50.2466 16.6388L50.2466 16.894L51.6039 16.894L51.6039 16.6388L50.2466 16.6388Z" fill="#F7BF18"/>
<path d="M50.839 19.8586L50.937 20.0938L52.1874 19.5588L52.0894 19.3237L50.839 19.8586Z" fill="#F7BF18"/>
<path d="M52.5428 22.5109L52.7209 22.6914L53.6807 21.719L53.5025 21.5385L52.5428 22.5109Z" fill="#F7BF18"/>
<path d="M55.2085 24.3629L55.4419 24.459L55.9528 23.1849L55.7193 23.0888L55.2085 24.3629Z" fill="#F7BF18"/>
<path d="M61.4417 24.4177L61.6738 24.3184L61.1459 23.0514L60.9138 23.1507L61.4417 24.4177Z" fill="#F7BF18"/>
<path d="M64.0595 22.6917L64.2376 22.5112L63.2779 21.5388L63.0997 21.7193L64.0595 22.6917Z" fill="#F7BF18"/>
<path d="M65.8881 19.9909L65.9829 19.7544L64.7254 19.2368L64.6306 19.4733L65.8881 19.9909Z" fill="#F7BF18"/>
<path d="M66.5339 16.894V16.6387L65.1766 16.6387V16.894L66.5339 16.894Z" fill="#F7BF18"/>
<path d="M65.9418 13.6751L65.8438 13.4399L64.5934 13.9749L64.6914 14.21L65.9418 13.6751Z" fill="#F7BF18"/>
<path d="M64.2381 11.0223L64.0599 10.8418L63.1002 11.8142L63.2783 11.9947L64.2381 11.0223Z" fill="#F7BF18"/>
<path d="M61.5719 9.1703L61.3385 9.07422L60.8276 10.3483L61.0611 10.4444L61.5719 9.1703Z" fill="#F7BF18"/>
<path d="M58.8661 23.1621H57.8588V25.3809H58.8661V23.1621Z" fill="#F7BF18"/>
<path d="M49.6933 16.2563L49.6933 17.2769L51.8831 17.2769L51.8831 16.2563L49.6933 16.2563Z" fill="#F7BF18"/>
<path d="M64.8757 16.2563L64.8757 17.2769L67.0656 17.2769L67.0656 16.2563L64.8757 16.2563Z" fill="#F7BF18"/>
</g>
<defs>
<clipPath id="clip0_2001_469">
<rect width="185" height="33" fill="white" transform="translate(0.5)"/>
</clipPath>
</defs>
</svg>
