<svg width="275" height="49" viewBox="0 0 275 49" fill="none" xmlns="http://www.w3.org/2000/svg">
<path d="M260.066 31.3262H265.296C267.896 31.3262 270.113 30.3983 271.946 28.5369C273.785 26.6818 274.702 24.4321 274.702 21.8067C274.702 19.1752 273.785 16.9319 271.946 15.0764C270.113 13.215 267.896 12.2812 265.296 12.2812H253.099V37.6865H260.066V31.3262ZM260.066 19.339H265.296C265.973 19.339 266.548 19.5815 267.015 20.0665C267.495 20.5515 267.734 21.1276 267.734 21.8067C267.734 22.4918 267.495 23.074 267.015 23.5468C266.548 24.0318 265.973 24.2746 265.296 24.2746H260.066V19.339Z" fill="#336699"/>
<path d="M228.643 12.2812V37.6865H250.246V30.6349H235.61V27.8095H245.615V22.1582H235.61V19.339H250.246V12.2812H228.643Z" fill="#336699"/>
<path d="M203.606 12.2812V19.339H211.274V37.6865H218.242V19.339H225.91V12.2812H203.606Z" fill="#336699"/>
<path d="M192.262 37.6866C195.724 37.6866 198.678 36.4498 201.122 33.9759L196.192 28.9796C195.101 30.0833 193.79 30.635 192.262 30.635C190.716 30.635 189.398 30.0833 188.308 28.9796C187.224 27.8822 186.678 26.5485 186.678 24.9841C186.678 23.4319 187.224 22.11 188.308 21.0065C189.398 19.903 190.716 19.3573 192.262 19.3573C193.79 19.3573 195.101 19.903 196.192 21.0065L201.122 16.0164C198.678 13.5425 195.724 12.2998 192.262 12.2998C188.781 12.2998 185.822 13.5425 183.377 16.0164C180.933 18.4902 179.711 21.4796 179.711 24.9841C179.711 28.5006 180.933 31.4959 183.377 33.9759C185.822 36.4498 188.781 37.6866 192.262 37.6866Z" fill="#336699"/>
<path d="M162.878 12.2812L153.065 37.6865H160.542L161.908 34.1516H171.631L172.967 37.6865H180.425L170.876 12.2812H162.878ZM166.844 21.3762L168.983 27.1H164.627L166.844 21.3762Z" fill="#336699"/>
<path d="M143.375 12.2812L136.899 21.643L130.405 12.2812H123.647V37.6865H134L135.449 32.1299L136.03 29.9048C135.023 29.5431 134.302 28.5706 134.302 27.4278C134.302 25.9765 135.465 24.8 136.899 24.8C138.333 24.8 139.495 25.9765 139.495 27.4278C139.495 28.5706 138.774 29.5431 137.768 29.9048L138.348 32.1299L139.798 37.6865H150.151V12.2812H143.375Z" fill="#F7BF18"/>
<path d="M111.016 12.2812L103.438 20.7214V12.2812H94.9857C95.6567 12.7808 96.3012 13.3446 96.9191 13.973C99.9348 17.0105 101.443 20.6811 101.443 24.984C101.443 29.2869 99.9348 32.9644 96.9191 36.0016C96.3038 36.6275 95.6624 37.1887 94.9944 37.6865H103.438V31.223L106.475 27.8275L112.25 37.6865H120.356L111.388 22.3768L120.446 12.2812H111.016ZM68.5778 12.2812L62.1016 21.643L55.6077 12.2812H48.8502V37.6865H55.8174V24.8808L62.1016 33.9575L68.3681 24.8808V37.6865H77.0786C76.4107 37.1887 75.7691 36.6275 75.1537 36.0016C72.1385 32.9644 70.6304 29.2869 70.6304 24.984C70.6304 20.6811 72.1385 17.0105 75.1537 13.973C75.7716 13.3446 76.4163 12.7808 77.0873 12.2812H68.5778Z" fill="#336699"/>
<path d="M28.7359 12.2812L18.9231 37.6865H26.3995L27.7655 34.1516H37.4884L38.8244 37.6865H46.2829L36.7337 12.2812H28.7359ZM32.7018 21.3762L34.8406 27.1H30.4851L32.7018 21.3762Z" fill="#336699"/>
<path d="M0.235779 28.7715C0.235779 33.4655 2.96796 37.6861 9.2236 37.6861C15.695 37.6861 19.0384 33.5747 19.0744 29.6448C19.1103 27.4616 18.3912 25.3148 15.8028 24.0049C17.7442 22.986 18.3193 20.9483 18.3193 19.311C18.3193 8.61323 0.451402 8.43133 0.451402 19.8567H5.88016C5.88016 16.2181 12.2077 16.3637 12.2077 19.4929C12.2077 20.4754 11.4166 21.6034 10.2303 21.6034H6.41931V26.8431H10.2303C12.1717 26.8431 12.9625 28.2258 12.9625 29.281C12.9625 32.3375 5.91606 32.9923 5.91606 28.7715H0.235779Z" fill="#336699"/>
<path d="M86.037 29.6353C88.5753 29.6353 90.633 27.5527 90.633 24.9837C90.633 22.4146 88.5753 20.332 86.037 20.332C83.4987 20.332 81.441 22.4146 81.441 24.9837C81.441 27.5527 83.4987 29.6353 86.037 29.6353Z" fill="#F7BF18"/>
<path d="M86.8018 12.2812H85.3045V15.5759H86.8018V12.2812Z" fill="#F7BF18"/>
<path d="M81.517 13.5342L81.1719 13.6816L81.9567 15.5628L82.3017 15.4154L81.517 13.5342Z" fill="#F7BF18"/>
<path d="M77.6257 16.0982L77.3608 16.3662L78.7875 17.8101L79.0523 17.5421L77.6257 16.0982Z" fill="#F7BF18"/>
<path d="M74.9083 20.1088L74.7673 20.46L76.6366 21.2285L76.7775 20.8773L74.9083 20.1088Z" fill="#F7BF18"/>
<path d="M73.9476 24.7059L73.9476 25.085L75.9652 25.085L75.9652 24.7059L73.9476 24.7059Z" fill="#F7BF18"/>
<path d="M74.8281 29.4867L74.9738 29.8359L76.8325 29.0417L76.6868 28.6925L74.8281 29.4867Z" fill="#F7BF18"/>
<path d="M77.3608 33.4253L77.6257 33.6934L79.0523 32.2495L78.7875 31.9814L77.3608 33.4253Z" fill="#F7BF18"/>
<path d="M81.3234 36.1757L81.6703 36.3184L82.4297 34.4265L82.0827 34.2839L81.3234 36.1757Z" fill="#F7BF18"/>
<path d="M90.589 36.2568L90.934 36.1094L90.1492 34.2282L89.8042 34.3756L90.589 36.2568Z" fill="#F7BF18"/>
<path d="M94.4802 33.6938L94.7451 33.4258L93.3184 31.9819L93.0536 32.2499L94.4802 33.6938Z" fill="#F7BF18"/>
<path d="M97.1985 29.6832L97.3394 29.332L95.4702 28.5635L95.3292 28.9146L97.1985 29.6832Z" fill="#F7BF18"/>
<path d="M98.1584 25.0851L98.1584 24.7061L96.1408 24.7061L96.1408 25.0851L98.1584 25.0851Z" fill="#F7BF18"/>
<path d="M97.2784 20.3053L97.1327 19.9561L95.274 20.7503L95.4197 21.0995L97.2784 20.3053Z" fill="#F7BF18"/>
<path d="M94.7458 16.3667L94.481 16.0986L93.0543 17.5425L93.3191 17.8106L94.7458 16.3667Z" fill="#F7BF18"/>
<path d="M90.7825 13.6163L90.4355 13.4736L89.6762 15.3655L90.0231 15.5081L90.7825 13.6163Z" fill="#F7BF18"/>
<path d="M86.7604 34.3926H85.2631V37.6872H86.7604V34.3926Z" fill="#F7BF18"/>
<path d="M73.1251 24.1379L73.1251 25.6533L76.3802 25.6533L76.3802 24.1379L73.1251 24.1379Z" fill="#F7BF18"/>
<path d="M95.6936 24.1379L95.6936 25.6533L98.9488 25.6533L98.9488 24.1379L95.6936 24.1379Z" fill="#F7BF18"/>
</svg>
