<svg width="42" height="42" viewBox="0 0 42 42" fill="none" xmlns="http://www.w3.org/2000/svg">
<circle cx="21" cy="21" r="18" fill="#336699" stroke="#F3F4F8" stroke-width="6"/>
<path d="M20.16 24.432L19.584 13.2H23.136L22.536 24.432H20.16ZM21.36 30.168C20.8 30.168 20.336 29.984 19.968 29.616C19.6 29.248 19.416 28.808 19.416 28.296C19.416 27.784 19.6 27.352 19.968 27C20.336 26.632 20.8 26.448 21.36 26.448C21.92 26.448 22.376 26.632 22.728 27C23.08 27.352 23.256 27.784 23.256 28.296C23.256 28.808 23.08 29.248 22.728 29.616C22.376 29.984 21.92 30.168 21.36 30.168Z" fill="white"/>
</svg>
