<svg width="14" height="16" viewBox="0 0 14 16" fill="none" xmlns="http://www.w3.org/2000/svg">
<path d="M12.3333 6.33333C12.3333 10.3333 6.99996 14.3333 6.99996 14.3333C6.99996 14.3333 1.66663 10.3333 1.66663 6.33333C1.66663 4.91885 2.22853 3.56229 3.22872 2.5621C4.22892 1.5619 5.58547 1 6.99996 1C8.41445 1 9.771 1.5619 10.7712 2.5621C11.7714 3.56229 12.3333 4.91885 12.3333 6.33333Z" stroke="#336699" stroke-width="1.5" stroke-linecap="round" stroke-linejoin="round"/>
<path d="M7 8.33337C8.10457 8.33337 9 7.43794 9 6.33337C9 5.2288 8.10457 4.33337 7 4.33337C5.89543 4.33337 5 5.2288 5 6.33337C5 7.43794 5.89543 8.33337 7 8.33337Z" stroke="#336699" stroke-width="1.5" stroke-linecap="round" stroke-linejoin="round"/>
</svg>
