<svg width="155" height="26" viewBox="0 0 155 26" fill="none" xmlns="http://www.w3.org/2000/svg">
<path d="M146.583 16.6216H149.53C150.996 16.6216 152.245 16.1292 153.278 15.1416C154.315 14.1572 154.832 12.9635 154.832 11.5704C154.832 10.1741 154.315 8.9838 153.278 7.99926C152.245 7.01159 150.996 6.51611 149.53 6.51611H142.656V19.9964H146.583V16.6216ZM146.583 10.2611H149.53C149.912 10.2611 150.236 10.3897 150.499 10.6471C150.77 10.9044 150.905 11.2101 150.905 11.5704C150.905 11.934 150.77 12.2429 150.499 12.4938C150.236 12.7511 149.912 12.8799 149.53 12.8799H146.583V10.2611Z" fill="#336699"/>
<path d="M128.871 6.51611V19.9964H141.048V16.2548H132.798V14.7556H138.437V11.757H132.798V10.2611H141.048V6.51611H128.871Z" fill="#336699"/>
<path d="M114.76 6.51611V10.2611H119.082V19.9964H123.009V10.2611H127.331V6.51611H114.76Z" fill="#336699"/>
<path d="M108.366 19.9964C110.317 19.9964 111.982 19.3401 113.36 18.0275L110.581 15.3764C109.966 15.962 109.227 16.2548 108.366 16.2548C107.495 16.2548 106.752 15.962 106.137 15.3764C105.526 14.7941 105.219 14.0864 105.219 13.2563C105.219 12.4327 105.526 11.7313 106.137 11.1457C106.752 10.5602 107.495 10.2707 108.366 10.2707C109.227 10.2707 109.966 10.5602 110.581 11.1457L113.36 8.49793C111.982 7.18528 110.317 6.52588 108.366 6.52588C106.404 6.52588 104.736 7.18528 103.358 8.49793C101.98 9.81057 101.292 11.3968 101.292 13.2563C101.292 15.1222 101.98 16.7116 103.358 18.0275C104.736 19.3401 106.404 19.9964 108.366 19.9964Z" fill="#336699"/>
<path d="M91.804 6.51611L86.2731 19.9964H90.4871L91.2571 18.1208H96.7373L97.4902 19.9964H101.694L96.3118 6.51611H91.804ZM94.0394 11.342L95.2448 14.3791H92.79L94.0394 11.342Z" fill="#336699"/>
<path d="M80.8113 6.51611L77.1611 11.4836L73.5009 6.51611H69.6921V19.9964H75.5272L76.3441 17.0481L76.6714 15.8674C76.1041 15.6755 75.6976 15.1594 75.6976 14.5531C75.6976 13.783 76.3529 13.1587 77.1611 13.1587C77.9694 13.1587 78.6246 13.783 78.6246 14.5531C78.6246 15.1594 78.2182 15.6755 77.6509 15.8674L77.9782 17.0481L78.7951 19.9964H84.6303V6.51611H80.8113Z" fill="#F7BF18"/>
<path d="M62.5727 6.51611L58.3014 10.9946V6.51611H53.5374C53.9156 6.78117 54.2789 7.08033 54.6272 7.4138C56.3269 9.0255 57.177 10.9732 57.177 13.2563C57.177 15.5395 56.3269 17.4909 54.6272 19.1024C54.2804 19.4345 53.9188 19.7323 53.5423 19.9964H58.3014V16.5668L60.0134 14.7651L63.2683 19.9964H67.837L62.7821 11.8729L67.8875 6.51611H62.5727ZM38.6529 6.51611L35.0028 11.4836L31.3426 6.51611H27.5338V19.9964H31.4607V13.2016L35.0028 18.0178L38.5347 13.2016V19.9964H43.4444C43.0679 19.7323 42.7062 19.4345 42.3594 19.1024C40.6599 17.4909 39.8099 15.5395 39.8099 13.2563C39.8099 10.9732 40.6599 9.0255 42.3594 7.4138C42.7076 7.08033 43.0711 6.78117 43.4493 6.51611H38.6529Z" fill="#336699"/>
<path d="M16.1966 6.51611L10.6657 19.9964H14.8797L15.6496 18.1208H21.1298L21.8828 19.9964H26.0867L20.7044 6.51611H16.1966ZM18.4319 11.342L19.6374 14.3791H17.1825L18.4319 11.342Z" fill="#336699"/>
<path d="M0.132889 15.2662C0.132889 17.7569 1.67285 19.9964 5.19875 19.9964C8.84625 19.9964 10.7307 17.8148 10.751 15.7296C10.7713 14.5711 10.366 13.432 8.90701 12.737C10.0013 12.1963 10.3254 11.1151 10.3254 10.2463C10.3254 4.56997 0.254422 4.47346 0.254422 10.5359H3.31427C3.31427 8.60522 6.8807 8.68245 6.8807 10.3429C6.8807 10.8642 6.43482 11.4627 5.76617 11.4627H3.61815V14.243H5.76617C6.86041 14.243 7.30612 14.9766 7.30612 15.5365C7.30612 17.1584 3.3345 17.5058 3.3345 15.2662H0.132889Z" fill="#336699"/>
<path d="M48.4936 15.7246C49.9243 15.7246 51.0841 14.6196 51.0841 13.2564C51.0841 11.8933 49.9243 10.7882 48.4936 10.7882C47.0629 10.7882 45.9031 11.8933 45.9031 13.2564C45.9031 14.6196 47.0629 15.7246 48.4936 15.7246Z" fill="#F7BF18"/>
<path d="M48.9246 6.51611H48.0807V8.26427H48.9246V6.51611Z" fill="#F7BF18"/>
<path d="M45.9459 7.18135L45.7515 7.25958L46.1938 8.25776L46.3883 8.17953L45.9459 7.18135Z" fill="#F7BF18"/>
<path d="M43.7527 8.5415L43.6034 8.68372L44.4075 9.44987L44.5568 9.30765L43.7527 8.5415Z" fill="#F7BF18"/>
<path d="M42.2211 10.6696L42.1416 10.8559L43.1952 11.2637L43.2746 11.0774L42.2211 10.6696Z" fill="#F7BF18"/>
<path d="M41.6796 13.109L41.6796 13.3101L42.8167 13.3101L42.8167 13.109L41.6796 13.109Z" fill="#F7BF18"/>
<path d="M42.1758 15.6456L42.2579 15.8309L43.3056 15.4095L43.2235 15.2242L42.1758 15.6456Z" fill="#F7BF18"/>
<path d="M43.6034 17.7355L43.7526 17.8777L44.5567 17.1115L44.4075 16.9693L43.6034 17.7355Z" fill="#F7BF18"/>
<path d="M45.8368 19.1947L46.0324 19.2704L46.4604 18.2666L46.2648 18.1909L45.8368 19.1947Z" fill="#F7BF18"/>
<path d="M51.0593 19.2378L51.2537 19.1596L50.8114 18.1614L50.6169 18.2397L51.0593 19.2378Z" fill="#F7BF18"/>
<path d="M53.2525 17.8776L53.4017 17.7354L52.5976 16.9693L52.4484 17.1115L53.2525 17.8776Z" fill="#F7BF18"/>
<path d="M54.7846 15.7496L54.864 15.5633L53.8105 15.1555L53.731 15.3418L54.7846 15.7496Z" fill="#F7BF18"/>
<path d="M55.3256 13.3101L55.3256 13.109L54.1885 13.109L54.1885 13.3101L55.3256 13.3101Z" fill="#F7BF18"/>
<path d="M54.8296 10.7735L54.7475 10.5882L53.6999 11.0096L53.782 11.1949L54.8296 10.7735Z" fill="#F7BF18"/>
<path d="M53.4021 8.68378L53.2529 8.54156L52.4488 9.30772L52.598 9.44994L53.4021 8.68378Z" fill="#F7BF18"/>
<path d="M51.1683 7.22438L50.9727 7.14868L50.5447 8.15251L50.7403 8.22821L51.1683 7.22438Z" fill="#F7BF18"/>
<path d="M48.9013 18.2483H48.0574V19.9964H48.9013V18.2483Z" fill="#F7BF18"/>
<path d="M41.2159 12.8076L41.2159 13.6117L43.0507 13.6117L43.0507 12.8076L41.2159 12.8076Z" fill="#F7BF18"/>
<path d="M53.9364 12.8076L53.9364 13.6117L55.7711 13.6117L55.7711 12.8076L53.9364 12.8076Z" fill="#F7BF18"/>
</svg>
