<svg width="14" height="14" viewBox="0 0 14 14" fill="none" xmlns="http://www.w3.org/2000/svg">
<path d="M13.6669 10.2807V12.2807C13.6677 12.4664 13.6297 12.6502 13.5553 12.8203C13.4809 12.9904 13.3718 13.1431 13.235 13.2686C13.0982 13.3941 12.9367 13.4897 12.7608 13.5492C12.5849 13.6087 12.3985 13.6308 12.2136 13.614C10.1622 13.3911 8.19161 12.6901 6.46028 11.5674C4.8495 10.5438 3.48384 9.17816 2.46028 7.56738C1.3336 5.82819 0.632443 3.84805 0.413614 1.78738C0.396955 1.60303 0.418864 1.41722 0.477948 1.2418C0.537032 1.06637 0.631995 0.905175 0.756792 0.768463C0.881588 0.631751 1.03348 0.522522 1.20281 0.44773C1.37213 0.372939 1.55517 0.334223 1.74028 0.334049H3.74028C4.06382 0.330865 4.37748 0.445435 4.62279 0.656404C4.8681 0.867374 5.02833 1.16035 5.07361 1.48072C5.15803 2.12076 5.31458 2.7492 5.54028 3.35405C5.62998 3.59266 5.64939 3.85199 5.59622 4.1013C5.54305 4.35061 5.41952 4.57946 5.24028 4.76072L4.39361 5.60738C5.34265 7.27641 6.72458 8.65835 8.39361 9.60738L9.24028 8.76072C9.42154 8.58147 9.65038 8.45795 9.89969 8.40478C10.149 8.35161 10.4083 8.37102 10.6469 8.46072C11.2518 8.68642 11.8802 8.84297 12.5203 8.92738C12.8441 8.97307 13.1399 9.13619 13.3513 9.38571C13.5627 9.63524 13.6751 9.95377 13.6669 10.2807Z" fill="#336699"/>
</svg>
