<svg width="28" height="28" viewBox="0 0 28 28" fill="none" xmlns="http://www.w3.org/2000/svg">
<path d="M14.0003 3.43604C6.26837 3.43604 0.00012207 9.76384 0.00012207 17.5697C0.00012207 21.8022 1.82667 24.5626 1.82667 24.5626L26.168 24.5637C26.168 24.5637 27.9998 21.5469 27.9998 17.5694C27.9998 9.76384 21.7316 3.43604 14.0003 3.43604ZM25.1412 22.8419L2.90365 22.8322C2.90365 22.8322 1.71871 20.5882 1.71871 17.5251C1.71871 10.6836 7.23827 5.13702 14.0472 5.13702C20.8559 5.13702 26.3757 10.6833 26.3757 17.5251C26.376 20.6228 25.1412 22.8419 25.1412 22.8419Z" fill="#044186"/>
<path d="M17.9567 7.18925L17.781 7.18895L14.0466 14.5066L10.1779 7.12646L4.88097 20.4589H3.51208V21.5297H11.0113V20.4589H9.52334L11.0113 16.2921L14.0466 21.5297L16.963 16.2921L18.4507 20.4589H16.963V21.5297H24.4024V20.4589H23.1136L17.9567 7.18925Z" fill="#D9251B"/>
</svg>
