<svg xmlns="http://www.w3.org/2000/svg" width="47" height="50" fill="none" viewBox="0 0 47 50"><ellipse cx="23.5" cy="42.5" fill="#369" rx="17.5" ry="7.5"/><g filter="url(#a)"><path fill="#9A9EAE" fill-opacity="0.3" d="M45.468 18.078h-5.402l-1.436-3.6c-1.494-3.71-5.23-6.092-9.366-6.092H17.887c-4.137 0-7.815 2.381-9.366 6.092l-1.494 3.6H1.626c-.575 0-1.092.443-1.092 1.052 0 .055 0 .166.057.221l.517 2.105c.115.443.575.775 1.035.775h1.896c-1.264 1.052-2.011 2.547-2.011 4.153v4.154c0 1.33.517 2.603 1.436 3.655v4.652c0 1.55 1.264 2.769 2.873 2.769H9.21c1.61 0 2.873-1.218 2.873-2.77v-2.768h22.984v2.769c0 1.55 1.264 2.769 2.873 2.769h2.873c1.61 0 2.873-1.218 2.873-2.77v-4.706a5.34 5.34 0 0 0 1.437-3.655v-4.154c0-1.606-.747-3.101-2.011-4.153h1.78c.518 0 .92-.333 1.035-.776l.517-2.104c.115-.554-.23-1.108-.804-1.274 0 .056-.058.056-.172.056m-31.604-1.551c.633-1.606 2.241-2.603 4.023-2.603h11.377c1.781 0 3.39 1.052 4.022 2.603l1.781 4.32H12.083zM9.21 30.538a2.67 2.67 0 0 1-2.873-2.437v-.332c-.115-1.44 1.035-2.658 2.529-2.769h.344c1.724 0 4.31 2.492 4.31 4.154 0 1.66-2.586 1.384-4.31 1.384m28.73 0c-1.724 0-4.31.277-4.31-1.384S36.217 25 37.94 25a2.67 2.67 0 0 1 2.873 2.437v.332c.115 1.44-1.034 2.658-2.528 2.769z"/></g><defs><filter id="a" width="65.9325" height="53.2278" x="-9.46619" y="-1.61389" color-interpolation-filters="sRGB" filterUnits="userSpaceOnUse"><feFlood flood-opacity="0" result="BackgroundImageFix"/><feGaussianBlur in="BackgroundImageFix" stdDeviation="5"/><feComposite in2="SourceAlpha" operator="in" result="effect1_backgroundBlur_135_1984"/><feBlend in="SourceGraphic" in2="effect1_backgroundBlur_135_1984" result="shape"/></filter></defs></svg>