<svg xmlns="http://www.w3.org/2000/svg" width="46" height="46" fill="none" viewBox="0 0 46 46"><ellipse cx="18.5" cy="38.5" fill="#369" rx="17.5" ry="7.5"/><g fill="#9A9EAE" fill-opacity="0.3" clip-path="url(#a)" filter="url(#b)"><path d="M26.746 18.69c1.078-.245 2.072-1.196 2.234-3.305.134-1.725-.281-2.614-.894-3.067 1.7-7.394-2.99-8.842-2.99-8.842s-3.504-6.343-10.343-1.892c-.87.566-2.222 1.65-3.028 2.77-1.293 1.469-2.174 3.856-2.312 7.721-.835.34-1.491 1.2-1.328 3.31.17 2.204 1.249 3.142 2.383 3.334 1.531 3.979 4.555 7.257 8.133 7.257 3.586 0 6.616-3.294 8.145-7.285M18.6 24.122c-4.137 0-7.469-5.993-7.469-10.955q0-1.02.06-1.896c6.051.282 9.63-2.306 11.578-4.551 1.848 1.964 2.807 4.445 3.298 6.286v.16c.002 4.963-3.329 10.956-7.467 10.956m-1.557 4.775C15.51 27.695 14.086 26.294 12.62 25l-2.604.65A9.94 9.94 0 0 0 2.5 35.285v3.596c0 1.178.982 2.117 2.157 2.117H15.68c.24-1.464 1.364-11.803 1.364-12.103m9.985-3.247L24.46 25l-4.274 3.78q-.07.06-.143.117c.162.16.28.37.336.613l.478 2.115c.042.183.044.374.006.558a1.3 1.3 0 0 1-.221.505 1.2 1.2 0 0 1-.406.351 1.1 1.1 0 0 1-.509.128L21.408 41h11.023c1.175 0 2.069-.938 2.069-2.117v-3.596c.002-4.558-3.062-8.531-7.471-9.638"/><path d="M15.68 41h5.728l-1.68-7.834a1.1 1.1 0 0 0 .508-.128c.158-.083.297-.203.406-.351a1.33 1.33 0 0 0 .215-1.062l-.478-2.116a1.26 1.26 0 0 0-.336-.613c-.913.8-2.38.333-3 0 0 .3-1.122 10.639-1.363 12.103"/></g><defs><clipPath id="a"><rect width="38" height="40" fill="#fff" rx="19"/></clipPath><filter id="b" width="44.2" height="53.2" x="-3.6" y="-6.1" color-interpolation-filters="sRGB" filterUnits="userSpaceOnUse"><feFlood flood-opacity="0" result="BackgroundImageFix"/><feGaussianBlur in="BackgroundImageFix" stdDeviation="3.05"/><feComposite in2="SourceAlpha" operator="in" result="effect1_backgroundBlur_135_2002"/><feBlend in="SourceGraphic" in2="effect1_backgroundBlur_135_2002" result="shape"/></filter></defs></svg>