<svg width="47" height="50" viewBox="0 0 47 50" fill="none" xmlns="http://www.w3.org/2000/svg">
<ellipse cx="23.5" cy="42.5" rx="17.5" ry="7.5" fill="#336699"/>
<g filter="url(#filter0_b_135_1984)">
<path d="M45.4675 18.0775H40.0662L38.6297 14.4779C37.1358 10.7674 33.4009 8.38611 29.2638 8.38611H17.8867C13.7496 8.38611 10.0722 10.7674 8.52074 14.4779L7.02678 18.0775H1.62555C1.05095 18.0775 0.533813 18.5206 0.533813 19.1298C0.533813 19.1851 0.533814 19.2959 0.591274 19.3513L1.10841 21.4557C1.22333 21.8987 1.68301 22.231 2.14269 22.231H4.03887C2.77475 23.2832 2.02777 24.7785 2.02777 26.3845V30.538C2.02777 31.8671 2.54491 33.1408 3.46427 34.193V38.8449C3.46427 40.3955 4.72839 41.6139 6.33727 41.6139H9.21026C10.8191 41.6139 12.0833 40.3955 12.0833 38.8449V36.0759H35.0672V38.8449C35.0672 40.3955 36.3313 41.6139 37.9402 41.6139H40.8132C42.4221 41.6139 43.6862 40.3955 43.6862 38.8449V34.1376C44.6056 33.1408 45.1227 31.8671 45.1227 30.4826V26.3291C45.1227 24.7231 44.3757 23.2278 43.1116 22.1756H44.8929C45.41 22.1756 45.8122 21.8434 45.9271 21.4003L46.4443 19.2959C46.5592 18.7421 46.2144 18.1883 45.6398 18.0222C45.6398 18.0775 45.5824 18.0775 45.4675 18.0775ZM13.8645 16.5269C14.4966 14.9209 16.1054 13.9241 17.8867 13.9241H29.2638C31.045 13.9241 32.6539 14.9763 33.286 16.5269L35.0672 20.8465H12.0833L13.8645 16.5269ZM9.21026 30.538C7.7163 30.6487 6.45218 29.5411 6.33727 28.1012V27.769C6.22235 26.3291 7.37154 25.1107 8.8655 25H9.21026C10.9341 25 13.5198 27.4921 13.5198 29.1535C13.5198 30.8148 10.9341 30.538 9.21026 30.538ZM37.9402 30.538C36.2164 30.538 33.6307 30.8148 33.6307 29.1535C33.6307 27.4921 36.2164 25 37.9402 25C39.4342 24.8892 40.6983 25.9968 40.8132 27.4367V27.769C40.9281 29.2088 39.7789 30.4272 38.285 30.538H37.9402Z" fill="#9A9EAE" fill-opacity="0.3"/>
</g>
<defs>
<filter id="filter0_b_135_1984" x="-9.46619" y="-1.61389" width="65.9325" height="53.2278" filterUnits="userSpaceOnUse" color-interpolation-filters="sRGB">
<feFlood flood-opacity="0" result="BackgroundImageFix"/>
<feGaussianBlur in="BackgroundImageFix" stdDeviation="5"/>
<feComposite in2="SourceAlpha" operator="in" result="effect1_backgroundBlur_135_1984"/>
<feBlend mode="normal" in="SourceGraphic" in2="effect1_backgroundBlur_135_1984" result="shape"/>
</filter>
</defs>
</svg>
