<svg xmlns="http://www.w3.org/2000/svg" width="69" height="12" fill="none" viewBox="0 0 69 12"><path fill="#73788A" fill-opacity="0.2" d="M.898.613H2.17l2.728 8.064L8.137.064l3.068 8.613L14.227.613h1.271l-4.34 11.322-3.037-8.613-3.255 8.613zm21.42 0v1.129h-4.216v3.193h4.092v1.13h-4.092v4.177h4.215v1.129h-5.362V.613zm2.107 0h1.86q1.55 0 2.372.677.93.743.93 2.226 0 1.388-1.023 2.113.99.258 1.48 1.04.488.783.488 1.67 0 .726-.302 1.338a2.9 2.9 0 0 1-.752.984q-.868.71-2.48.71h-2.573zm1.147 1.129v3.597h.868q.233 0 .45-.025.216-.024.519-.129a1.8 1.8 0 0 0 .527-.282q.224-.178.38-.532a2 2 0 0 0 .155-.823q0-.5-.186-.863-.187-.363-.419-.54a1.7 1.7 0 0 0-.558-.274 3 3 0 0 0-.496-.113 4 4 0 0 0-.34-.016zm0 4.661v3.839h1.318q1.255 0 1.813-.452.682-.516.682-1.484 0-1.08-.884-1.58-.558-.324-1.75-.323zm12.6-4.29-.914.629a2.5 2.5 0 0 0-.604-.807q-.465-.37-1.163-.37-.775 0-1.255.459-.48.46-.48 1.201 0 .549.387.936.31.322 1.085.678l.992.451q1.1.5 1.596 1.016.744.774.744 1.952 0 1.467-.93 2.387t-2.34.92q-1.395 0-2.248-.872-.697-.71-.96-1.903l1.115-.322q.11.806.62 1.37.575.597 1.488.597.993 0 1.535-.62.542-.622.542-1.509 0-.774-.511-1.258-.295-.29-1.24-.742l-.93-.451q-.945-.452-1.38-.888-.712-.71-.712-1.757 0-1.242.813-2.009.815-.765 2.085-.766.96 0 1.658.484.636.435 1.008 1.194m3.643-1.5v4.37h5.3V.614h1.147V11.37h-1.147V6.113h-5.3v5.258h-1.147V.613zM59.57 9.968q-1.558 1.596-3.821 1.596t-3.82-1.596T50.37 6q0-2.388 1.565-3.976Q53.501.434 55.748.435q2.248 0 3.813 1.589Q61.127 3.612 61.126 6q0 2.37-1.557 3.968m-.845-7.113q-1.224-1.29-2.976-1.29t-2.976 1.29T51.548 6t1.224 3.145 2.976 1.29 2.976-1.29T59.948 6t-1.224-3.145m4.51-2.242h1.875q1.767 0 2.604.758.945.839.945 2.306 0 1.259-.813 2.137-.815.88-2.457.88h-1.007v4.677h-1.147zm1.147 1.129v3.822h.945q1.023 0 1.605-.516.58-.516.58-1.435 0-1.871-2.278-1.871z"/><path fill="#73788A" d="M.004.627h1.27l2.729 8.065L7.242.079l3.068 8.613L13.333.627h1.27l-4.34 11.323-3.037-8.613-3.254 8.613zm21.419 0v1.13h-4.216V4.95H21.3v1.13h-4.092v4.176h4.216v1.13H16.06V.626zm2.108 0h1.86q1.55 0 2.371.678.93.741.93 2.225 0 1.388-1.023 2.114.992.257 1.48 1.04a3.1 3.1 0 0 1 .488 1.67q0 .725-.302 1.338a2.9 2.9 0 0 1-.752.984q-.867.71-2.48.71h-2.572zm1.147 1.13v3.596h.868q.232 0 .45-.024.216-.025.518-.129a1.8 1.8 0 0 0 .527-.282q.225-.178.38-.532t.155-.823q0-.499-.186-.863-.186-.363-.418-.54a1.7 1.7 0 0 0-.558-.275 3 3 0 0 0-.496-.112 4 4 0 0 0-.341-.017zm0 4.66v3.84h1.317q1.255 0 1.813-.452.682-.516.682-1.484 0-1.08-.883-1.58-.558-.323-1.751-.323zm12.6-4.29-.914.63a2.5 2.5 0 0 0-.605-.807q-.465-.37-1.162-.37-.775 0-1.255.459-.48.46-.481 1.201 0 .549.388.936.31.322 1.084.677l.992.452q1.1.5 1.597 1.016.743.774.744 1.951 0 1.468-.93 2.388-.93.918-2.34.919-1.396 0-2.248-.871-.697-.71-.96-1.903l1.115-.323q.109.807.62 1.371.573.597 1.488.597.992 0 1.534-.621.543-.621.543-1.508 0-.774-.512-1.258-.294-.29-1.24-.742l-.93-.452q-.945-.451-1.379-.887-.713-.71-.713-1.758 0-1.242.814-2.008Q33.34.45 34.612.45q.962 0 1.659.484.636.435 1.007 1.193m3.642-1.5v4.371h5.3V.628h1.148v10.757H46.22V6.127h-5.3v5.258h-1.147V.627zm17.754 9.355q-1.557 1.597-3.82 1.597t-3.82-1.597q-1.559-1.596-1.558-3.968 0-2.386 1.565-3.975 1.566-1.59 3.813-1.59t3.812 1.59 1.566 3.975q0 2.372-1.558 3.968m-.845-7.113q-1.224-1.29-2.976-1.29-1.75 0-2.975 1.29-1.224 1.291-1.224 3.145t1.224 3.146q1.224 1.29 2.975 1.29t2.976-1.29 1.225-3.146-1.225-3.145M62.34.627h1.876q1.767 0 2.604.759.945.838.945 2.306 0 1.258-.814 2.137-.812.88-2.456.88h-1.008v4.676H62.34zm1.148 1.13v3.822h.945q1.023 0 1.604-.516t.581-1.436q0-1.87-2.278-1.87z"/></svg>