<svg xmlns="http://www.w3.org/2000/svg" width="186" height="33" fill="none" viewBox="0 0 186 33"><g clip-path="url(#a)"><path fill="#369" d="M175.454 21.097h3.518q2.624 0 4.473-1.878c1.238-1.25 1.854-2.765 1.854-4.533q.001-2.658-1.854-4.533-1.85-1.88-4.473-1.882h-8.206v17.11h4.688zm0-8.073h3.518q.684 0 1.156.49.484.489.484 1.172 0 .694-.484 1.172-.472.49-1.156.49h-3.518zm-21.14-4.753v17.11h14.533v-4.75h-9.846V18.73h6.731v-3.806h-6.731v-1.899h9.846V8.271zm-16.843 0v4.753h5.159v12.357h4.687V13.024h5.159V8.271zM129.84 25.38q3.494 0 5.96-2.498l-3.317-3.365q-1.1 1.115-2.643 1.115-1.56 0-2.66-1.115-1.096-1.11-1.096-2.69c0-1.046.366-1.936 1.096-2.68.733-.743 1.62-1.11 2.66-1.11 1.028 0 1.91.367 2.643 1.11l3.317-3.36q-2.466-2.501-5.96-2.503-3.512.002-5.977 2.503-2.466 2.499-2.466 6.04 0 3.55 2.466 6.055 2.465 2.499 5.977 2.499m-19.767-17.11-6.602 17.11h5.03L109.42 23h6.541l.898 2.38h5.018l-6.424-17.109zm2.668 6.125 1.438 3.855h-2.93z"/><path fill="#F7BF18" d="m96.952 8.271-4.356 6.305-4.37-6.305h-4.545v17.11h6.964l.975-3.742.391-1.5a1.77 1.77 0 0 1-1.162-1.667c0-.978.782-1.77 1.746-1.77.965 0 1.747.792 1.747 1.77a1.77 1.77 0 0 1-1.162 1.668l.39 1.499.976 3.742h6.964V8.27z"/><path fill="#369" d="m75.184 8.271-5.099 5.684V8.271H64.4q.675.504 1.3 1.14 3.043 3.068 3.043 7.415c0 2.898-1.014 5.375-3.043 7.42q-.62.633-1.295 1.135h5.68v-4.353l2.044-2.287 3.885 6.64h5.453L75.433 15.07l6.094-6.799zm-28.55 0-4.356 6.305-4.37-6.305h-4.545v17.11h4.687v-8.625l4.228 6.113 4.215-6.113v8.625h5.86a11 11 0 0 1-1.295-1.135c-2.028-2.045-3.043-4.522-3.043-7.42q0-4.347 3.043-7.416.625-.635 1.3-1.139zm-26.802 0-6.602 17.11h5.03L19.179 23h6.54l.9 2.38h5.017L25.212 8.272zm2.667 6.125 1.44 3.855h-2.93zM.659 19.377c0 3.161 1.838 6.004 6.046 6.004 4.353 0 6.603-2.77 6.627-5.416.024-1.47-.46-2.916-2.201-3.798 1.306-.687 1.693-2.059 1.693-3.162 0-7.204-12.02-7.327-12.02.368h3.652c0-2.45 4.256-2.352 4.256-.245 0 .662-.532 1.421-1.33 1.421H4.818v3.529h2.564c1.306 0 1.838.931 1.838 1.642 0 2.058-4.74 2.5-4.74-.343z"/><path fill="#F7BF18" d="M58.38 19.959c1.707 0 3.091-1.403 3.091-3.133s-1.384-3.133-3.091-3.133-3.092 1.403-3.092 3.133 1.384 3.133 3.092 3.133m.514-11.688h-1.007v2.219h1.007zm-3.555.844-.232.1.528 1.266.232-.099zm-2.619 1.727-.177.18.96.972.178-.18zm-1.827 2.701-.095.236 1.258.518.094-.237zm-.646 3.096v.255h1.357v-.255zm.592 3.22.098.235 1.25-.535-.098-.235zm1.704 2.651.178.181.96-.972-.178-.18zm2.666 1.853.233.096.51-1.274-.233-.096zm6.233.055.232-.1-.528-1.267-.232.1zm2.618-1.726.178-.18-.96-.973-.178.18zm1.828-2.702.095-.236-1.258-.517-.094.236zm.646-3.096v-.255h-1.357v.255zm-.592-3.219-.098-.235-1.25.535.097.235zm-1.704-2.653-.178-.18-.96.972.178.18zM61.572 9.17l-.233-.096-.511 1.274.233.096zm-2.706 13.992H57.86v2.219h1.007z"/><path fill="#F7BF18" d="M49.693 16.256v1.02h2.19v-1.02zm15.183 0v1.02h2.19v-1.02z"/></g><defs><clipPath id="a"><path fill="#fff" d="M.5 0h185v33H.5z"/></clipPath></defs></svg>