<svg xmlns="http://www.w3.org/2000/svg" width="54" height="54" fill="none" viewBox="0 0 54 54"><g clip-path="url(#a)"><g filter="url(#b)"><path fill="#F7BF18" d="M12.602 50.529h28.025a4.21 4.21 0 0 0 4.203-4.204V16.712h-9.808a4.21 4.21 0 0 1-4.204-4.203V2.7H12.602a4.21 4.21 0 0 0-4.204 4.204v39.42a4.21 4.21 0 0 0 4.204 4.205m5.605-28.118h16.815a1.4 1.4 0 1 1 0 2.802H18.207a1.4 1.4 0 1 1 0-2.802m0 5.604h16.815a1.4 1.4 0 1 1 0 2.803H18.207a1.4 1.4 0 1 1 0-2.803m0 5.605h16.815a1.4 1.4 0 1 1 0 2.803H18.207a1.4 1.4 0 1 1 0-2.803m0 5.605h11.21a1.4 1.4 0 1 1 0 2.803h-11.21a1.4 1.4 0 1 1 0-2.803"/></g><g filter="url(#c)"><path fill="#F7BF18" d="M35.022 13.91h8.987L33.62 3.52v8.988c0 .773.629 1.4 1.402 1.4"/></g></g><defs><filter id="b" width="48.6319" height="60.0286" x="2.29828" y="-3.39999" color-interpolation-filters="sRGB" filterUnits="userSpaceOnUse"><feFlood flood-opacity="0" result="BackgroundImageFix"/><feGaussianBlur in="BackgroundImageFix" stdDeviation="3.05"/><feComposite in2="SourceAlpha" operator="in" result="effect1_backgroundBlur_2001_1551"/><feBlend in="SourceGraphic" in2="effect1_backgroundBlur_2001_1551" result="shape"/></filter><filter id="c" width="22.5888" height="22.5888" x="27.5204" y="-2.57894" color-interpolation-filters="sRGB" filterUnits="userSpaceOnUse"><feFlood flood-opacity="0" result="BackgroundImageFix"/><feGaussianBlur in="BackgroundImageFix" stdDeviation="3.05"/><feComposite in2="SourceAlpha" operator="in" result="effect1_backgroundBlur_2001_1551"/><feBlend in="SourceGraphic" in2="effect1_backgroundBlur_2001_1551" result="shape"/></filter><clipPath id="a"><path fill="#fff" d="M2.7 2.7h47.829v47.829H2.699z"/></clipPath></defs></svg>