<svg xmlns="http://www.w3.org/2000/svg" width="54" height="56" fill="none" viewBox="0 0 54 56"><g filter="url(#a)"><path fill="#F7BF18" d="M51.427 20.968h-5.895l-1.568-4.155A10.91 10.91 0 0 0 33.74 9.78H21.323c-4.515 0-8.53 2.75-10.223 7.033l-1.63 4.155H3.574c-.627 0-1.191.511-1.191 1.214 0 .064 0 .192.062.256l.565 2.43c.125.51.627.894 1.129.894h2.07c-1.38 1.215-2.196 2.94-2.196 4.795v4.794c0 1.535.565 3.005 1.568 4.22v5.37c0 1.79 1.38 3.196 3.136 3.196h3.136c1.756 0 3.136-1.407 3.136-3.197v-3.196h25.086v3.197c0 1.79 1.38 3.196 3.136 3.196h3.136c1.756 0 3.136-1.407 3.136-3.197v-5.433a6.36 6.36 0 0 0 1.568-4.22v-4.794c0-1.854-.815-3.58-2.195-4.795H50.8c.565 0 1.004-.383 1.129-.895l.564-2.429a1.28 1.28 0 0 0-.878-1.47c0 .064-.062.064-.188.064m-34.494-1.79c.69-1.854 2.446-3.005 4.39-3.005h12.418c1.944 0 3.7 1.215 4.39 3.005l1.944 4.986H14.99zm-5.08 16.173c-1.63.128-3.01-1.15-3.136-2.812v-.384c-.125-1.662 1.129-3.068 2.76-3.196h.376c1.881 0 4.704 2.876 4.704 4.794s-2.823 1.598-4.704 1.598m31.358 0c-1.881 0-4.703.32-4.703-1.598s2.822-4.794 4.703-4.794c1.631-.128 3.01 1.15 3.136 2.813v.383c.126 1.662-1.129 3.069-2.76 3.196z"/></g><defs><filter id="a" width="70.1348" height="58.3564" x="-7.61737" y="-0.219543" color-interpolation-filters="sRGB" filterUnits="userSpaceOnUse"><feFlood flood-opacity="0" result="BackgroundImageFix"/><feGaussianBlur in="BackgroundImageFix" stdDeviation="5"/><feComposite in2="SourceAlpha" operator="in" result="effect1_backgroundBlur_2001_1488"/><feBlend in="SourceGraphic" in2="effect1_backgroundBlur_2001_1488" result="shape"/></filter></defs></svg>