<svg xmlns="http://www.w3.org/2000/svg" width="54" height="54" fill="none" viewBox="0 0 54 54"><g filter="url(#a)"><path fill="#F7BF18" d="M26.614 2.7C13.428 2.7 2.7 13.428 2.7 26.614S13.428 50.53 26.614 50.53 50.53 39.8 50.53 26.614 39.8 2.7 26.614 2.7m11.374 36.284a1.987 1.987 0 0 1-2.818 0l-9.965-9.964a2 2 0 0 1-.583-1.41V14.658a1.993 1.993 0 1 1 3.985 0v12.129l9.38 9.38a1.99 1.99 0 0 1 0 2.818"/></g><defs><filter id="a" width="60.0286" height="60.0286" x="-3.3999" y="-3.39999" color-interpolation-filters="sRGB" filterUnits="userSpaceOnUse"><feFlood flood-opacity="0" result="BackgroundImageFix"/><feGaussianBlur in="BackgroundImageFix" stdDeviation="3.05"/><feComposite in2="SourceAlpha" operator="in" result="effect1_backgroundBlur_2001_1578"/><feBlend in="SourceGraphic" in2="effect1_backgroundBlur_2001_1578" result="shape"/></filter></defs></svg>