<svg width="54" height="54" viewBox="0 0 54 54" fill="none" xmlns="http://www.w3.org/2000/svg">
<g filter="url(#filter0_b_2001_1578)">
<path d="M26.6144 2.70001C13.4277 2.70001 2.7001 13.4276 2.7001 26.6143C2.7001 39.801 13.4277 50.5286 26.6144 50.5286C39.8011 50.5286 50.5287 39.801 50.5287 26.6143C50.5287 13.4276 39.8011 2.70001 26.6144 2.70001ZM37.9876 38.984C37.803 39.1697 37.5834 39.317 37.3416 39.4176C37.0998 39.5182 36.8406 39.5699 36.5787 39.5699C36.3168 39.5699 36.0575 39.5182 35.8157 39.4176C35.5739 39.317 35.3544 39.1697 35.1697 38.984L25.2054 29.0197C25.02 28.8349 24.873 28.6153 24.7728 28.3735C24.6725 28.1317 24.6212 27.8725 24.6215 27.6107V14.6572C24.6215 14.1286 24.8315 13.6217 25.2052 13.248C25.579 12.8743 26.0859 12.6643 26.6144 12.6643C27.1429 12.6643 27.6498 12.8743 28.0236 13.248C28.3973 13.6217 28.6072 14.1286 28.6072 14.6572V26.7857L37.9876 36.1661C38.1729 36.351 38.3198 36.5706 38.4201 36.8124C38.5203 37.0541 38.5719 37.3133 38.5719 37.575C38.5719 37.8367 38.5203 38.0959 38.4201 38.3377C38.3198 38.5794 38.1729 38.799 37.9876 38.984Z" fill="#F7BF18"/>
</g>
<defs>
<filter id="filter0_b_2001_1578" x="-3.3999" y="-3.39999" width="60.0286" height="60.0286" filterUnits="userSpaceOnUse" color-interpolation-filters="sRGB">
<feFlood flood-opacity="0" result="BackgroundImageFix"/>
<feGaussianBlur in="BackgroundImageFix" stdDeviation="3.05"/>
<feComposite in2="SourceAlpha" operator="in" result="effect1_backgroundBlur_2001_1578"/>
<feBlend mode="normal" in="SourceGraphic" in2="effect1_backgroundBlur_2001_1578" result="shape"/>
</filter>
</defs>
</svg>
