<svg width="54" height="54" viewBox="0 0 54 54" fill="none" xmlns="http://www.w3.org/2000/svg">
<g clip-path="url(#clip0_2001_1745)">
<g filter="url(#filter0_b_2001_1745)">
<path d="M44.8189 7.68464C44.4112 7.27704 43.8582 7.04808 43.2817 7.04811H43.2812L41.1077 7.04886V46.1806H43.2817C44.4824 46.1806 45.4558 45.2072 45.4558 44.0065V9.22216C45.4558 8.93661 45.3995 8.65386 45.2903 8.39005C45.181 8.12625 45.0208 7.88655 44.8189 7.68464ZM35.9829 3.20848C35.7398 3.00436 35.4548 2.85604 35.1481 2.77393C34.8414 2.69183 34.5204 2.67795 34.2078 2.73327L9.56883 7.08389C8.52996 7.26726 7.77264 8.16993 7.77264 9.22477V44.0065C7.77264 45.0615 8.53005 45.9643 9.56892 46.1475L34.2079 50.4955C34.5205 50.5507 34.8415 50.5367 35.1482 50.4545C35.4548 50.3724 35.7398 50.2241 35.983 50.02C36.2262 49.816 36.4218 49.5611 36.556 49.2734C36.6901 48.9857 36.7596 48.6721 36.7596 48.3546V4.87407C36.7596 4.55657 36.6901 4.24293 36.5559 3.95518C36.4217 3.66743 36.2262 3.41255 35.9829 3.20848ZM27.4272 29.6014C27.023 30.0059 26.4619 30.2376 25.8895 30.2376C25.3171 30.2376 24.7576 30.0058 24.3517 29.6012C23.9474 29.1957 23.7155 28.6362 23.7155 28.0636C23.7155 27.4911 23.9474 26.9315 24.3517 26.526C24.7575 26.1215 25.317 25.8895 25.8895 25.8895C26.4619 25.8895 27.023 26.1214 27.4272 26.526C27.8316 26.9317 28.0636 27.4911 28.0636 28.0636C28.0635 28.6363 27.8315 29.1958 27.4272 29.6014Z" fill="#F7BF18"/>
</g>
</g>
<defs>
<filter id="filter0_b_2001_1745" x="1.67264" y="-3.39996" width="49.8831" height="60.0285" filterUnits="userSpaceOnUse" color-interpolation-filters="sRGB">
<feFlood flood-opacity="0" result="BackgroundImageFix"/>
<feGaussianBlur in="BackgroundImageFix" stdDeviation="3.05"/>
<feComposite in2="SourceAlpha" operator="in" result="effect1_backgroundBlur_2001_1745"/>
<feBlend mode="normal" in="SourceGraphic" in2="effect1_backgroundBlur_2001_1745" result="shape"/>
</filter>
<clipPath id="clip0_2001_1745">
<rect width="47.8286" height="47.8286" fill="white" transform="translate(2.69992 2.70001)"/>
</clipPath>
</defs>
</svg>
