<svg width="54" height="54" viewBox="0 0 54 54" fill="none" xmlns="http://www.w3.org/2000/svg">
<g clip-path="url(#clip0_2001_1738)">
<g filter="url(#filter0_b_2001_1738)">
<path d="M37.1914 25.2976C38.6101 24.9778 39.9186 23.7419 40.1318 21.0009C40.3075 18.7574 39.7616 17.6018 38.9556 17.0128C41.1931 7.40067 35.0219 5.51899 35.0219 5.51899C35.0219 5.51899 30.4099 -2.72756 21.4121 3.05947C20.2676 3.79535 18.4881 5.20538 17.428 6.66109C15.7259 8.56993 14.5673 11.6727 14.3857 16.698C13.2869 17.14 12.4236 18.2586 12.638 20.9996C12.8629 23.8654 14.2815 25.0853 15.7739 25.3347C17.7888 30.5068 21.767 34.769 26.4751 34.769C31.1936 34.769 35.1801 30.4871 37.1914 25.2976ZM26.4751 32.3576C21.0314 32.3576 16.6478 24.5667 16.6478 18.1154C16.6478 17.2313 16.6748 16.4115 16.7263 15.6509C24.6886 16.0176 29.3978 12.6531 31.9609 9.73425C34.3917 12.2876 35.6545 15.5126 36.3 17.9067L36.3011 18.1142C36.3023 24.5667 31.9199 32.3576 26.4751 32.3576ZM24.4262 38.5645C22.4084 37.0034 20.5347 35.1823 18.6065 33.4997L15.18 34.3443C9.37782 35.7827 5.28947 40.9474 5.28947 46.8715V51.5466C5.28947 53.0776 6.58158 54.2988 8.12789 54.2988H22.6315C22.9483 52.3955 24.4262 38.955 24.4262 38.5645ZM37.564 34.3443L34.1843 33.4997L28.5602 38.4126C28.4993 38.4654 28.4368 38.516 28.3728 38.5645C28.5848 38.7731 28.7406 39.0448 28.8144 39.3621L29.4435 42.1118C29.4981 42.3496 29.501 42.5973 29.4519 42.8364C29.4028 43.0756 29.303 43.2999 29.16 43.4926C29.017 43.6854 28.8345 43.8415 28.6262 43.9494C28.4179 44.0573 28.1891 44.1142 27.9569 44.1157L30.1686 54.3H44.6723C46.2186 54.3 47.3947 53.0801 47.3947 51.5478V46.8728C47.3971 40.9474 43.3661 35.7827 37.564 34.3443Z" fill="#F7BF18"/>
<path d="M22.6315 54.2988L30.1686 54.3L27.9569 44.1157C28.1891 44.1142 28.4179 44.0573 28.6262 43.9494C28.8345 43.8415 29.017 43.6854 29.16 43.4926C29.303 43.2999 29.4028 43.0756 29.4519 42.8364C29.501 42.5973 29.4981 42.3496 29.4435 42.1118L28.8144 39.3621C28.7406 39.0448 28.5848 38.7731 28.3728 38.5645C27.1708 39.605 25.2409 38.998 24.4262 38.5645C24.4262 38.955 22.9483 52.3955 22.6315 54.2988Z" fill="#F7BF18"/>
</g>
</g>
<defs>
<filter id="filter0_b_2001_1738" x="-0.810525" y="-5.1" width="54.3053" height="65.5" filterUnits="userSpaceOnUse" color-interpolation-filters="sRGB">
<feFlood flood-opacity="0" result="BackgroundImageFix"/>
<feGaussianBlur in="BackgroundImageFix" stdDeviation="3.05"/>
<feComposite in2="SourceAlpha" operator="in" result="effect1_backgroundBlur_2001_1738"/>
<feBlend mode="normal" in="SourceGraphic" in2="effect1_backgroundBlur_2001_1738" result="shape"/>
</filter>
<clipPath id="clip0_2001_1738">
<rect x="2" y="1" width="50" height="52" rx="25" fill="white"/>
</clipPath>
</defs>
</svg>
