<svg width="54" height="56" viewBox="0 0 54 56" fill="none" xmlns="http://www.w3.org/2000/svg">
<g filter="url(#filter0_b_2001_1488)">
<path d="M51.4272 20.9677H45.5318L43.9639 16.8125C42.3333 12.5293 38.2567 9.78046 33.7411 9.78046H21.3231C16.8075 9.78046 12.7936 12.5293 11.1003 16.8125L9.46964 20.9677H3.57425C2.94708 20.9677 2.38263 21.4792 2.38263 22.1824C2.38263 22.2463 2.38263 22.3741 2.44535 22.4381L3.0098 24.8673C3.13523 25.3787 3.63697 25.7623 4.1387 25.7623H6.20836C4.82859 26.9769 4.01327 28.7029 4.01327 30.5568V35.3514C4.01327 36.8856 4.57772 38.356 5.58119 39.5706V44.9405C5.58119 46.7305 6.96096 48.1369 8.71703 48.1369H11.8529C13.609 48.1369 14.9887 46.7305 14.9887 44.9405V41.7441H40.0755V44.9405C40.0755 46.7305 41.4552 48.1369 43.2113 48.1369H46.3472C48.1032 48.1369 49.483 46.7305 49.483 44.9405V39.5067C50.4865 38.356 51.0509 36.8856 51.0509 35.2875V30.4929C51.0509 28.639 50.2356 26.913 48.8558 25.6984H50.8001C51.3645 25.6984 51.8035 25.3148 51.929 24.8034L52.4934 22.3741C52.6189 21.7349 52.2425 21.0956 51.6154 20.9038C51.6154 20.9677 51.5527 20.9677 51.4272 20.9677ZM16.9329 19.1778C17.6228 17.3239 19.3789 16.1732 21.3231 16.1732H33.7411C35.6853 16.1732 37.4414 17.3878 38.1313 19.1778L40.0755 24.1641H14.9887L16.9329 19.1778ZM11.8529 35.3514C10.2222 35.4792 8.84247 34.2007 8.71703 32.5386V32.155C8.5916 30.4929 9.84594 29.0865 11.4766 28.9587H11.8529C13.7344 28.9587 16.5566 31.8354 16.5566 33.7532C16.5566 35.671 13.7344 35.3514 11.8529 35.3514ZM43.2113 35.3514C41.3298 35.3514 38.5076 35.671 38.5076 33.7532C38.5076 31.8354 41.3298 28.9587 43.2113 28.9587C44.842 28.8308 46.2217 30.1094 46.3472 31.7715V32.155C46.4726 33.8171 45.2183 35.2235 43.5876 35.3514H43.2113Z" fill="#F7BF18"/>
</g>
<defs>
<filter id="filter0_b_2001_1488" x="-7.61737" y="-0.219543" width="70.1348" height="58.3564" filterUnits="userSpaceOnUse" color-interpolation-filters="sRGB">
<feFlood flood-opacity="0" result="BackgroundImageFix"/>
<feGaussianBlur in="BackgroundImageFix" stdDeviation="5"/>
<feComposite in2="SourceAlpha" operator="in" result="effect1_backgroundBlur_2001_1488"/>
<feBlend mode="normal" in="SourceGraphic" in2="effect1_backgroundBlur_2001_1488" result="shape"/>
</filter>
</defs>
</svg>
