<svg width="37" height="24" viewBox="0 0 37 24" fill="none" xmlns="http://www.w3.org/2000/svg">
<path d="M2 10.5C1.17157 10.5 0.5 11.1716 0.5 12C0.5 12.8284 1.17157 13.5 2 13.5V10.5ZM36.0607 13.0607C36.6464 12.4749 36.6464 11.5251 36.0607 10.9393L26.5147 1.3934C25.9289 0.807611 24.9792 0.807611 24.3934 1.3934C23.8076 1.97919 23.8076 2.92893 24.3934 3.51472L32.8787 12L24.3934 20.4853C23.8076 21.0711 23.8076 22.0208 24.3934 22.6066C24.9792 23.1924 25.9289 23.1924 26.5147 22.6066L36.0607 13.0607ZM2 13.5H35V10.5H2V13.5Z" fill="#212226"/>
</svg>
