<svg width="69" height="12" viewBox="0 0 69 12" fill="none" xmlns="http://www.w3.org/2000/svg">
<path d="M0.898438 0.612582H2.16908L4.89709 8.67736L8.13618 0.0644531L11.2049 8.67736L14.2272 0.612582H15.4982L11.1584 11.9352L8.12056 3.32226L4.86584 11.9352L0.898438 0.612582ZM22.3175 0.612582V1.74174H18.1019V4.93529H22.1936V6.06445H18.1019V10.2416H22.3175V11.3708H16.9548V0.612582H22.3175ZM24.4254 0.612582H26.2852C27.3186 0.612582 28.1086 0.838647 28.6565 1.29C29.2762 1.78471 29.5864 2.52678 29.5864 3.51581C29.5864 4.44058 29.2453 5.1451 28.5635 5.62897C29.2245 5.80084 29.7181 6.14768 30.0436 6.6691C30.3691 7.19052 30.5316 7.74716 30.5316 8.33865C30.5316 8.82252 30.4312 9.26845 30.2296 9.67723C30.028 10.0856 29.7776 10.4139 29.4778 10.6612C28.899 11.1343 28.0725 11.3708 26.9979 11.3708H24.4254V0.612582ZM25.5722 1.74174V5.33865H26.44C26.5951 5.33865 26.745 5.33052 26.8897 5.31426C27.0344 5.298 27.2073 5.25503 27.4089 5.18536C27.6102 5.11529 27.7857 5.02123 27.9357 4.90316C28.0856 4.78471 28.212 4.60742 28.3154 4.3709C28.4188 4.134 28.4705 3.85994 28.4705 3.54832C28.4705 3.21503 28.4084 2.92703 28.2846 2.6851C28.1603 2.44316 28.0208 2.26316 27.8661 2.1451C27.711 2.02665 27.525 1.93529 27.3081 1.87065C27.0909 1.80639 26.9258 1.76845 26.8119 1.758C26.6985 1.74716 26.5847 1.74174 26.4712 1.74174H25.5722ZM25.5722 6.40316V10.2416H26.8897C27.7266 10.2416 28.3311 10.091 28.703 9.79026C29.1576 9.44613 29.3848 8.95142 29.3848 8.30613C29.3848 7.58574 29.0902 7.0589 28.5014 6.72561C28.1294 6.51039 27.5458 6.40316 26.7502 6.40316H25.5722ZM38.1726 2.11258L37.2583 2.74161C37.0928 2.40832 36.8915 2.13968 36.6538 1.93529C36.3436 1.68794 35.9564 1.56445 35.4914 1.56445C34.9748 1.56445 34.5563 1.71736 34.236 2.02394C33.9158 2.33052 33.7555 2.73116 33.7555 3.22549C33.7555 3.59129 33.8845 3.9029 34.143 4.1611C34.3495 4.37632 34.7114 4.602 35.2277 4.83852L36.2197 5.29026C36.9533 5.62355 37.4855 5.96226 37.8162 6.30639C38.3121 6.82239 38.5602 7.47271 38.5602 8.25774C38.5602 9.23632 38.2499 10.0322 37.6302 10.645C37.0102 11.2577 36.2302 11.5643 35.2898 11.5643C34.3599 11.5643 33.6108 11.274 33.0424 10.6934C32.5774 10.2203 32.2572 9.58587 32.0816 8.79L33.1975 8.46755C33.2697 9.00523 33.4765 9.462 33.8176 9.83865C34.1996 10.2362 34.6958 10.4352 35.3054 10.4352C35.9668 10.4352 36.4779 10.2285 36.8398 9.81426C37.2014 9.40045 37.3821 8.89761 37.3821 8.30613C37.3821 7.79013 37.2118 7.3709 36.8707 7.04807C36.6743 6.85452 36.261 6.60716 35.6309 6.30639L34.701 5.85465C34.0705 5.55349 33.6108 5.25774 33.3214 4.96742C32.8464 4.49439 32.6087 3.90832 32.6087 3.20961C32.6087 2.38161 32.8798 1.71232 33.4222 1.20136C33.9645 0.690776 34.6597 0.435292 35.5067 0.435292C36.1476 0.435292 36.7003 0.596711 37.1653 0.919163C37.589 1.20949 37.9245 1.60742 38.1726 2.11258ZM41.8149 0.612582V4.98368H47.1154V0.612582H48.2622V11.3708H47.1154V6.11284H41.8149V11.3708H40.6677V0.612582H41.8149ZM59.5685 9.96755C58.53 11.0321 57.2567 11.5643 55.748 11.5643C54.2397 11.5643 52.9661 11.0321 51.9276 9.96755C50.8894 8.90303 50.3701 7.58032 50.3701 5.99981C50.3701 4.40845 50.892 3.08303 51.9354 2.02394C52.9791 0.96484 54.2498 0.435292 55.748 0.435292C57.2463 0.435292 58.5173 0.96484 59.5607 2.02394C60.6045 3.08303 61.1259 4.40845 61.1259 5.99981C61.1259 7.58032 60.6071 8.90303 59.5685 9.96755ZM58.7238 2.85465C57.9077 1.99452 56.9156 1.56445 55.748 1.56445C54.5804 1.56445 53.5888 1.99452 52.7723 2.85465C51.9562 3.71478 51.5478 4.76342 51.5478 5.99981C51.5478 7.2362 51.9562 8.28484 52.7723 9.14497C53.5888 10.0051 54.5804 10.4352 55.748 10.4352C56.9156 10.4352 57.9077 10.0051 58.7238 9.14497C59.5403 8.28484 59.9483 7.2362 59.9483 5.99981C59.9483 4.76342 59.5403 3.71478 58.7238 2.85465ZM63.2339 0.612582H65.1094C66.287 0.612582 67.1552 0.865356 67.7131 1.3709C68.3432 1.92987 68.6583 2.69865 68.6583 3.67723C68.6583 4.51607 68.3871 5.22832 67.8448 5.81439C67.3025 6.40045 66.4834 6.69349 65.3883 6.69349H64.3807V11.3708H63.2339V0.612582ZM64.3807 1.74174V5.56432H65.3262C66.008 5.56432 66.5429 5.39245 66.9305 5.04832C67.3177 4.7042 67.5115 4.22574 67.5115 3.61258C67.5115 2.36536 66.7523 1.74174 65.2332 1.74174H64.3807Z" fill="#73788A" fill-opacity="0.2"/>
<path d="M0.00390625 0.627231H1.27492L4.00256 8.69201L7.24165 0.0791016L10.3104 8.69201L13.3326 0.627231H14.6036L10.2639 11.9498L7.2264 3.33691L3.97168 11.9498L0.00390625 0.627231ZM21.4229 0.627231V1.75639H17.2074V4.94994H21.2991V6.0791H17.2074V10.2563H21.4229V11.3854H16.0606V0.627231H21.4229ZM23.5309 0.627231H25.3907C26.424 0.627231 27.2145 0.853295 27.762 1.30465C28.3821 1.79936 28.6919 2.54142 28.6919 3.53046C28.6919 4.45523 28.3508 5.15975 27.669 5.64362C28.3304 5.81549 28.8236 6.16233 29.1491 6.68375C29.4745 7.20517 29.6375 7.76181 29.6375 8.3533C29.6375 8.83717 29.5366 9.2831 29.335 9.69188C29.1334 10.1006 28.8831 10.4285 28.5833 10.6759C28.0049 11.1489 27.1784 11.3854 26.1038 11.3854H23.5309V0.627231ZM24.6776 1.75639V5.3533H25.5458C25.7005 5.3533 25.8504 5.34517 25.9951 5.32891C26.1398 5.31304 26.3128 5.26968 26.5144 5.20001C26.716 5.12994 26.8916 5.03588 27.0411 4.91781C27.191 4.79936 27.3179 4.62207 27.4209 4.38555C27.5243 4.14904 27.576 3.87459 27.576 3.56297C27.576 3.22968 27.5139 2.94207 27.39 2.70013C27.2662 2.45781 27.1267 2.27781 26.9716 2.15975C26.8164 2.0413 26.6305 1.94994 26.4136 1.8853C26.1968 1.82104 26.0312 1.7831 25.9178 1.77265C25.804 1.76181 25.6905 1.75639 25.5767 1.75639H24.6776ZM24.6776 6.41781V10.2563H25.9951C26.8321 10.2563 27.4365 10.1061 27.8085 9.80491C28.263 9.46078 28.4903 8.96607 28.4903 8.32078C28.4903 7.60039 28.1961 7.07355 27.6069 6.74026C27.2349 6.52504 26.6513 6.41781 25.8557 6.41781H24.6776ZM37.278 2.12723L36.3637 2.75626C36.1986 2.42297 35.997 2.15433 35.7593 1.94994C35.4494 1.70259 35.0619 1.5791 34.5969 1.5791C34.0802 1.5791 33.6618 1.732 33.3415 2.03859C33.0212 2.34517 32.8609 2.74581 32.8609 3.24013C32.8609 3.60594 32.9904 3.91755 33.2485 4.17575C33.4553 4.39097 33.8169 4.61665 34.3335 4.85317L35.3252 5.30491C36.0591 5.6382 36.591 5.97691 36.9217 6.32104C37.4175 6.83704 37.6656 7.48775 37.6656 8.27239C37.6656 9.25097 37.3558 10.0468 36.7357 10.6596C36.1156 11.2724 35.3356 11.579 34.3953 11.579C33.4654 11.579 32.7162 11.2886 32.1482 10.708C31.6833 10.235 31.363 9.60052 31.1871 8.80465L32.303 8.4822C32.3755 9.01988 32.5819 9.47704 32.923 9.8533C33.3054 10.2512 33.8013 10.4498 34.4109 10.4498C35.0723 10.4498 35.5837 10.2431 35.9453 9.82891C36.3068 9.4151 36.4876 8.91226 36.4876 8.32078C36.4876 7.80478 36.3172 7.38555 35.9762 7.06271C35.7801 6.86917 35.3665 6.6222 34.7364 6.32104L33.8065 5.8693C33.1763 5.56813 32.7162 5.27239 32.4272 4.98207C31.9518 4.50904 31.7141 3.92297 31.7141 3.22426C31.7141 2.39626 31.9853 1.72697 32.5276 1.216C33.0703 0.705424 33.7652 0.44994 34.6125 0.44994C35.253 0.44994 35.8058 0.61136 36.2707 0.933811C36.6944 1.22413 37.0303 1.62207 37.278 2.12723ZM40.9203 0.627231V4.99833H46.2209V0.627231H47.3677V11.3854H46.2209V6.12749H40.9203V11.3854H39.7736V0.627231H40.9203ZM58.674 9.9822C57.6358 11.0467 56.3622 11.579 54.8535 11.579C53.3452 11.579 52.0716 11.0467 51.0334 9.9822C49.9949 8.91768 49.4756 7.59497 49.4756 6.01446C49.4756 4.4231 49.9975 3.09768 51.0408 2.03859C52.0846 0.979489 53.3556 0.44994 54.8535 0.44994C56.3518 0.44994 57.6228 0.979489 58.6662 2.03859C59.7099 3.09768 60.2318 4.4231 60.2318 6.01446C60.2318 7.59497 59.7125 8.91768 58.674 9.9822ZM57.8292 2.8693C57.0132 2.00917 56.0211 1.5791 54.8535 1.5791C53.6859 1.5791 52.6942 2.00917 51.8778 2.8693C51.0617 3.72942 50.6536 4.77807 50.6536 6.01446C50.6536 7.25084 51.0617 8.29949 51.8778 9.15962C52.6942 10.0197 53.6859 10.4498 54.8535 10.4498C56.0211 10.4498 57.0132 10.0197 57.8292 9.15962C58.6457 8.29949 59.0538 7.25084 59.0538 6.01446C59.0538 4.77807 58.6457 3.72942 57.8292 2.8693ZM62.3394 0.627231H64.2148C65.3928 0.627231 66.2606 0.880005 66.8186 1.38555C67.4491 1.94452 67.7641 2.7133 67.7641 3.69188C67.7641 4.53071 67.493 5.24297 66.9503 5.82904C66.4079 6.4151 65.5892 6.70813 64.4938 6.70813H63.4865V11.3854H62.3394V0.627231ZM63.4865 1.75639V5.57897H64.4317C65.1139 5.57897 65.6484 5.4071 66.036 5.06297C66.4236 4.71884 66.617 4.24039 66.617 3.62723C66.617 2.38 65.8578 1.75639 64.3387 1.75639H63.4865Z" fill="#73788A"/>
</svg>
