<svg width="227" height="40" viewBox="0 0 227 40" fill="none" xmlns="http://www.w3.org/2000/svg">
<path d="M214.673 25.5716H218.99C221.136 25.5716 222.966 24.8142 224.479 23.2947C225.997 21.7802 226.754 19.9438 226.754 17.8006C226.754 15.6524 225.997 13.8212 224.479 12.3065C222.966 10.787 221.136 10.0247 218.99 10.0247H208.922V30.7637H214.673V25.5716ZM214.673 15.7862H218.99C219.549 15.7862 220.023 15.9841 220.409 16.38C220.805 16.776 221.002 17.2462 221.002 17.8006C221.002 18.3599 220.805 18.8351 220.409 19.2211C220.023 19.617 219.549 19.8152 218.99 19.8152H214.673V15.7862Z" fill="#336699"/>
<path d="M188.734 10.0247V30.7637H206.566V25.0073H194.486V22.7008H202.744V18.0876H194.486V15.7862H206.566V10.0247H188.734Z" fill="#336699"/>
<path d="M168.068 10.0247V15.7862H174.397V30.7637H180.149V15.7862H186.478V10.0247H168.068Z" fill="#336699"/>
<path d="M158.703 30.7636C161.562 30.7636 163.999 29.754 166.017 27.7345L161.947 23.6559C161.047 24.5569 159.964 25.0072 158.703 25.0072C157.427 25.0072 156.34 24.5569 155.44 23.6559C154.544 22.76 154.095 21.6713 154.095 20.3943C154.095 19.1272 154.544 18.0481 155.44 17.1472C156.34 16.2464 157.427 15.801 158.703 15.801C159.964 15.801 161.047 16.2464 161.947 17.1472L166.017 13.0737C163.999 11.0542 161.562 10.0397 158.703 10.0397C155.83 10.0397 153.387 11.0542 151.37 13.0737C149.352 15.0931 148.343 17.5334 148.343 20.3943C148.343 23.2649 149.352 25.71 151.37 27.7345C153.387 29.754 155.83 30.7636 158.703 30.7636Z" fill="#336699"/>
<path d="M134.448 10.0247L126.348 30.7637H132.52L133.647 27.8781H141.673L142.776 30.7637H148.933L141.05 10.0247H134.448ZM137.722 17.4492L139.488 22.1217H135.892L137.722 17.4492Z" fill="#336699"/>
<path d="M118.349 10.0247L113.004 17.667L107.643 10.0247H102.065V30.7637H110.611L111.807 26.2277L112.286 24.4113C111.456 24.116 110.86 23.3221 110.86 22.3893C110.86 21.2045 111.82 20.2441 113.004 20.2441C114.187 20.2441 115.147 21.2045 115.147 22.3893C115.147 23.3221 114.552 24.116 113.721 24.4113L114.2 26.2277L115.397 30.7637H123.942V10.0247H118.349Z" fill="#F7BF18"/>
<path d="M91.6388 10.0247L85.3833 16.9147V10.0247H78.4064C78.9603 10.4325 79.4923 10.8927 80.0024 11.4058C82.4917 13.8853 83.7366 16.8817 83.7366 20.3943C83.7366 23.9069 82.4917 26.9089 80.0024 29.3882C79.4945 29.8992 78.965 30.3573 78.4136 30.7637H85.3833V25.4874L87.8905 22.7155L92.6574 30.7637H99.3483L91.9454 18.266L99.4224 10.0247H91.6388ZM56.6078 10.0247L51.2621 17.667L45.9017 10.0247H40.3237V30.7637H46.0748V20.3101L51.2621 27.7196L56.4348 20.3101V30.7637H63.625C63.0736 30.3573 62.544 29.8992 62.036 29.3882C59.5471 26.9089 58.3022 23.9069 58.3022 20.3943C58.3022 16.8817 59.5471 13.8853 62.036 11.4058C62.546 10.8927 63.0783 10.4325 63.6321 10.0247H56.6078Z" fill="#336699"/>
<path d="M23.7202 10.0247L15.6201 30.7637H21.7915L22.9191 27.8781H30.945L32.0477 30.7637H38.2044L30.3219 10.0247H23.7202ZM26.9938 17.4492L28.7593 22.1217H25.1641L26.9938 17.4492Z" fill="#336699"/>
<path d="M0.194611 23.4864C0.194611 27.3183 2.4499 30.7637 7.61365 30.7637C12.9555 30.7637 15.7153 27.4074 15.745 24.1993C15.7747 22.4171 15.1811 20.6646 13.0445 19.5953C14.647 18.7636 15.1218 17.1002 15.1218 15.7636C15.1218 7.03068 0.372598 6.8822 0.372598 16.209H4.85379C4.85379 13.2387 10.0769 13.3576 10.0769 15.912C10.0769 16.7141 9.42389 17.6349 8.44463 17.6349H5.29884V21.9122H8.44463C10.0472 21.9122 10.6999 23.0409 10.6999 23.9023C10.6999 26.3975 4.88343 26.932 4.88343 23.4864H0.194611Z" fill="#336699"/>
<path d="M71.0196 24.1917C73.1149 24.1917 74.8135 22.4916 74.8135 20.3944C74.8135 18.2973 73.1149 16.5972 71.0196 16.5972C68.9244 16.5972 67.2258 18.2973 67.2258 20.3944C67.2258 22.4916 68.9244 24.1917 71.0196 24.1917Z" fill="#F7BF18"/>
<path d="M71.6509 10.0247H70.415V12.7142H71.6509V10.0247Z" fill="#F7BF18"/>
<path d="M67.2886 11.0482L67.0038 11.1685L67.6516 12.7042L67.9364 12.5838L67.2886 11.0482Z" fill="#F7BF18"/>
<path d="M64.0765 13.1408L63.8579 13.3596L65.0355 14.5383L65.2541 14.3195L64.0765 13.1408Z" fill="#F7BF18"/>
<path d="M61.8334 16.4146L61.7171 16.7013L63.26 17.3287L63.3764 17.042L61.8334 16.4146Z" fill="#F7BF18"/>
<path d="M61.0404 20.1676L61.0404 20.4771L62.7058 20.4771L62.7058 20.1676L61.0404 20.1676Z" fill="#F7BF18"/>
<path d="M61.7672 24.0702L61.8875 24.3552L63.4217 23.7068L63.3015 23.4218L61.7672 24.0702Z" fill="#F7BF18"/>
<path d="M63.8578 27.2852L64.0764 27.504L65.2541 26.3253L65.0355 26.1065L63.8578 27.2852Z" fill="#F7BF18"/>
<path d="M67.1287 29.5303L67.4152 29.6468L68.042 28.1024L67.7556 27.986L67.1287 29.5303Z" fill="#F7BF18"/>
<path d="M74.7771 29.5966L75.0619 29.4763L74.4141 27.9406L74.1293 28.061L74.7771 29.5966Z" fill="#F7BF18"/>
<path d="M77.9891 27.504L78.2077 27.2852L77.0301 26.1065L76.8115 26.3253L77.9891 27.504Z" fill="#F7BF18"/>
<path d="M80.2329 24.2301L80.3493 23.9434L78.8063 23.316L78.69 23.6027L80.2329 24.2301Z" fill="#F7BF18"/>
<path d="M81.0253 20.4771L81.0253 20.1677L79.3599 20.1677L79.3599 20.4771L81.0253 20.4771Z" fill="#F7BF18"/>
<path d="M80.2989 16.5746L80.1786 16.2895L78.6444 16.9379L78.7646 17.2229L80.2989 16.5746Z" fill="#F7BF18"/>
<path d="M78.2083 13.3595L77.9897 13.1407L76.8121 14.3194L77.0307 14.5382L78.2083 13.3595Z" fill="#F7BF18"/>
<path d="M74.9368 11.1144L74.6504 10.9979L74.0236 12.5423L74.31 12.6587L74.9368 11.1144Z" fill="#F7BF18"/>
<path d="M71.6167 28.0743H70.3808V30.7638H71.6167V28.0743Z" fill="#F7BF18"/>
<path d="M60.3614 19.7039L60.3614 20.941L63.0484 20.941L63.0484 19.7039L60.3614 19.7039Z" fill="#F7BF18"/>
<path d="M78.9907 19.7039L78.9907 20.941L81.6777 20.941L81.6777 19.7039L78.9907 19.7039Z" fill="#F7BF18"/>
</svg>
