<svg width="26" height="32" viewBox="0 0 26 32" fill="none" xmlns="http://www.w3.org/2000/svg">
<path d="M25.6666 12.6458C25.6666 21.8958 12.9999 31.1458 12.9999 31.1458C12.9999 31.1458 0.333252 21.8958 0.333252 12.6458C0.333252 9.37483 1.66777 6.2378 4.04323 3.92485C6.41869 1.6119 9.64051 0.3125 12.9999 0.3125C16.3593 0.3125 19.5811 1.6119 21.9566 3.92485C24.3321 6.2378 25.6666 9.37483 25.6666 12.6458Z" fill="#336699"/>
<path d="M13 17.2709C15.6234 17.2709 17.75 15.2002 17.75 12.6459C17.75 10.0916 15.6234 8.02087 13 8.02087C10.3766 8.02087 8.25 10.0916 8.25 12.6459C8.25 15.2002 10.3766 17.2709 13 17.2709Z" stroke="#336699" stroke-width="1.5" stroke-linecap="round" stroke-linejoin="round"/>
<path d="M15.9321 7L12.9999 11.0535L10.0597 7H7V18H11.6874L12.3436 15.5941L12.6065 14.6307C12.1508 14.4741 11.8243 14.053 11.8243 13.5582C11.8243 12.9298 12.3507 12.4204 12.9999 12.4204C13.6493 12.4204 14.1756 12.9298 14.1756 13.5582C14.1756 14.053 13.8491 14.4741 13.3934 14.6307L13.6563 15.5941L14.3125 18H19V7H15.9321Z" fill="#F7BF18"/>
</svg>
