<svg xmlns="http://www.w3.org/2000/svg" width="60" height="34" fill="none" viewBox="0 0 60 34"><g clip-path="url(#a)"><path fill="#B88A57" d="M9.327 6.077c5.264-2.857 12.504-4.622 20.53-4.622S45.14 3.22 50.387 6.077C55.56 8.893 58.76 12.756 58.76 17s-3.2 8.107-8.372 10.923c-5.264 2.857-12.504 4.622-20.53 4.622s-15.282-1.765-20.53-4.622C4.153 25.107.954 21.244.954 17s3.2-8.107 8.372-10.923M29.857.644C21.7.644 14.305 2.45 8.94 5.367 3.508 8.324.158 12.437.158 17s3.361 8.676 8.797 11.634c5.361 2.916 12.76 4.723 20.918 4.723s15.552-1.807 20.917-4.723c5.417-2.958 8.767-7.072 8.767-11.634S56.196 8.324 50.76 5.367C45.399 2.45 38 .644 29.842.644"/><path fill="#00649D" fill-rule="evenodd" d="m8.715 16.974.729-2.034h.943L9.26 18.002a3.5 3.5 0 0 1-.538 1.029.96.96 0 0 1-.82.336 2 2 0 0 1-.41-.078v-.714a1 1 0 0 0 .238.037.43.43 0 0 0 .323-.116c.1-.127.175-.274.218-.43l-1.572-3.107h1.004zm3.27.146h.421a.9.9 0 0 0 .587-.168.67.67 0 0 0 .214-.539q.03-.748-.805-.748h-.413zm0 .748v1.406h-.955V14.94h1.339a2.6 2.6 0 0 1 1.428.325 1.25 1.25 0 0 1 .485 1.163q0 1.428-1.77 1.429zm5.64-2.199h-1.677v3.605h-.952V14.94h2.632zm2.296 1.313.73-2.035h.936l-1.128 3.063a3.5 3.5 0 0 1-.538 1.028.96.96 0 0 1-.82.337 2 2 0 0 1-.41-.079v-.714a1 1 0 0 0 .238.037.43.43 0 0 0 .334-.134c.101-.128.175-.274.218-.43l-1.571-3.108h1.004zm4.012-1.32v3.608h-.952v-3.616h-1.109v-.714h3.166v.714zm2.695 1.622v1.986h-.951v-4.33h.951v1.615h1.583V14.94h.95v4.323h-.95v-1.986zm6.237-1.622h-1.737v1.017h1.455v.748h-1.455v1.121h1.955v.703h-2.91V14.94h2.692zm3.549.179v2.083a1 1 0 0 0 .793-.202c.192-.238.281-.542.248-.845q0-1.096-1.041-1.036m-.936 0q-.993-.09-.993 1.028a1.2 1.2 0 0 0 .233.846.93.93 0 0 0 .752.201zm0 3.418v-.636h-.14a2.7 2.7 0 0 1-.815-.108 1.42 1.42 0 0 1-.707-.599 1.9 1.9 0 0 1-.274-1.043c.002-.267.052-.532.146-.782.113-.286.316-.529.58-.691a2 2 0 0 1 1.21-.262v-.509h.936v.502c.432-.044.867.048 1.244.261.266.161.472.404.587.692.094.25.144.515.146.782.01.367-.087.729-.278 1.043a1.4 1.4 0 0 1-.737.587 2.8 2.8 0 0 1-.834.109h-.14v.635zm5.364-3.609v3.609h-.95v-3.605h-1.11v-.714h3.166v.714zm4.44 0h-1.737v1.017H45v.748h-1.455v1.122H45.5v.703h-2.91v-4.3h2.68zm3.564 0h-1.695v3.605h-.952V14.94h2.632zm1.857 1.975h1.053l-.541-1.361zm-.282.748-.334.89h-.955l1.639-4.323h.89l1.67 4.323h-.955l-.376-.91zm3.812-2.446-.42-.595c.44-.33.98-.505 1.533-.497.3-.015.598.04.872.16.205.092.38.238.504.423.104.162.17.345.192.535q.018.224-.05.438a.8.8 0 0 1-.247.374.9.9 0 0 1-.455.205v.068c.237.016.46.117.628.284a.9.9 0 0 1 .263.673c0 .231-.069.457-.196.65a1.43 1.43 0 0 1-.59.502c-.302.139-.63.212-.962.213a2.53 2.53 0 0 1-1.692-.628l.455-.58q.03.004.053.022l.045.038.135.086.192.116c.252.133.539.188.823.157a.78.78 0 0 0 .504-.247.6.6 0 0 0 .161-.453q0-.49-.665-.49h-.421v-.725h.346a.65.65 0 0 0 .534-.18.48.48 0 0 0 .101-.373.5.5 0 0 0-.218-.348.83.83 0 0 0-.5-.135 1.8 1.8 0 0 0-.925.315m-47.966-.487-.47.565a1.26 1.26 0 0 0-1.011-.374 1.2 1.2 0 0 0-.417.15 1.05 1.05 0 0 0-.399.452 1.8 1.8 0 0 0-.165.868c-.029.38.083.758.316 1.062.17.194.402.326.657.374a1.21 1.21 0 0 0 1.098-.502l.523.46a2.14 2.14 0 0 1-1.703.88 1.9 1.9 0 0 1-1.034-.285 1.96 1.96 0 0 1-.718-.808 2.5 2.5 0 0 1-.256-1.151 2.23 2.23 0 0 1 .662-1.71c.4-.371.926-.577 1.474-.575.277-.003.552.052.808.16.24.103.455.254.631.446" clip-rule="evenodd"/><path fill="#A97654" fill-rule="evenodd" d="M45.421 21.114c-3.977 5.878-14.94 8.791-22.21 9.853a74 74 0 0 1-2.97-.411c4.413-1.455 14.586-4.05 16.432-9.442zM34.797 6.33c3.575 1.006 7.985 2.674 10.553 6.533H34.853c-.142-.18-.289-.374-.44-.538l-.123-.146-.042-.049-.342-.374-.041-.048-.087-.098-.176-.19-.136-.142-.18-.187-.045-.075-.09-.093-.14-.139-.094-.09-.045-.045-.094-.09-.045-.044-.049-.045-.094-.09-.049-.045-.048-.045-.05-.044-.04-.038-.042-.037-.041-.038-.042-.037-.041-.037-.041-.038-.042-.037-.041-.038-.041-.037-.083-.075-.041-.037-.042-.037-.041-.038-.042-.037-.082-.071-.042-.038-.041-.037-.041-.038-.083-.07-.041-.034-.042-.034-.082-.07-.162-.14-.245-.201-.24-.19v-.038a26.5 26.5 0 0 1 4.09-2.397" clip-rule="evenodd"/><path fill="#B88A57" fill-rule="evenodd" d="M46.497 21.113c-3.414 5.916-13.873 9.21-20.173 10.164 1.195.045 2.233.131 3.627.131 7.756 0 14.692-1.66 19.76-4.323 3.383-1.832 5.485-3.799 6.744-5.983zM36.072 5.722c4.545 1.615 7.966 3.287 10.444 7.142l9.92-.03c-2.894-5.033-9.661-7.685-15.274-9.008-.996.273-4.665 1.69-5.09 1.91" clip-rule="evenodd"/><path fill="#00649D" fill-rule="evenodd" d="M14.297 21.114c2.057 2.957 5.264 4.894 9.117 6.043.654.194 1.748.403 2.398.527a27 27 0 0 0 5.143-2.136l-.988.045h-1.17a7.38 7.38 0 0 1-4.203-2.004 6.7 6.7 0 0 1-1.586-2.457zM36.538 3.017c-10.432 1.496-19.041 5.078-22.18 9.842h10.526l.034-.044.079-.101.079-.101.037-.049.12-.15.207-.25.042-.049c.112-.13.225-.261.342-.374l.041-.048.087-.098.176-.19.136-.142.18-.187.045-.045.09-.094.14-.138.093-.09.046-.045.093-.09.046-.044.049-.045.067-.064c.376-.374.8-.748 1.222-1.1l.101-.081.08-.064.244-.202.24-.19c.252-.199.5-.375.752-.543a34.6 34.6 0 0 1 9.775-4.794l-.117-.03c-.79-.146-2.06-.273-2.883-.374" clip-rule="evenodd"/><path fill="#007EAF" fill-rule="evenodd" d="M13.203 12.887c3.666-6.193 14.395-9.162 20.215-10.15a42 42 0 0 0-3.654-.156c-7.756 0-14.767 1.66-19.831 4.322C6.955 8.58 4.59 10.617 3.26 12.887zm8.271 14.584c-3.53-1.433-6.312-3.063-8.27-6.324H3.285c2.846 4.933 9.654 7.689 15.24 9.072 1.072-.288 4.715-1.477 5.82-1.93a16.5 16.5 0 0 1-2.853-.818" clip-rule="evenodd"/></g><defs><clipPath id="a"><path fill="#fff" d="M.143.644h59.429v32.713H.143z"/></clipPath></defs></svg>